SplineFontDB: 3.0
FontName: f0ntuni-b
FullName: F0ntUni B
FamilyName: F0ntUni B
Weight: Regular
Copyright: (c) 2014, Sungsit Sawaiwan.\n\nCreated by Sungsit Sawaiwan with the help from F0nt.com community.\n\nThis work is licensed under the Creative Commons Attribution 4.0 International License. To view a copy of this license, visit http://creativecommons.org/licenses/by/4.0/.
Version: 0.1-beta2
ItalicAngle: 0
UnderlinePosition: -60
UnderlineWidth: 60
Ascent: 960
Descent: 240
LayerCount: 2
Layer: 0 0 "Back"  1
Layer: 1 0 "Fore"  0
FSType: 8
OS2Version: 0
OS2_WeightWidthSlopeOnly: 0
OS2_UseTypoMetrics: 0
CreationTime: 1397065022
ModificationTime: 1397067978
PfmFamily: 33
TTFWeight: 400
TTFWidth: 5
LineGap: 0
VLineGap: 0
OS2TypoAscent: 1240
OS2TypoAOffset: 0
OS2TypoDescent: -480
OS2TypoDOffset: 0
OS2TypoLinegap: 0
OS2WinAscent: 1240
OS2WinAOffset: 0
OS2WinDescent: 480
OS2WinDOffset: 0
HheadAscent: 1240
HheadAOffset: 0
HheadDescent: -480
HheadDOffset: 0
OS2Vendor: 'BUni'
Lookup: 1 0 0 "'locl' Localized Thai-Sanskrit"  {"'locl' Localized Thai-Sanskrit" ("descless" ) } ['locl' ('thai' <'PAL ' 'SAN ' > ) ]
Lookup: 1 0 0 "'salt' Thai-Sanskrit Stylistic Alt"  {"'salt' Thai-Sanskrit Stylistic Alt" ("descless" ) } ['salt' ('DFLT' <'dflt' > 'latn' <'dflt' > 'thai' <'dflt' > ) ]
Lookup: 1 0 0 "'ss01' Thai-Sanskrit Style Set"  {"'ss01' Thai-Sanskrit Style Set" ("descless" ) } ['ss01' ('DFLT' <'dflt' > 'latn' <'dflt' > 'thai' <'dflt' > ) ]
Lookup: 6 0 0 "'ccmp' TH Descless"  {"'ccmp' TH Descless"  } ['ccmp' ('DFLT' <'dflt' > 'latn' <'dflt' > 'thai' <'PAL ' 'SAN ' 'THA ' 'dflt' > ) ]
Lookup: 1 0 0 "TH Descless"  {"TH Descless" ("descless" ) } []
Lookup: 6 0 0 "'ccmp' TH Vow Lower"  {"'ccmp' TH Vow Lower"  } ['ccmp' ('DFLT' <'dflt' > 'latn' <'dflt' > 'thai' <'PAL ' 'SAN ' 'THA ' 'dflt' > ) ]
Lookup: 1 0 0 "TH Vow Lower"  {"TH Vow Lower" ("low" ) } []

StartChar: uni0E2D
Encoding: 3629 3629 0
Width: 680
VWidth: 0
Flags: W
HStem: -20 90<225.322 435.765> 170 55<191.104 238.216> 325 55<151.371 238.629> 535 85<225.684 424.316>
VStem: 70 100<420 485.479> 90 100<102.959 170> 90 55<230.957 318.216> 245 55<231.371 318.629> 480 100<112.149 485.479>
LayerCount: 2
Fore
SplineSet
195 380 m 0xf380
 253 380 300 333 300 275 c 0
 300 217 253 170 195 170 c 2
 190 170 l 1
 190 160 l 2xf580
 190 95 256 70 335 70 c 0
 414 70 480 105 480 170 c 2
 480 420 l 2
 480 481 423 535 325 535 c 0
 227 535 170 481 170 420 c 1
 70 420 l 1xf980
 70 535 174 620 325 620 c 0
 476 620 580 535 580 420 c 2
 580 170 l 2
 580 34 467 -20 335 -20 c 0
 203 -20 90 24 90 160 c 2xf580
 90 275 l 2
 90 333 137 380 195 380 c 0xf380
195 325 m 0
 167 325 145 303 145 275 c 0xf380
 145 247 167 225 195 225 c 0
 223 225 245 247 245 275 c 0
 245 303 223 325 195 325 c 0
EndSplineSet
Validated: 1
Colour: ff00ff
EndChar

StartChar: uni0E01
Encoding: 3585 3585 1
Width: 680
VWidth: 0
Flags: W
HStem: 0 21G<120 220 490 590> 400 20<269.299 300> 535 85<237.66 431.99>
VStem: 120 100<0 371.387> 490 100<0 475.783>
LayerCount: 2
Fore
SplineSet
220 0 m 1
 120 0 l 1
 120 290 l 2
 120 350 145 380 169 395 c 1
 70 420 l 1
 78 474 164 620 340 620 c 0
 481 620 590 535 590 400 c 2
 590 0 l 1
 490 0 l 1
 490 400 l 2
 490 482 426 535 340 535 c 0
 270 535 200 501 176 447 c 1
 300 420 l 1
 300 400 l 1
 300 400 220 396 220 290 c 2
 220 0 l 1
EndSplineSet
Validated: 1
Colour: ff00ff
EndChar

StartChar: uni0E17
Encoding: 3607 3607 2
Width: 690
VWidth: 0
Flags: W
HStem: 0 21G<170 280 500 600> 390 60<117.078 168.951> 510 100<400.739 488.04> 550 60<116.518 203.482>
VStem: 50 60<456.518 543.482> 170 110<0 275.3> 170 100<340 390> 210 60<455.957 542.922> 500 100<0 500.457>
LayerCount: 2
Fore
SplineSet
170 390 m 1xea80
 160 390 l 2
 99 390 50 439 50 500 c 0
 50 561 99 610 160 610 c 0
 221 610 270 561 270 500 c 2xd980
 270 340 l 1xda80
 278 368 327 610 455 610 c 0
 533 610 600 562 600 410 c 2
 600 0 l 1
 500 0 l 1
 500 410 l 2
 500 471 491 510 445 510 c 0
 362 510 302 268 280 180 c 1
 280 0 l 1
 170 0 l 1xec80
 170 390 l 1xea80
160 550 m 0
 132 550 110 528 110 500 c 0
 110 472 132 450 160 450 c 0
 188 450 210 472 210 500 c 0
 210 528 188 550 160 550 c 0
EndSplineSet
Validated: 1
Colour: ff00ff
EndChar

StartChar: uni0E19
Encoding: 3609 3609 3
Width: 690
VWidth: -360
Flags: W
HStem: -20 65<452.127 538.206> 390 60<117.078 168.951> 550 60<116.518 203.482> 580 20G<470 570>
VStem: 50 60<456.518 543.482> 170 100<84 390> 210 60<455.957 542.922> 380 65<50.957 92> 470 100<210 600> 545 65<51.7943 138.518>
LayerCount: 2
Fore
SplineSet
280 -10 m 1xd940
 217 -10 170 15 170 60 c 2
 170 390 l 1xdd40
 160 390 l 2
 99 390 50 439 50 500 c 0
 50 561 99 610 160 610 c 0
 221 610 270 561 270 500 c 2xeb
 270 84 l 1
 317 138 397 196 470 211 c 1
 470 600 l 1
 570 600 l 1
 570 210 l 1xdd80
 548 197 l 1
 585 178 610 139 610 95 c 0
 610 31 559 -20 495 -20 c 0
 432 -20 382 30 380 92 c 1
 320 48 280 -10 280 -10 c 1xd940
160 550 m 0xeb
 132 550 110 528 110 500 c 0
 110 472 132 450 160 450 c 0
 188 450 210 472 210 500 c 0
 210 528 188 550 160 550 c 0xeb
495 145 m 0
 467 145 445 123 445 95 c 0
 445 67 467 45 495 45 c 0
 523 45 545 67 545 95 c 0xc940
 545 123 523 145 495 145 c 0
EndSplineSet
Validated: 1
Colour: ff00ff
EndChar

StartChar: uni0E21
Encoding: 3617 3617 4
Width: 670
VWidth: 0
Flags: W
HStem: -20 65<131.794 218.206> 145 65<132.632 178.896> 390 60<127.078 178.951> 550 60<126.518 213.482> 580 20G<470 570>
VStem: 60 65<51.7943 138.206 454.25 545.75> 180 100<210 390> 220 60<455.957 542.922> 225 65<51.7943 112.532> 470 100<90 600>
LayerCount: 2
Fore
SplineSet
170 550 m 0xf540
 142 550 120 528 120 500 c 0
 120 472 142 450 170 450 c 0
 198 450 220 472 220 500 c 0
 220 528 198 550 170 550 c 0xf540
470 600 m 1xed40
 570 600 l 1
 570 60 l 2
 570 15 513 -10 450 -10 c 1
 450 -10 403 80 289 113 c 1
 290 107 290 101 290 95 c 0xecc0
 290 31 239 -20 175 -20 c 0
 111 -20 60 31 60 95 c 0
 60 159 111 210 175 210 c 2
 180 210 l 1
 180 390 l 1
 170 390 l 2
 109 390 60 439 60 500 c 0
 60 561 109 610 170 610 c 0xf640
 231 610 280 561 280 500 c 2
 280 197 l 1
 364 178 430 134 470 90 c 1
 470 600 l 1xed40
175 145 m 0
 147 145 125 123 125 95 c 0
 125 67 147 45 175 45 c 0
 203 45 225 67 225 95 c 0
 225 123 203 145 175 145 c 0
EndSplineSet
Validated: 1
Colour: ff00ff
EndChar

StartChar: uni0E1A
Encoding: 3610 3610 5
Width: 740
VWidth: 0
Flags: W
HStem: -20 90<310.921 509.079> 390 60<117.078 168.951> 550 60<116.518 203.482> 580 20G<550 650>
VStem: 50 60<456.518 543.482> 170 100<107.859 390> 210 60<455.957 542.922> 550 100<107.859 600>
LayerCount: 2
Fore
SplineSet
160 550 m 0xeb
 132 550 110 528 110 500 c 0
 110 472 132 450 160 450 c 0
 188 450 210 472 210 500 c 0
 210 528 188 550 160 550 c 0xeb
160 610 m 0
 221 610 270 561 270 500 c 2xeb
 270 170 l 2
 270 105 331 70 410 70 c 0
 489 70 550 105 550 170 c 2
 550 600 l 1
 650 600 l 1
 650 170 l 2
 650 34 542 -20 410 -20 c 0
 278 -20 170 34 170 170 c 2
 170 390 l 1xdd
 160 390 l 2
 99 390 50 439 50 500 c 0
 50 561 99 610 160 610 c 0
EndSplineSet
Validated: 1
Colour: ff00ff
EndChar

StartChar: uni0E1B
Encoding: 3611 3611 6
Width: 740
VWidth: 0
Flags: W
HStem: -20 90<310.921 509.079> 390 60<117.078 168.951> 550 60<116.518 203.482> 820 20G<550 650>
VStem: 50 60<456.518 543.482> 170 100<107.859 390> 210 60<455.957 542.922> 550 100<107.859 840>
LayerCount: 2
Fore
SplineSet
160 550 m 0xfb
 132 550 110 528 110 500 c 0
 110 472 132 450 160 450 c 0
 188 450 210 472 210 500 c 0
 210 528 188 550 160 550 c 0xfb
160 610 m 0
 221 610 270 561 270 500 c 2xfb
 270 170 l 2
 270 105 331 70 410 70 c 0
 489 70 550 105 550 170 c 2
 550 840 l 1
 650 840 l 1
 650 170 l 2
 650 34 542 -20 410 -20 c 0
 278 -20 170 34 170 170 c 2
 170 390 l 1xfd
 160 390 l 2
 99 390 50 439 50 500 c 0
 50 561 99 610 160 610 c 0
EndSplineSet
Validated: 1
Colour: ff00ff
EndChar

StartChar: uni0E04
Encoding: 3588 3588 7
Width: 690
VWidth: 0
Flags: W
HStem: 0 21G<500 600> 230 45<301.979 377.842> 365 45<301.4 377.842> 535 85<243.405 436.595>
VStem: 80 100<271.864 476.307> 90 120<15.3619 137.15> 110 100<0.0914307 246.428> 385 45<282.158 357.842> 500 100<0 476.056>
LayerCount: 2
Fore
SplineSet
340 410 m 0xf980
 390 410 430 370 430 320 c 0
 430 270 390 230 340 230 c 0
 301 230 268 255 255 289 c 1
 231 243 210 179 210 120 c 2xf580
 210 -10 l 1xf380
 210 -10 91 -6 90 30 c 1xf580
 90 30 110 79 110 140 c 0xf380
 110 242 80 265 80 400 c 0
 80 537 194 620 340 620 c 0
 486 620 600 537 600 400 c 2
 600 0 l 1
 500 0 l 1
 500 400 l 2
 500 482 431 535 340 535 c 0
 249 535 180 482 180 400 c 0
 180 343 186 305 192 271 c 1
 212 346 268 410 340 410 c 0xf980
340 365 m 0
 315 365 295 345 295 320 c 0
 295 295 315 275 340 275 c 0
 365 275 385 295 385 320 c 0
 385 345 365 365 340 365 c 0
EndSplineSet
Validated: 1
Colour: ff00ff
EndChar

StartChar: uni0E05
Encoding: 3589 3589 8
Width: 690
VWidth: 0
Flags: W
HStem: 0 21G<500 600> 230 45<301.979 377.842> 365 45<301.675 377.842> 600 20G<215.5 272.143 407.857 464.5>
VStem: 80 100<278.491 504.15> 90 120<15.3619 137.15> 110 100<0.0914307 245.225> 385 45<282.158 357.842> 500 100<0 503.038>
LayerCount: 2
Fore
SplineSet
340 410 m 0xf980
 390 410 430 370 430 320 c 0
 430 270 390 230 340 230 c 0
 301 230 268 255 255 289 c 1
 231 243 210 179 210 120 c 2xf580
 210 -10 l 1xf380
 210 -10 91 -6 90 30 c 1xf580
 90 30 110 79 110 140 c 0xf380
 110 242 80 285 80 420 c 0
 80 554 186 620 245 620 c 1
 340 550 l 1
 435 620 l 1
 494 620 600 554 600 420 c 2
 600 0 l 1
 500 0 l 1
 500 420 l 2
 500 505 445 530 445 530 c 1
 340 460 l 1
 235 530 l 1
 235 530 180 505 180 420 c 0
 180 359 186 316 193 276 c 1
 214 349 269 410 340 410 c 0xf980
340 365 m 0
 315 365 295 345 295 320 c 0
 295 295 315 275 340 275 c 0
 365 275 385 295 385 320 c 0
 385 345 365 365 340 365 c 0
EndSplineSet
Validated: 1
Colour: ff00ff
EndChar

StartChar: uni0E02
Encoding: 3586 3586 9
Width: 660
VWidth: 0
Flags: W
HStem: -20 85<308.391 451.609> 350 40<118.483 192.114> 480 40<131.488 192.114> 550 60<138.32 274.171> 580 20G<470 570>
VStem: 60 50<395.153 496.568> 190 100<84.515 295.515> 200 40<397.886 472.114> 300 80<376.339 525.342> 470 100<84.515 600>
LayerCount: 2
Fore
SplineSet
210 610 m 0xf5c0
 327 610 380 530 380 460 c 0
 380 338 290 319 290 200 c 2
 290 130 l 2
 290 97 325 65 380 65 c 0
 435 65 470 97 470 130 c 2
 470 600 l 1
 570 600 l 1
 570 130 l 2
 570 92 538 -20 380 -20 c 0
 222 -20 190 92 190 130 c 2
 190 200 l 2xeec0
 190 336 300 344 300 460 c 0
 300 513 263 550 210 550 c 0
 177 550 149 538 131 517 c 1
 139 519 147 520 155 520 c 0
 202 520 240 482 240 435 c 0
 240 388 202 350 155 350 c 0
 95 350 60 395 60 455 c 0
 60 547 127 610 210 610 c 0xf5c0
155 480 m 0
 130 480 110 460 110 435 c 0
 110 410 130 390 155 390 c 0
 180 390 200 410 200 435 c 0xe5c0
 200 460 180 480 155 480 c 0
EndSplineSet
Validated: 1
Colour: ff00ff
EndChar

StartChar: uni0E03
Encoding: 3587 3587 10
Width: 690
VWidth: 0
Flags: W
HStem: -20 85<338.391 481.609> 320 40<133.065 207.114> 450 40<132.638 207.114> 555 55<132.803 222.952> 580 20G<500 600>
VStem: 60 65<365.005 503.016> 215 40<367.886 442.114> 220 100<84.515 283.586> 350 80<387.899 547.869> 500 100<84.515 600>
LayerCount: 2
Fore
SplineSet
170 450 m 0xe6c0
 145 450 125 430 125 405 c 0
 125 380 145 360 170 360 c 0
 195 360 215 380 215 405 c 0
 215 430 195 450 170 450 c 0xe6c0
180 610 m 0xf6c0
 222 610 253 583 272 552 c 1
 301 610 l 1
 329 610 l 1xf6c0
 386 593 430 542 430 460 c 0
 430 338 320 308 320 200 c 2
 320 130 l 2
 320 97 355 65 410 65 c 0
 465 65 500 97 500 130 c 2
 500 600 l 1
 600 600 l 1
 600 130 l 2
 600 92 568 -20 410 -20 c 0
 252 -20 220 92 220 130 c 2
 220 200 l 2xedc0
 220 336 350 358 350 460 c 0
 350 495 346 523 323 550 c 1
 290 490 l 1
 240 490 l 1
 233 522 213 555 180 555 c 0
 137 555 118 516 115 470 c 1
 130 482 149 490 170 490 c 0
 217 490 255 452 255 405 c 0
 255 358 217 320 170 320 c 0
 99 320 60 382 60 460 c 0
 60 513 92 610 180 610 c 0xf6c0
EndSplineSet
Validated: 1
Colour: ff00ff
EndChar

StartChar: uni0E06
Encoding: 3590 3590 11
Width: 690
VWidth: -360
Flags: W
HStem: -20 65<161.794 248.206> 145 65<161.794 221.056> 320 40<133.065 207.114> 450 40<132.638 207.114> 555 55<132.803 222.952> 580 20G<500 600>
VStem: 60 65<365.005 503.016> 90 65<51.7943 138.206> 215 40<367.886 442.114> 220 100<209 283.586> 255 65<51.7943 112.532> 350 80<388.52 547.869> 500 100<90 600>
LayerCount: 2
Fore
SplineSet
170 450 m 0xf298
 145 450 125 430 125 405 c 0
 125 380 145 360 170 360 c 0
 195 360 215 380 215 405 c 0
 215 430 195 450 170 450 c 0xf298
205 145 m 0
 177 145 155 123 155 95 c 0
 155 67 177 45 205 45 c 0
 233 45 255 67 255 95 c 0xf138
 255 123 233 145 205 145 c 0
500 600 m 1xf638
 600 600 l 1
 600 60 l 2
 600 15 543 -10 480 -10 c 1
 480 -10 433 80 319 113 c 1
 320 107 320 101 320 95 c 0xf638
 320 31 269 -20 205 -20 c 0
 141 -20 90 31 90 95 c 0
 90 159 141 210 205 210 c 0
 210 210 215 210 220 209 c 1xf558
 226 337 350 360 350 460 c 0
 350 495 346 523 323 550 c 1
 290 490 l 1
 240 490 l 1
 233 522 213 555 180 555 c 0
 137 555 118 516 115 470 c 1
 130 482 149 490 170 490 c 0
 217 490 255 452 255 405 c 0
 255 358 217 320 170 320 c 0
 99 320 60 382 60 460 c 0
 60 513 92 610 180 610 c 0
 222 610 253 583 272 552 c 1
 301 610 l 1
 329 610 l 1xfa98
 386 593 430 542 430 460 c 0
 430 338 320 308 320 200 c 2
 320 194 l 1
 399 175 461 132 500 90 c 1
 500 600 l 1xf638
EndSplineSet
Validated: 1
Colour: ff00ff
EndChar

StartChar: uni0E07
Encoding: 3591 3591 12
Width: 580
VWidth: 0
Flags: W
HStem: 300 80<50 104.925> 390 60<317.078 368.951> 550 60<316.518 403.482>
VStem: 250 60<456.518 543.482> 370 100<70 390> 410 60<455.957 542.922>
LayerCount: 2
Fore
SplineSet
370 70 m 1xf8
 370 390 l 1xf8
 360 390 l 2
 299 390 250 439 250 500 c 0
 250 561 299 610 360 610 c 0
 421 610 470 561 470 500 c 2
 470 60 l 2xf4
 470 15 393 -10 330 -10 c 1
 204 209 99 300 50 300 c 1
 50 380 l 1
 147 380 246 278 370 70 c 1xf8
360 550 m 0
 332 550 310 528 310 500 c 0
 310 472 332 450 360 450 c 0
 388 450 410 472 410 500 c 0xf4
 410 528 388 550 360 550 c 0
EndSplineSet
Validated: 1
Colour: ff00ff
EndChar

StartChar: uni0E16
Encoding: 3606 3606 13
Width: 680
VWidth: 0
Flags: W
HStem: -10 60<186.518 273.482> 0 21G<490 590> 150 60<221.049 272.922> 400 20<269.299 300> 535 85<237.66 431.99>
VStem: 120 100<210 371.387> 120 60<57.0781 144.043> 280 60<56.5176 143.482> 490 100<0 475.783>
LayerCount: 2
Fore
SplineSet
230 210 m 2x7d80
 291 210 340 161 340 100 c 0
 340 39 291 -10 230 -10 c 0
 169 -10 120 39 120 100 c 2xbb80
 120 290 l 2
 120 350 145 380 169 395 c 1
 70 420 l 1
 78 474 164 620 340 620 c 0
 481 620 590 535 590 400 c 2
 590 0 l 1
 490 0 l 1
 490 400 l 2
 490 482 426 535 340 535 c 0
 270 535 200 501 176 447 c 1
 300 420 l 1
 300 400 l 1
 300 400 220 396 220 290 c 2
 220 210 l 1
 230 210 l 2x7d80
230 150 m 0
 202 150 180 128 180 100 c 0
 180 72 202 50 230 50 c 0
 258 50 280 72 280 100 c 0
 280 128 258 150 230 150 c 0
EndSplineSet
Validated: 1
Colour: ff00ff
EndChar

StartChar: uni0E2E
Encoding: 3630 3630 14
Width: 680
VWidth: 0
Flags: W
HStem: -20 90<231.411 442.394> 170 55<191.104 238.216> 325 55<151.371 238.629> 535 85<225.684 426.007> 580 90<568.541 640>
VStem: 70 100<420 485.479> 90 100<107.95 170> 90 55<230.957 318.216> 245 55<231.371 318.629> 480 100<107 485.397>
LayerCount: 2
Fore
SplineSet
195 325 m 0xe1c0
 167 325 145 303 145 275 c 0
 145 247 167 225 195 225 c 0
 223 225 245 247 245 275 c 0
 245 303 223 325 195 325 c 0xe1c0
195 380 m 0
 253 380 300 333 300 275 c 0
 300 217 253 170 195 170 c 2
 190 170 l 1
 190 160 l 2xeac0
 190 95 266 70 345 70 c 0
 424 70 480 105 480 170 c 2
 480 420 l 2
 480 481 423 535 325 535 c 0
 227 535 170 481 170 420 c 1
 70 420 l 1
 70 535 174 620 325 620 c 0xf4c0
 389 620 453 605 493 579 c 1
 526 626 569 670 640 670 c 1
 660 580 l 1
 609 580 568 561 543 532 c 1
 567 501 580 462 580 420 c 2
 580 170 l 2
 580 34 477 -20 345 -20 c 0
 213 -20 90 24 90 160 c 2xeac0
 90 275 l 2
 90 333 137 380 195 380 c 0
EndSplineSet
Validated: 1
Colour: ff00ff
EndChar

StartChar: uni0E20
Encoding: 3616 3616 15
Width: 700
VWidth: 0
Flags: W
HStem: -10 60<126.518 213.482> 0 21G<510 610> 150 60<126.944 166> 400 20<303.136 330> 535 85<257.66 451.99>
VStem: 60 60<56.5176 144.124> 160 100<210.426 376.06> 220 60<56.5176 143.431> 510 100<0 475.783>
LayerCount: 2
Fore
SplineSet
610 400 m 2xbe80
 610 0 l 1
 510 0 l 1
 510 400 l 2
 510 482 446 535 360 535 c 0
 290 535 220 501 196 448 c 1
 330 420 l 1
 330 400 l 1
 330 400 260 393 260 300 c 2
 260 260 l 2x7e80
 260 199 280 175 280 100 c 0x7d80
 280 39 231 -10 170 -10 c 0
 109 -10 60 39 60 100 c 0
 60 159 107 208 166 210 c 1
 163 219 160 234 160 260 c 2
 160 300 l 2
 160 352 181 379 201 394 c 1
 90 420 l 1
 98 474 184 620 360 620 c 0
 501 620 610 535 610 400 c 2xbe80
170 150 m 0
 142 150 120 128 120 100 c 0
 120 72 142 50 170 50 c 0
 198 50 220 72 220 100 c 0xbd80
 220 128 198 150 170 150 c 0
EndSplineSet
Validated: 1
Colour: ff00ff
EndChar

StartChar: uni0E14
Encoding: 3604 3604 16
Width: 690
VWidth: 0
Flags: W
HStem: 0 21G<500 600> 230 45<302.835 340> 365 45<302.158 377.842> 535 85<243.405 436.595>
VStem: 80 100<198.251 476.307> 110 100<0.0914307 55.8931 120 321.965> 250 45<282.158 357.842> 385 45<284.025 357.842> 500 100<0 476.056>
LayerCount: 2
Fore
SplineSet
340 410 m 0xf780
 390 410 430 370 430 320 c 0
 430 171 210 107 210 -10 c 1
 210 -10 91 -6 90 30 c 1
 90 30 110 79 110 140 c 0xf780
 110 242 80 265 80 400 c 0
 80 537 194 620 340 620 c 0
 486 620 600 537 600 400 c 2
 600 0 l 1
 500 0 l 1
 500 400 l 2
 500 482 431 535 340 535 c 0
 249 535 180 482 180 400 c 0xfb80
 180 269 210 237 210 130 c 2
 210 120 l 1
 246 160 306 190 340 230 c 1
 290 230 250 270 250 320 c 0
 250 370 290 410 340 410 c 0xf780
340 365 m 0
 315 365 295 345 295 320 c 0
 295 295 315 275 340 275 c 0
 365 275 385 295 385 320 c 0
 385 345 365 365 340 365 c 0
EndSplineSet
Validated: 1
Colour: ff00ff
EndChar

StartChar: uni0E15
Encoding: 3605 3605 17
Width: 690
VWidth: 0
Flags: W
HStem: 0 21G<500 600> 230 45<302.835 340> 365 45<302.158 377.842> 600 20G<215.5 272.143 400.714 454.5>
VStem: 80 100<201.04 504.15> 110 100<0.0914307 55.8931 120 339.184> 250 45<282.158 357.842> 385 45<284.025 357.842> 500 100<0 498.17>
LayerCount: 2
Fore
SplineSet
340 410 m 0xf780
 390 410 430 370 430 320 c 0
 430 171 210 107 210 -10 c 1
 210 -10 91 -6 90 30 c 1
 90 30 110 79 110 140 c 0xf780
 110 242 80 285 80 420 c 0
 80 554 186 620 245 620 c 1
 340 550 l 1
 425 620 l 1
 484 620 600 554 600 420 c 2
 600 0 l 1
 500 0 l 1
 500 420 l 2
 500 505 435 530 435 530 c 1
 340 460 l 1
 235 530 l 1
 235 530 180 505 180 420 c 0xfb80
 180 289 210 237 210 130 c 2
 210 120 l 1
 246 160 306 190 340 230 c 1
 290 230 250 270 250 320 c 0
 250 370 290 410 340 410 c 0xf780
340 365 m 0
 315 365 295 345 295 320 c 0
 295 295 315 275 340 275 c 0
 365 275 385 295 385 320 c 0
 385 345 365 365 340 365 c 0
EndSplineSet
Validated: 1
Colour: ff00ff
EndChar

StartChar: uni0E08
Encoding: 3592 3592 19
Width: 630
VWidth: -360
Flags: W
HStem: 160 60<176.518 263.644> 320 60<176.518 262.265> 535 85<196.613 373.387>
VStem: 50 100<420 490.586> 110 60<226.518 313.482> 420 100<126 490.586>
LayerCount: 2
Fore
SplineSet
420 126 m 1xec
 420 420 l 2
 420 481 375 535 285 535 c 0
 195 535 150 481 150 420 c 1
 50 420 l 1xf4
 50 535 140 620 285 620 c 0
 430 620 520 535 520 420 c 2
 520 60 l 2
 520 15 444 -10 400 -10 c 1
 389 89 361 177 325 236 c 1
 311 192 269 160 220 160 c 0
 159 160 110 209 110 270 c 0
 110 331 159 380 220 380 c 0
 321 380 386 260 420 126 c 1xec
220 320 m 0
 192 320 170 298 170 270 c 0xec
 170 242 192 220 220 220 c 0
 248 220 270 242 270 270 c 0
 270 298 248 320 220 320 c 0
EndSplineSet
Validated: 1
Colour: ff00ff
EndChar

StartChar: uni0E09
Encoding: 3593 3593 20
Width: 680
VWidth: 0
Flags: W
HStem: -20 65<451.794 538.206> 180 55<131.172 179.111> 325 55<130.292 209.708> 535 85<237.534 422.466>
VStem: 70 55<240.292 319.708> 90 100<420 485.904> 180 90<76 180> 215 55<239.412 318.828> 380 65<51.7943 105.5> 470 100<210 485.904> 545 65<51.7943 138.518>
LayerCount: 2
Fore
SplineSet
381 106 m 1xf0a0
 319 57 280 -10 280 -10 c 1
 217 -10 180 15 180 60 c 2
 180 180 l 1xf2a0
 170 180 l 2
 115 180 70 225 70 280 c 0
 70 335 115 380 170 380 c 0
 225 380 270 335 270 280 c 2xf980
 270 76 l 1xf280
 310 133 386 197 470 212 c 1
 470 420 l 2
 470 481 420 535 330 535 c 0
 240 535 190 481 190 420 c 1
 90 420 l 1
 90 535 185 620 330 620 c 0
 475 620 570 535 570 420 c 2
 570 210 l 1xf4c0
 548 197 l 1
 585 178 610 139 610 95 c 0
 610 31 559 -20 495 -20 c 0
 431 -20 380 31 380 95 c 0
 380 99 380 102 381 106 c 1xf0a0
170 325 m 0
 145 325 125 305 125 280 c 0
 125 255 145 235 170 235 c 0
 195 235 215 255 215 280 c 0xf980
 215 305 195 325 170 325 c 0
495 145 m 0
 467 145 445 123 445 95 c 0
 445 67 467 45 495 45 c 0
 523 45 545 67 545 95 c 0xf0a0
 545 123 523 145 495 145 c 0
EndSplineSet
Validated: 1
Colour: ff00ff
EndChar

StartChar: uni0E0A
Encoding: 3594 3594 21
Width: 680
VWidth: -360
Flags: W
HStem: -20 85<308.391 451.609> 350 40<118.483 192.114> 480 40<131.488 192.114> 550 60<138.32 273.812> 560 90<526.266 650>
VStem: 60 50<395.153 496.568> 190 100<84.515 296.768> 200 40<397.886 472.114> 300 79<375.688 438> 470 100<84.515 402.457>
LayerCount: 2
Fore
SplineSet
374 502 m 1xf5c0
 426 576 524 650 650 650 c 1
 650 560 l 1
 550 560 468 518 416 475 c 1
 459 460 570 418 570 370 c 2
 570 130 l 2
 570 92 538 -20 380 -20 c 0
 222 -20 190 92 190 130 c 2
 190 200 l 2xeec0
 190 336 300 344 300 460 c 0
 300 513 263 550 210 550 c 0
 177 550 149 538 131 517 c 1
 139 519 147 520 155 520 c 0
 202 520 240 482 240 435 c 0
 240 388 202 350 155 350 c 0
 95 350 60 395 60 455 c 0
 60 547 127 610 210 610 c 0
 304 610 356 559 374 502 c 1xf5c0
379 435 m 0
 368 335 290 311 290 200 c 2
 290 130 l 2
 290 97 325 65 380 65 c 0
 435 65 470 97 470 130 c 2
 470 370 l 2
 470 394 416 422 380 438 c 1
 380 437 379 436 379 435 c 0
155 480 m 0
 130 480 110 460 110 435 c 0
 110 410 130 390 155 390 c 0
 180 390 200 410 200 435 c 0xe5c0
 200 460 180 480 155 480 c 0
EndSplineSet
Validated: 1
Colour: ff00ff
EndChar

StartChar: uni0E0B
Encoding: 3595 3595 22
Width: 710
VWidth: -360
Flags: W
HStem: -20 85<338.391 481.609> 320 40<133.065 207.114> 450 40<132.638 207.114> 555 55<132.803 222.952> 560 90<558.482 680>
VStem: 60 65<365.005 503.016> 215 40<367.886 442.114> 220 100<84.515 283.574> 500 100<84.515 401.953>
LayerCount: 2
Fore
SplineSet
500 370 m 2xe580
 500 390 461 414 428 430 c 1
 411 332 320 298 320 200 c 2
 320 130 l 2
 320 97 355 65 410 65 c 0
 465 65 500 97 500 130 c 2
 500 370 l 2xe580
180 610 m 0xf680
 222 610 253 583 272 552 c 1
 301 610 l 1
 329 610 l 1xf680
 373 597 409 563 424 511 c 1
 472 582 559 650 680 650 c 1
 680 560 l 1
 578 560 501 516 456 471 c 1
 503 454 600 414 600 370 c 2
 600 130 l 2
 600 92 568 -20 410 -20 c 0
 252 -20 220 92 220 130 c 2
 220 200 l 2xed80
 220 336 350 358 350 460 c 0
 350 495 346 523 323 550 c 1
 290 490 l 1
 240 490 l 1
 233 522 213 555 180 555 c 0
 137 555 118 516 115 470 c 1
 130 482 149 490 170 490 c 0
 217 490 255 452 255 405 c 0
 255 358 217 320 170 320 c 0
 99 320 60 382 60 460 c 0
 60 513 92 610 180 610 c 0xf680
170 450 m 0
 145 450 125 430 125 405 c 0
 125 380 145 360 170 360 c 0
 195 360 215 380 215 405 c 0
 215 430 195 450 170 450 c 0
EndSplineSet
Validated: 1
Colour: ff00ff
EndChar

StartChar: uni0E0C
Encoding: 3596 3596 23
Width: 940
VWidth: 0
Flags: W
HStem: -20 65<481.794 568.206> -10 60<196.518 283.482> 150 60<231.049 282.922> 400 20<279.299 310> 535 85<244.059 426.7> 580 20G<740 840>
VStem: 130 100<210 371.387> 130 60<57.0781 144.043> 290 60<56.5176 143.482> 410 65<51.7943 139.107> 480 100<198.87 481.05> 575 65<51.7943 118.279> 740 100<92 600>
LayerCount: 2
Fore
SplineSet
525 145 m 0xb0d8
 497 145 475 123 475 95 c 0
 475 67 497 45 525 45 c 0
 553 45 575 67 575 95 c 0
 575 123 553 145 525 145 c 0xb0d8
240 150 m 0
 212 150 190 128 190 100 c 0
 190 72 212 50 240 50 c 0x71c8
 268 50 290 72 290 100 c 0
 290 128 268 150 240 150 c 0
240 210 m 2
 301 210 350 161 350 100 c 0
 350 39 301 -10 240 -10 c 0
 179 -10 130 39 130 100 c 2x79c8
 130 290 l 2
 130 350 155 380 179 395 c 1
 80 420 l 1
 88 474 164 620 340 620 c 0
 481 620 580 535 580 400 c 2
 580 205 l 1x7ae8
 657 190 710 140 740 92 c 1
 740 600 l 1
 840 600 l 1
 840 60 l 2
 840 15 784 -10 730 -10 c 1
 730 -10 708 73 637 119 c 1
 639 111 640 103 640 95 c 0x74d8
 640 31 589 -20 525 -20 c 0
 461 -20 410 31 410 95 c 0
 410 143 439 183 480 201 c 1
 480 400 l 2
 480 482 426 535 340 535 c 0
 270 535 210 501 186 447 c 1
 310 420 l 1
 310 400 l 1
 310 400 230 396 230 290 c 2
 230 210 l 1xbae8
 240 210 l 2
EndSplineSet
Validated: 1
Colour: ff0000
EndChar

StartChar: uni0E0D
Encoding: 3597 3597 24
Width: 930
VWidth: 0
Flags: W
HStem: -270 60<601.754 727.343> -110 40<523.912 586.088> -20 85<595.595 724.405> -10 60<196.518 283.482> 150 60<231.049 282.922> 400 20<279.299 310> 535 85<244.059 426.7> 580 20<740 840>
VStem: 130 60<57.0781 144.043> 130 100<210 371.387> 290 60<56.5176 143.482> 480 40<-175.859 -113.912> 480 100<81.457 481.05> 590 40<-176.426 -113.912> 740 100<81.457 600> 770 80<-166.96 -90>
LayerCount: 2
Fore
SplineSet
555 -70 m 0xcc35
 596 -70 630 -104 630 -145 c 0
 630 -169 619 -190 601 -204 c 1
 616 -208 632 -210 650 -210 c 0
 711 -210 770 -171 770 -90 c 1
 850 -90 l 1
 850 -216 746 -270 650 -270 c 0
 539 -270 480 -211 480 -145 c 0
 480 -104 514 -70 555 -70 c 0xcc35
555 -110 m 0
 536 -110 520 -126 520 -145 c 0
 520 -164 536 -180 555 -180 c 0
 574 -180 590 -164 590 -145 c 0
 590 -126 574 -110 555 -110 c 0
EndSplineSet
Refer: 72 60941 N 1 0 0 1 0 0 2
Validated: 1
Substitution2: "TH Descless" uni0E0D.descless
Substitution2: "'locl' Localized Thai-Sanskrit" uni0E0D.descless
Substitution2: "'salt' Thai-Sanskrit Stylistic Alt" uni0E0D.descless
Substitution2: "'ss01' Thai-Sanskrit Style Set" uni0E0D.descless
Colour: ff0000
EndChar

StartChar: uni0E13
Encoding: 3603 3603 25
Width: 950
VWidth: -360
Flags: W
HStem: -20 65<721.338 808.206> -10 60<196.518 283.482> 150 60<231.049 282.922> 400 20<279.299 310> 535 85<244.059 426.7> 580 20G<740 840>
VStem: 130 100<210 371.387> 130 60<57.0781 144.043> 290 60<56.5176 143.482> 480 100<84 481.05> 650 65<51.2013 89> 740 100<210 600> 815 65<51.7943 138.518>
LayerCount: 2
Fore
SplineSet
765 145 m 0xb0e8
 737 145 715 123 715 95 c 0
 715 67 737 45 765 45 c 0
 793 45 815 67 815 95 c 0
 815 123 793 145 765 145 c 0xb0e8
240 150 m 0
 212 150 190 128 190 100 c 0
 190 72 212 50 240 50 c 0x71e0
 268 50 290 72 290 100 c 0
 290 128 268 150 240 150 c 0
240 210 m 2
 301 210 350 161 350 100 c 0
 350 39 301 -10 240 -10 c 0
 179 -10 130 39 130 100 c 2x79e0
 130 290 l 2
 130 350 155 380 179 395 c 1
 80 420 l 1
 88 474 164 620 340 620 c 0x7ae0
 481 620 580 535 580 400 c 2
 580 130 l 1
 580 84 l 1
 614 138 673 195 740 211 c 1
 740 600 l 1
 840 600 l 1
 840 210 l 1x36f0
 818 197 l 1
 855 178 880 139 880 95 c 0
 880 31 829 -20 765 -20 c 0xb4e8
 704 -20 653 28 650 89 c 1
 610 43 590 -10 590 -10 c 1
 527 -10 480 15 480 60 c 2
 480 130 l 1
 480 400 l 2
 480 482 426 535 340 535 c 0
 270 535 210 501 186 447 c 1
 310 420 l 1
 310 400 l 1
 310 400 230 396 230 290 c 2
 230 210 l 1x7ae8
 240 210 l 2
EndSplineSet
Validated: 1
Colour: ff0000
EndChar

StartChar: uni0E12
Encoding: 3602 3602 26
Width: 940
VWidth: -360
Flags: W
HStem: -20 65<481.794 568.206> 145 475<415 525> 230 45<292.835 330> 365 45<292.158 367.842> 580 20G<740 840>
VStem: 80 100<201.04 504.15> 110 100<0.0914307 60.6174 120 339.184> 240 45<282.158 357.842> 375 45<284.025 357.842> 410 65<51.7943 139.107> 480 100<198.87 503.038> 575 65<51.7943 118.279> 740 100<92 600>
LayerCount: 2
Fore
SplineSet
525 145 m 0xc158
 497 145 475 123 475 95 c 0
 475 67 497 45 525 45 c 0
 553 45 575 67 575 95 c 0
 575 123 553 145 525 145 c 0xc158
330 365 m 0xb188
 305 365 285 345 285 320 c 0
 285 295 305 275 330 275 c 0
 355 275 375 295 375 320 c 0
 375 345 355 365 330 365 c 0xb188
330 410 m 0
 380 410 420 370 420 320 c 0
 420 171 210 107 210 -10 c 1
 210 -10 91 -6 90 30 c 1
 90 30 110 79 110 140 c 0xbb88
 110 242 80 285 80 420 c 0
 80 554 186 620 245 620 c 1
 330 550 l 1
 415 620 l 1
 474 620 580 554 580 420 c 2
 580 205 l 1xc528
 657 190 710 140 740 92 c 1
 740 600 l 1
 840 600 l 1
 840 60 l 2
 840 15 784 -10 730 -10 c 1
 730 -10 708 73 637 119 c 1
 639 111 640 103 640 95 c 0x8918
 640 31 589 -20 525 -20 c 0
 461 -20 410 31 410 95 c 0
 410 143 439 183 480 201 c 1
 480 420 l 2
 480 505 425 530 425 530 c 1
 330 460 l 1
 235 530 l 1
 235 530 180 505 180 420 c 0x8d68
 180 289 210 237 210 130 c 2
 210 120 l 1x8b08
 246 160 296 190 330 230 c 1
 280 230 240 270 240 320 c 0
 240 370 280 410 330 410 c 0
EndSplineSet
Validated: 1
Colour: ff0000
EndChar

StartChar: uni0E11
Encoding: 3601 3601 27
Width: 770
VWidth: 0
Flags: W
HStem: 0 21G<240 350 580 680> 320 40<133.065 207.114> 450 40<132.638 207.114> 510 100<479.49 570.697> 555 55<132.803 222.952>
VStem: 60 65<365.005 503.016> 215 40<367.886 442.114> 240 110<0 300.022> 580 100<0 500.457>
LayerCount: 2
Fore
SplineSet
180 610 m 0xee80
 222 610 253 583 272 552 c 1
 301 610 l 1
 329 610 l 1xee80
 373 597 409 564 423 512 c 1
 452 565 493 610 545 610 c 0
 623 610 680 562 680 410 c 2
 680 0 l 1
 580 0 l 1
 580 410 l 2
 580 471 576 510 530 510 c 0
 503 510 457 479 428 428 c 1
 425 409 420 392 415 380 c 0
 390 319 350 304 350 200 c 2
 350 0 l 1
 240 0 l 1
 240 200 l 2
 240 336 350 358 350 460 c 0
 350 495 346 523 323 550 c 1
 290 490 l 1
 240 490 l 1xf580
 233 522 213 555 180 555 c 0
 137 555 118 516 115 470 c 1
 130 482 149 490 170 490 c 0
 217 490 255 452 255 405 c 0
 255 358 217 320 170 320 c 0
 99 320 60 382 60 460 c 0
 60 513 92 610 180 610 c 0xee80
170 450 m 0
 145 450 125 430 125 405 c 0
 125 380 145 360 170 360 c 0
 195 360 215 380 215 405 c 0
 215 430 195 450 170 450 c 0
EndSplineSet
Validated: 1
Colour: ff00ff
EndChar

StartChar: uni0E24
Encoding: 3620 3620 28
Width: 690
VWidth: 0
Flags: W
HStem: -10 60<186.518 273.482> 150 60<221.049 272.922> 400 20<269.299 300> 535 85<237.66 431.99>
VStem: 120 100<210 371.387> 120 60<57.0781 144.043> 280 60<56.5176 143.482> 490 100<-240 475.783>
LayerCount: 2
Fore
SplineSet
230 210 m 2xfb
 291 210 340 161 340 100 c 0
 340 39 291 -10 230 -10 c 0
 169 -10 120 39 120 100 c 2xf7
 120 290 l 2
 120 350 145 380 169 395 c 1
 70 420 l 1
 78 474 164 620 340 620 c 0
 481 620 590 535 590 400 c 2
 590 -240 l 1
 490 -240 l 1
 490 400 l 2
 490 482 426 535 340 535 c 0
 270 535 200 501 176 447 c 1
 300 420 l 1
 300 400 l 1
 300 400 220 396 220 290 c 2
 220 210 l 1
 230 210 l 2xfb
230 150 m 0
 202 150 180 128 180 100 c 0
 180 72 202 50 230 50 c 0
 258 50 280 72 280 100 c 0
 280 128 258 150 230 150 c 0
EndSplineSet
Validated: 1
Colour: ff0000
EndChar

StartChar: uni0E26
Encoding: 3622 3622 29
Width: 710
VWidth: 0
Flags: W
HStem: -10 60<126.518 213.482> 150 60<126.944 166> 400 20<303.136 330> 535 85<257.66 451.99>
VStem: 60 60<56.5176 144.124> 160 100<210.426 376.06> 220 60<56.5176 143.431> 510 100<-240 475.783>
LayerCount: 2
Fore
SplineSet
610 400 m 2xfd
 610 -240 l 1
 510 -240 l 1
 510 400 l 2
 510 482 446 535 360 535 c 0
 290 535 220 501 196 448 c 1
 330 420 l 1
 330 400 l 1
 330 400 260 393 260 300 c 2
 260 260 l 2xfd
 260 199 280 175 280 100 c 0xfb
 280 39 231 -10 170 -10 c 0
 109 -10 60 39 60 100 c 0
 60 159 107 208 166 210 c 1
 163 219 160 234 160 260 c 2
 160 300 l 2
 160 352 181 379 201 394 c 1
 90 420 l 1
 98 474 184 620 360 620 c 0
 501 620 610 535 610 400 c 2xfd
170 150 m 0
 142 150 120 128 120 100 c 0
 120 72 142 50 170 50 c 0
 198 50 220 72 220 100 c 0xfb
 220 128 198 150 170 150 c 0
EndSplineSet
Validated: 1
Colour: ff0000
EndChar

StartChar: uni0E27
Encoding: 3623 3623 30
Width: 570
VWidth: 0
Flags: W
HStem: -10 65<303.582 396.418> 165 65<303.582 369.216> 535 85<170.169 329.831>
VStem: 30 100<420 494.342> 230 65<63.5821 156.418> 370 100<228 494.342> 405 65<63.758 156.242>
LayerCount: 2
Fore
SplineSet
370 228 m 1xfc
 370 420 l 2
 370 476 334 535 250 535 c 0
 166 535 130 476 130 420 c 1
 30 420 l 1
 30 535 117 620 250 620 c 0
 383 620 470 535 470 420 c 2xfc
 470 110 l 2xfa
 470 44 416 -10 350 -10 c 0
 284 -10 230 44 230 110 c 0
 230 176 284 230 350 230 c 0
 357 230 363 229 370 228 c 1xfc
350 165 m 0
 320 165 295 140 295 110 c 0
 295 80 320 55 350 55 c 0
 380 55 405 80 405 110 c 0xfa
 405 140 380 165 350 165 c 0
EndSplineSet
Validated: 1
Colour: ff00ff
EndChar

StartChar: uni0E28
Encoding: 3624 3624 31
Width: 710
VWidth: 0
Flags: W
HStem: 0 21G<500 600> 230 45<301.979 377.842> 365 45<301.4 377.842> 535 85<243.405 437.88> 580 90<588.449 680>
VStem: 80 100<271.864 476.307> 90 120<15.3619 137.15> 110 100<0.0914307 246.428> 385 45<282.158 357.842> 500 100<0 476.056>
LayerCount: 2
Fore
SplineSet
340 365 m 0xe0c0
 315 365 295 345 295 320 c 0
 295 295 315 275 340 275 c 0
 365 275 385 295 385 320 c 0
 385 345 365 365 340 365 c 0xe0c0
340 410 m 0
 390 410 430 370 430 320 c 0
 430 270 390 230 340 230 c 0
 301 230 268 255 255 289 c 1
 231 243 210 179 210 120 c 2xf2c0
 210 -10 l 1xf1c0
 210 -10 91 -6 90 30 c 1xf2c0
 90 30 110 79 110 140 c 0xf1c0
 110 242 80 265 80 400 c 0
 80 537 194 620 340 620 c 0xf4c0
 403 620 469 604 511 576 c 1
 543 624 607 670 680 670 c 1
 680 580 l 1xecc0
 627 580 584 559 560 529 c 1
 586 494 600 451 600 400 c 2
 600 0 l 1
 500 0 l 1
 500 400 l 2
 500 482 431 535 340 535 c 0
 249 535 180 482 180 400 c 0xf4c0
 180 343 186 305 192 271 c 1
 212 346 268 410 340 410 c 0
EndSplineSet
Validated: 1
Colour: ff00ff
EndChar

StartChar: uni0E29
Encoding: 3625 3625 32
Width: 780
VWidth: -360
Flags: W
HStem: -20 90<306.875 493.125> 190 60<432.698 530> 390 60<117.078 168.951> 400 35<372.537 437.463> 550 60<116.518 203.482> 580 20G<530 630>
VStem: 50 60<456.518 543.482> 170 100<107 390> 210 60<455.957 542.922> 330 35<327.304 392.463> 445 35<327.253 392.463> 530 100<107 190 273 600> 685 75<300.529 380>
LayerCount: 2
Fore
SplineSet
160 550 m 0xeaf8
 132 550 110 528 110 500 c 0
 110 472 132 450 160 450 c 0
 188 450 210 472 210 500 c 0
 210 528 188 550 160 550 c 0xeaf8
405 435 m 0xdb78
 446 435 480 401 480 360 c 0
 480 324 455 294 421 287 c 1
 442 261 479 251 530 250 c 1
 530 600 l 1
 630 600 l 1
 630 273 l 1
 661 293 682 327 685 380 c 1
 760 380 l 1
 759 305 707 238 630 208 c 1
 630 170 l 2
 630 34 532 -20 400 -20 c 0
 268 -20 170 34 170 170 c 2
 170 390 l 1xe778
 160 390 l 2
 99 390 50 439 50 500 c 0
 50 561 99 610 160 610 c 0
 221 610 270 561 270 500 c 2xeaf8
 270 170 l 2
 270 105 321 70 400 70 c 0
 479 70 530 105 530 170 c 2
 530 190 l 1
 462 192 330 236 330 360 c 0
 330 401 364 435 405 435 c 0xdb78
405 400 m 0xd278
 383 400 365 382 365 360 c 0
 365 338 383 320 405 320 c 0
 427 320 445 338 445 360 c 0
 445 382 427 400 405 400 c 0xd278
EndSplineSet
Validated: 1
Colour: ff00ff
EndChar

StartChar: uni0E2B
Encoding: 3627 3627 33
Width: 710
VWidth: -360
Flags: W
HStem: 0 21G<170 280 500 600> 390 60<117.078 168.951> 550 60<116.518 203.482 486.518 573.482>
VStem: 50 60<456.518 543.482> 170 110<0 162.232> 170 100<241 390> 210 60<455.957 542.922> 420 60<456.248 543.482> 500 100<0 362> 580 60<456.263 543.482>
LayerCount: 2
Fore
SplineSet
160 550 m 0xf3
 132 550 110 528 110 500 c 0
 110 472 132 450 160 450 c 0
 188 450 210 472 210 500 c 0
 210 528 188 550 160 550 c 0xf3
530 610 m 0
 591 610 640 561 640 500 c 0
 640 457 616 420 580 402 c 1xf540
 600 390 l 1
 600 0 l 1
 500 0 l 1
 500 362 l 1
 413 336 280 160 280 87 c 2
 280 0 l 1
 170 0 l 1xf980
 170 390 l 1xf5
 160 390 l 2
 99 390 50 439 50 500 c 0
 50 561 99 610 160 610 c 0
 221 610 270 561 270 500 c 2xf3
 270 241 l 1xf5
 296 286 378 380 462 413 c 1
 437 433 420 465 420 500 c 0
 420 561 469 610 530 610 c 0
530 550 m 0
 502 550 480 528 480 500 c 0
 480 472 502 450 530 450 c 0
 558 450 580 472 580 500 c 0
 580 528 558 550 530 550 c 0
EndSplineSet
Validated: 1
Colour: ff00ff
EndChar

StartChar: uni0E1E
Encoding: 3614 3614 34
Width: 780
VWidth: -360
Flags: W
HStem: 390 60<127.078 178.951> 550 60<126.518 213.482> 580 20G<580 680>
VStem: 60 60<456.518 543.482> 180 100<80 390> 220 60<455.957 542.922> 580 100<80 600>
LayerCount: 2
Fore
SplineSet
170 550 m 0xd6
 142 550 120 528 120 500 c 0
 120 472 142 450 170 450 c 0
 198 450 220 472 220 500 c 0
 220 528 198 550 170 550 c 0xd6
170 610 m 0
 231 610 280 561 280 500 c 2xd6
 280 80 l 1xda
 399 490 l 1
 461 490 l 1
 580 80 l 1
 580 600 l 1
 680 600 l 1
 680 60 l 2
 680 37 667 17 640 5 c 0
 613 -7 571 -10 540 -10 c 1
 430 380 l 1
 320 -10 l 1
 289 -10 247 -7 220 5 c 0xb6
 193 17 180 37 180 60 c 2
 180 390 l 1xba
 170 390 l 2
 109 390 60 439 60 500 c 0
 60 561 109 610 170 610 c 0
EndSplineSet
Validated: 1
Colour: ff00ff
EndChar

StartChar: uni0E1F
Encoding: 3615 3615 35
Width: 790
VWidth: -360
Flags: W
HStem: 390 60<127.078 178.951> 550 60<126.518 213.482> 820 20G<580 680>
VStem: 60 60<456.518 543.482> 180 100<80 390> 220 60<455.957 542.922> 580 100<80 840>
LayerCount: 2
Fore
SplineSet
170 550 m 0xf6
 142 550 120 528 120 500 c 0
 120 472 142 450 170 450 c 0
 198 450 220 472 220 500 c 0
 220 528 198 550 170 550 c 0xf6
170 610 m 0
 231 610 280 561 280 500 c 2xf6
 280 80 l 1xfa
 399 490 l 1
 461 490 l 1
 580 80 l 1
 580 840 l 1
 680 840 l 1
 680 60 l 2
 680 37 667 17 640 5 c 0
 613 -7 571 -10 540 -10 c 1
 430 380 l 1
 320 -10 l 1
 289 -10 247 -7 220 5 c 0xf6
 193 17 180 37 180 60 c 2
 180 390 l 1xfa
 170 390 l 2
 109 390 60 439 60 500 c 0
 60 561 109 610 170 610 c 0
EndSplineSet
Validated: 1
Colour: ff00ff
EndChar

StartChar: uni0E1D
Encoding: 3613 3613 36
Width: 780
VWidth: 0
Flags: W
HStem: 400 50<196.857 283.357> 550 60<197.625 283.1> 820 20G<570 670>
VStem: 90 100<69.2188 413 455.957 542.376> 290 50<456.643 542.347> 570 100<69.2188 840>
LayerCount: 2
Fore
SplineSet
230 610 m 0
 301 610 340 557 340 500 c 0
 340 445 295 400 240 400 c 0
 222 400 205 405 190 413 c 1
 190 110 l 2
 190 87 194 74 204 68 c 1
 335 310 l 1
 425 310 l 1
 556 68 l 1
 566 74 570 87 570 110 c 2
 570 840 l 1
 670 840 l 1
 670 110 l 2
 670 70 667 40 644 20 c 0
 622 0 579 -10 500 -10 c 1
 380 217 l 1
 260 -10 l 1
 181 -10 138 0 116 20 c 0
 93 40 90 70 90 110 c 2
 90 440 l 2
 90 543 144 610 230 610 c 0
240 550 m 0
 212 550 190 528 190 500 c 0
 190 472 212 450 240 450 c 0
 268 450 290 472 290 500 c 0
 290 528 268 550 240 550 c 0
EndSplineSet
Validated: 1
Colour: ff00ff
EndChar

StartChar: uni0E1C
Encoding: 3612 3612 37
Width: 770
VWidth: 0
Flags: W
HStem: 400 50<196.857 283.357> 550 60<197.625 283.1> 580 20G<570 670>
VStem: 90 100<69.2188 413 455.957 542.376> 290 50<456.643 542.347> 570 100<69.2188 600>
LayerCount: 2
Fore
SplineSet
230 610 m 0xdc
 301 610 340 557 340 500 c 0
 340 445 295 400 240 400 c 0
 222 400 205 405 190 413 c 1
 190 110 l 2
 190 87 194 74 204 68 c 1
 335 310 l 1
 425 310 l 1
 556 68 l 1
 566 74 570 87 570 110 c 2
 570 600 l 1
 670 600 l 1xbc
 670 110 l 2
 670 70 667 40 644 20 c 0
 622 0 579 -10 500 -10 c 1
 380 217 l 1
 260 -10 l 1
 181 -10 138 0 116 20 c 0
 93 40 90 70 90 110 c 2
 90 440 l 2
 90 543 144 610 230 610 c 0xdc
240 550 m 0xdc
 212 550 190 528 190 500 c 0
 190 472 212 450 240 450 c 0
 268 450 290 472 290 500 c 0
 290 528 268 550 240 550 c 0xdc
EndSplineSet
Validated: 1
Colour: ff00ff
EndChar

StartChar: uni0E25
Encoding: 3621 3621 38
Width: 670
VWidth: 0
Flags: W
HStem: -20 55<177.503 263.629> 135 55<176.038 263.629> 310 70<217.706 398.629> 535 85<231.991 428.009>
VStem: 70 90<171 256.729> 80 100<420 485.904> 270 55<41.3707 128.629> 470 110<15.3619 246.989> 480 100<281 485.904>
LayerCount: 2
Fore
SplineSet
220 190 m 0xfb
 278 190 325 143 325 85 c 0
 325 27 278 -20 220 -20 c 0
 147 -20 70 48 70 180 c 0xfb
 70 300 165 380 290 380 c 0
 376 380 447 338 480 281 c 1
 480 420 l 2
 480 481 428 535 330 535 c 0
 232 535 180 481 180 420 c 1
 80 420 l 1
 80 535 179 620 330 620 c 0
 481 620 580 535 580 420 c 2xf680
 580 30 l 2
 580 -6 470 -10 470 -10 c 1
 470 170 l 2
 470 238 411 310 310 310 c 0
 227 310 160 261 160 180 c 2
 160 171 l 1
 177 183 198 190 220 190 c 0xfb
220 135 m 0
 192 135 170 113 170 85 c 0
 170 57 192 35 220 35 c 0
 248 35 270 57 270 85 c 0
 270 113 248 135 220 135 c 0
EndSplineSet
Validated: 1
Colour: ff00ff
EndChar

StartChar: uni0E2A
Encoding: 3626 3626 39
Width: 690
VWidth: 0
Flags: W
HStem: -20 55<177.503 263.629> 135 55<176.038 263.629> 310 70<217.706 398.629> 535 85<231.991 428.942> 580 90<568.149 660>
VStem: 70 90<171 256.729> 80 100<420 485.904> 270 55<41.3707 128.629> 470 110<15.3619 246.989> 480 100<281 487.727>
LayerCount: 2
Fore
SplineSet
220 135 m 0xe1
 192 135 170 113 170 85 c 0
 170 57 192 35 220 35 c 0
 248 35 270 57 270 85 c 0
 270 113 248 135 220 135 c 0xe1
220 190 m 0
 278 190 325 143 325 85 c 0
 325 27 278 -20 220 -20 c 0
 147 -20 70 48 70 180 c 0xed80
 70 300 165 380 290 380 c 0
 376 380 447 338 480 281 c 1
 480 420 l 2
 480 481 428 535 330 535 c 0
 232 535 180 481 180 420 c 1
 80 420 l 1
 80 535 179 620 330 620 c 0xf340
 393 620 455 605 494 580 c 1
 527 627 589 670 660 670 c 1
 660 580 l 1
 609 580 568 561 544 533 c 1
 568 502 580 463 580 420 c 2xeb40
 580 30 l 2
 580 -6 470 -10 470 -10 c 1
 470 170 l 2
 470 238 411 310 310 310 c 0
 227 310 160 261 160 180 c 2
 160 171 l 1xed80
 177 183 198 190 220 190 c 0
EndSplineSet
Validated: 1
Colour: ff00ff
EndChar

StartChar: uni0E2C
Encoding: 3628 3628 40
Width: 770
VWidth: -360
Flags: W
HStem: 390 60<117.078 168.951> 450 50<526.745 570> 550 60<116.518 203.482> 600 50<526.643 613.16>
VStem: 50 60<456.518 543.482> 170 100<80 390> 210 60<455.957 542.922> 470 50<506.643 593.357> 570 100<80 450> 680 70<569.464 670>
LayerCount: 2
Fore
SplineSet
160 610 m 0x6dc0
 221 610 270 561 270 500 c 2x6bc0
 270 80 l 1
 389 490 l 1
 451 490 l 1
 570 80 l 1
 570 450 l 1
 515 450 470 495 470 550 c 0x6dc0
 470 605 515 650 570 650 c 0
 619 650 660 614 669 567 c 1
 676 594 680 628 680 670 c 1
 750 670 l 1
 750 586 720 516 670 480 c 1
 670 60 l 2
 670 37 657 17 630 5 c 0
 603 -7 561 -10 530 -10 c 1
 420 380 l 1
 310 -10 l 1
 279 -10 237 -7 210 5 c 0x1bc0
 183 17 170 37 170 60 c 2
 170 390 l 1
 160 390 l 2x9dc0
 99 390 50 439 50 500 c 0
 50 561 99 610 160 610 c 0x6dc0
160 550 m 0
 132 550 110 528 110 500 c 0x6bc0
 110 472 132 450 160 450 c 0x8bc0
 188 450 210 472 210 500 c 0
 210 528 188 550 160 550 c 0
570 600 m 0x19c0
 542 600 520 578 520 550 c 0
 520 522 542 500 570 500 c 0
 598 500 620 522 620 550 c 0x69c0
 620 578 598 600 570 600 c 0x19c0
EndSplineSet
Validated: 1
Colour: ff00ff
EndChar

StartChar: uni0E22
Encoding: 3618 3618 41
Width: 690
VWidth: -360
Flags: W
HStem: -20 85<228.539 467.347> 255 70<211.564 330> 400 50<206.951 293.357> 550 60<206.192 293.239> 580 20G<500 600>
VStem: 80 100<109.268 225.931> 80 80<371.71 454.505> 300 50<456.643 542.795> 500 100<94.7853 600>
LayerCount: 2
Fore
SplineSet
250 550 m 0xf180
 222 550 200 528 200 500 c 0
 200 472 222 450 250 450 c 0
 278 450 300 472 300 500 c 0
 300 528 278 550 250 550 c 0xf180
500 600 m 1xed80
 600 600 l 1
 600 80 l 2
 600 57 479 -20 340 -20 c 0
 199 -20 80 44 80 170 c 0xed80
 80 232 109 271 155 295 c 1
 105 326 80 376 80 440 c 0
 80 543 144 610 230 610 c 0
 314 610 350 548 350 500 c 0
 350 445 305 400 250 400 c 0
 211 400 177 422 161 455 c 1
 160 450 160 445 160 440 c 0xf380
 160 357 237 325 330 325 c 1
 330 255 l 1
 220 255 180 221 180 170 c 0
 180 95 264 65 340 65 c 0
 418 65 484 95 500 110 c 1
 500 600 l 1xed80
EndSplineSet
Validated: 1
Colour: ff00ff
EndChar

StartChar: uni0E10
Encoding: 3600 3600 42
Width: 610
VWidth: 0
Flags: W
HStem: -340 45<102.158 181.715> -205 45<102.158 190.099 405.364 439.668> -105 35<407.895 462.105> 130 55<160.292 240.072> 275 55<160.292 239.455> 400 45<180 323.043> 540 70<492.371 540> 550 70<227.131 418.692>
VStem: 50 45<-287.842 -212.158> 100 55<190.292 269.708> 205 50<-183.625 -160> 370 35<-162.105 -107.895> 380 100<109 373.959> 440 60<-283.487 -200> 465 35<-162.417 -108.207>
LayerCount: 2
Fore
SplineSet
198 -235 m 1xfce0
 182 -217 163 -205 140 -205 c 0
 115 -205 95 -225 95 -250 c 0
 95 -275 115 -295 140 -295 c 0
 164 -295 186 -281 198 -235 c 1xfce0
326 -223 m 1
 305 -330 l 1
 255 -330 l 1
 246 -315 238 -299 229 -282 c 1
 211 -317 182 -340 140 -340 c 0
 90 -340 50 -300 50 -250 c 0
 50 -200 90 -160 140 -160 c 0
 165 -160 186 -169 204 -184 c 1
 205 -176 205 -168 205 -160 c 1
 255 -160 l 1
 255 -184 253 -209 247 -231 c 1
 256 -244 265 -258 273 -271 c 1
 290 -180 l 1
 334 -180 l 1
 350 -180 l 1
 440 -285 l 1
 440 -200 l 1xfce4
 435 -200 l 2
 399 -200 370 -171 370 -135 c 0
 370 -99 399 -70 435 -70 c 0
 471 -70 500 -99 500 -135 c 2xfcf2
 500 -280 l 2xfce4
 500 -318 456 -330 415 -330 c 1
 326 -223 l 1
435 -105 m 0
 418 -105 405 -118 405 -135 c 0
 405 -152 418 -165 435 -165 c 0
 452 -165 465 -152 465 -135 c 0xfcf2
 465 -118 452 -105 435 -105 c 0
EndSplineSet
Refer: 73 60944 N 1 0 0 1 0 0 2
Validated: 1
Substitution2: "TH Descless" uni0E10.descless
Substitution2: "'locl' Localized Thai-Sanskrit" uni0E10.descless
Substitution2: "'salt' Thai-Sanskrit Stylistic Alt" uni0E10.descless
Substitution2: "'ss01' Thai-Sanskrit Style Set" uni0E10.descless
Colour: ff0000
EndChar

StartChar: uni0E23
Encoding: 3619 3619 43
Width: 600
VWidth: -360
Flags: W
HStem: -10 65<283.582 376.418> 165 65<283.582 349.216> 400 45<150 293.043> 540 70<462.371 510> 550 70<197.131 388.692>
VStem: 210 65<63.5821 156.418> 350 100<228 373.959> 385 65<63.758 156.242>
LayerCount: 2
Fore
SplineSet
50 400 m 1xee
 50 535 160 620 280 620 c 0xee
 364 620 405 590 440 560 c 1
 448 574 479 610 510 610 c 1
 510 540 l 1xf6
 479 540 452 505 440 485 c 1
 402 523 354 550 280 550 c 0
 202 550 153 497 150 445 c 1
 340 445 450 436 450 320 c 2xee
 450 110 l 2xed
 450 44 396 -10 330 -10 c 0
 264 -10 210 44 210 110 c 0
 210 176 264 230 330 230 c 0
 337 230 343 229 350 228 c 1
 350 320 l 2
 350 396 287 400 50 400 c 1xee
330 165 m 0
 300 165 275 140 275 110 c 0
 275 80 300 55 330 55 c 0
 360 55 385 80 385 110 c 0xe5
 385 140 360 165 330 165 c 0
EndSplineSet
Validated: 1
Colour: ff00ff
EndChar

StartChar: uni0E18
Encoding: 3608 3608 44
Width: 620
VWidth: -360
Flags: W
HStem: -20 90<224.063 395.937> 400 45<180 322.516> 540 70<492.371 540> 550 70<227.131 418.692>
VStem: 100 100<97.4658 310> 420 100<97.4658 366.912>
LayerCount: 2
Fore
SplineSet
80 400 m 1xdc
 80 535 190 620 310 620 c 0xdc
 394 620 435 590 470 560 c 1
 478 574 509 610 540 610 c 1
 540 540 l 1xec
 509 540 482 505 470 485 c 1
 432 523 384 550 310 550 c 0
 232 550 183 497 180 445 c 1
 373 445 520 436 520 320 c 2
 520 150 l 2
 520 26 412 -20 310 -20 c 0
 208 -20 100 26 100 150 c 2
 100 310 l 1
 200 310 l 1
 200 150 l 2
 200 95 248 70 310 70 c 0
 372 70 420 95 420 150 c 2
 420 320 l 2
 420 396 317 400 80 400 c 1xdc
EndSplineSet
Validated: 1
Colour: ff00ff
EndChar

StartChar: uni0E0E
Encoding: 3598 3598 45
Width: 700
VWidth: 0
Flags: W
HStem: -220 60<182.208 304.612> -80 60<182.208 321.157> -10 60<136.518 223.482> 150 60<136.944 176> 400 20<313.136 340> 535 85<264.059 446.7>
VStem: 70 60<56.5176 144.124> 120 60<-155.334 -84.6657> 170 100<210.426 376.06> 230 60<56.5176 143.431> 345 70<-48.125 -10> 500 100<-155 481.05>
LayerCount: 2
Fore
SplineSet
230 -160 m 0xfd70
 271 -160 305 -145 326 -108 c 1
 292 -91 259 -80 230 -80 c 0
 202 -80 180 -92 180 -120 c 0
 180 -148 202 -160 230 -160 c 0xfd70
180 150 m 0
 152 150 130 128 130 100 c 0xfe30
 130 72 152 50 180 50 c 0
 208 50 230 72 230 100 c 0
 230 128 208 150 180 150 c 0
500 80 m 1
 500 400 l 2
 500 482 446 535 360 535 c 0
 290 535 230 501 206 448 c 1
 340 420 l 1
 340 400 l 1
 340 400 270 393 270 300 c 2
 270 260 l 2xfcb0
 270 199 290 175 290 100 c 0
 290 39 241 -10 180 -10 c 0xfd70
 119 -10 70 39 70 100 c 0
 70 159 117 208 176 210 c 1
 173 219 170 234 170 260 c 2
 170 300 l 2xfeb0
 170 352 191 379 211 394 c 1
 100 420 l 1
 108 474 184 620 360 620 c 0
 501 620 600 535 600 400 c 2
 600 80 l 1
 600 0 l 1
 600 -160 l 2
 600 -198 511 -210 470 -210 c 1
 450 -190 418 -164 381 -140 c 1
 349 -190 297 -220 230 -220 c 0
 169 -220 120 -181 120 -120 c 0
 120 -59 169 -20 230 -20 c 0xfd70
 265 -20 304 -32 343 -49 c 1
 344 -37 345 -24 345 -10 c 1
 415 -10 l 1
 415 -36 412 -61 405 -84 c 1
 443 -107 476 -133 500 -155 c 1
 500 0 l 1
 500 80 l 1
EndSplineSet
Validated: 1
Colour: ff0000
EndChar

StartChar: uni0E0F
Encoding: 3599 3599 46
Width: 700
VWidth: 0
Flags: W
HStem: -220 45<122.158 207.196> -85 45<122.158 214.916> -10 60<136.518 223.482> 150 60<136.944 176> 400 20<313.136 340> 535 85<264.059 446.7>
VStem: 70 60<56.5176 144.124> 70 45<-167.842 -92.1579> 170 100<210.426 376.06> 230 60<-63.3643 -40 56.5176 143.431> 500 100<-160 481.05>
LayerCount: 2
Fore
SplineSet
226 -116 m 1xfd20
 205 -98 183 -85 160 -85 c 0
 135 -85 115 -105 115 -130 c 0
 115 -155 135 -175 160 -175 c 0
 185 -175 212 -162 226 -116 c 1xfd20
180 150 m 0
 152 150 130 128 130 100 c 0
 130 72 152 50 180 50 c 0
 208 50 230 72 230 100 c 0xfe60
 230 128 208 150 180 150 c 0
500 80 m 1
 500 400 l 2
 500 482 446 535 360 535 c 0
 290 535 230 501 206 448 c 1
 340 420 l 1
 340 400 l 1
 340 400 270 393 270 300 c 2
 270 260 l 2xfca0
 270 199 290 175 290 100 c 0
 290 39 241 -10 180 -10 c 0
 119 -10 70 39 70 100 c 0xfe60
 70 159 117 208 176 210 c 1
 173 219 170 234 170 260 c 2
 170 300 l 2
 170 352 191 379 211 394 c 1
 100 420 l 1
 108 474 184 620 360 620 c 0
 501 620 600 535 600 400 c 2
 600 80 l 1
 600 0 l 1
 600 -160 l 2
 600 -198 511 -210 470 -210 c 1
 397 -98 l 1
 345 -210 l 1
 295 -210 l 1
 289 -194 277 -174 262 -154 c 1
 239 -194 203 -220 160 -220 c 0
 110 -220 70 -180 70 -130 c 0xfda0
 70 -80 110 -40 160 -40 c 0
 187 -40 212 -49 234 -64 c 1
 235 -56 235 -48 235 -40 c 1
 290 -40 l 1
 290 -63 287 -85 282 -106 c 1
 294 -120 305 -136 315 -153 c 1
 365 -50 l 1
 419 -50 l 1
 425 -50 l 1
 500 -160 l 1
 500 0 l 1
 500 80 l 1
EndSplineSet
Validated: 1
Colour: ff0000
EndChar

StartChar: uni0E31
Encoding: 3633 3633 47
Width: 0
VWidth: 0
Flags: W
HStem: 700 65<-269.593 -135.597> 895 45<-340.306 -269.694>
VStem: -390 45<819.367 890.306> -265 45<819.576 890.306> -75 85<829.239 920>
LayerCount: 2
Fore
SplineSet
-305 940 m 0
 -258 940 -220 902 -220 855 c 0
 -220 820 -241 790 -271 777 c 1
 -253 769 -241 765 -215 765 c 0
 -128 765 -75 839 -75 920 c 1
 10 920 l 1
 10 804 -58 700 -215 700 c 0
 -317 700 -390 754 -390 855 c 0
 -390 902 -352 940 -305 940 c 0
-305 895 m 0
 -327 895 -345 877 -345 855 c 0
 -345 833 -327 815 -305 815 c 0
 -283 815 -265 833 -265 855 c 0
 -265 877 -283 895 -305 895 c 0
EndSplineSet
Validated: 1
Substitution2: "TH Vowel to Left" uni0E31.left
Colour: ff00ff
EndChar

StartChar: uni0E34
Encoding: 3636 3636 48
Width: 0
VWidth: 0
Flags: W
HStem: 790 26<-471 -380.011> 880 70<-447.045 -272.841>
LayerCount: 2
Fore
SplineSet
-471 816 m 1
 -387 814 -288 798 -176 748 c 1
 -217 818 -273 880 -370 880 c 0
 -422 880 -460 856 -471 816 c 1
-560 790 m 1
 -560 849 -502 950 -370 950 c 0
 -189 950 -110 773 -110 690 c 1
 -296 780 -439 790 -560 790 c 1
EndSplineSet
Validated: 1
Substitution2: "TH Vowel to Left" uni0E34.left
Colour: ff00ff
EndChar

StartChar: uni0E35
Encoding: 3637 3637 49
Width: 0
VWidth: 0
Flags: W
HStem: 770 26<-472 -382.065> 860 70<-448.011 -277.829>
VStem: -190 80<783.766 930>
LayerCount: 2
Fore
SplineSet
-169 724 m 1
 -209 796 -267 860 -370 860 c 0
 -430 860 -462 834 -472 796 c 1
 -386 794 -283 777 -169 724 c 1
-190 960 m 1
 -110 930 l 1
 -110 670 l 1
 -296 760 -439 770 -560 770 c 1
 -560 832 -502 930 -370 930 c 0
 -263 930 -195 838 -159 768 c 1
 -174 816 -190 865 -190 900 c 2
 -190 960 l 1
EndSplineSet
Validated: 1
Substitution2: "TH Vowel to Left" uni0E35.left
Colour: ff00ff
EndChar

StartChar: uni0E36
Encoding: 3638 3638 50
Width: 0
VWidth: 0
Flags: W
HStem: 770 26<-471 -380.011> 860 70<-447.045 -272.955> 915 45<-228.494 -152.158>
VStem: -145 45<831.528 907.842>
LayerCount: 2
Fore
SplineSet
-471 796 m 1xd0
 -387 794 -288 778 -176 728 c 1
 -217 798 -273 860 -370 860 c 0
 -422 860 -460 836 -471 796 c 1xd0
-190 960 m 0xb0
 -140 960 -100 920 -100 870 c 0
 -100 836 -119 807 -146 791 c 1
 -122 747 -110 702 -110 670 c 1
 -296 760 -439 770 -560 770 c 1
 -560 829 -502 930 -370 930 c 0xd0
 -333 930 -300 922 -271 910 c 1
 -256 940 -225 960 -190 960 c 0xb0
-190 915 m 0xb0
 -215 915 -235 895 -235 870 c 0
 -235 845 -215 825 -190 825 c 0
 -165 825 -145 845 -145 870 c 0
 -145 895 -165 915 -190 915 c 0xb0
EndSplineSet
Validated: 1
Substitution2: "TH Vowel to Left" uni0E36.left
Colour: ff00ff
EndChar

StartChar: uni0E37
Encoding: 3639 3639 51
Width: 0
VWidth: 0
Flags: W
HStem: 760 26<-472 -382.065> 850 70<-448.011 -320.746>
VStem: -320 70<913 960> -180 70<751.128 920>
LayerCount: 2
Fore
SplineSet
-169 714 m 1
 -209 786 -267 850 -370 850 c 0
 -430 850 -462 824 -472 786 c 1
 -386 784 -283 767 -169 714 c 1
-180 950 m 1
 -110 920 l 1
 -110 660 l 1
 -296 750 -439 760 -560 760 c 1
 -560 822 -502 920 -370 920 c 0
 -352 920 -336 917 -320 913 c 1
 -320 990 l 1
 -250 960 l 1
 -250 876 l 1
 -201 837 -169 780 -150 737 c 1
 -163 787 -180 840 -180 880 c 2
 -180 950 l 1
EndSplineSet
Validated: 1
Substitution2: "TH Vowel to Left" uni0E37.left
Colour: ff00ff
EndChar

StartChar: uni0E4D
Encoding: 3661 3661 52
Width: 0
VWidth: 0
Flags: W
HStem: 690 55<-240.913 -139.087> 865 55<-240.913 -139.087>
VStem: -315 65<754.958 855.042> -130 65<754.958 855.042>
LayerCount: 2
Fore
SplineSet
-190 865 m 0
 -226 865 -250 841 -250 805 c 0
 -250 769 -226 745 -190 745 c 0
 -154 745 -130 769 -130 805 c 0
 -130 841 -154 865 -190 865 c 0
-190 920 m 0
 -123 920 -65 872 -65 805 c 0
 -65 738 -123 690 -190 690 c 0
 -257 690 -315 738 -315 805 c 0
 -315 872 -257 920 -190 920 c 0
EndSplineSet
Validated: 1
Substitution2: "TH Nikhahit High" uni0E4D.high
Substitution2: "TH Tone High to High-Left" uni0E4D.high.left
Substitution2: "TH Vowel to Left" uni0E4D.low.left
Substitution2: "TH Nikhahit High-Left" uni0E4D.high.left
Colour: ff00ff
EndChar

StartChar: uni0E32
Encoding: 3634 3634 53
Width: 560
VWidth: 0
Flags: W
HStem: 0 21G<360 460> 535 85<171.374 318.626>
VStem: 30 100<400 492.172> 360 100<0 492.172>
LayerCount: 2
Fore
SplineSet
360 400 m 2
 360 472 329 535 245 535 c 0
 161 535 130 472 130 400 c 1
 30 400 l 1
 30 537 119 620 245 620 c 0
 371 620 460 537 460 400 c 2
 460 0 l 1
 360 0 l 1
 360 400 l 2
EndSplineSet
Validated: 1
Colour: ff00ff
EndChar

StartChar: uni0E38
Encoding: 3640 3640 54
Width: 0
VWidth: 0
Flags: W
HStem: -240 50<-235.156 -200> -110 50<-236 -164>
VStem: -290 50<-186 -114> -200 90<-330 -240> -160 50<-186.844 -114.844>
LayerCount: 2
Fore
SplineSet
-200 -240 m 1xf0
 -250 -240 -290 -200 -290 -150 c 0
 -290 -100 -250 -60 -200 -60 c 0xf0
 -150 -60 -110 -100 -110 -150 c 2xe8
 -110 -330 l 1
 -200 -330 l 1
 -200 -240 l 1xf0
-200 -110 m 0
 -222 -110 -240 -128 -240 -150 c 0
 -240 -172 -222 -190 -200 -190 c 0xf0
 -178 -190 -160 -172 -160 -150 c 0xe8
 -160 -128 -178 -110 -200 -110 c 0
EndSplineSet
Validated: 1
Substitution2: "TH Vow Lower" uni0E38.low
Colour: ff00ff
EndChar

StartChar: uni0E3A
Encoding: 3642 3642 55
Width: 0
VWidth: 0
Flags: W
HStem: -210 140<-204.125 -95.8748>
VStem: -220 140<-194.125 -85.8748>
LayerCount: 2
Fore
SplineSet
-80 -140 m 0
 -80 -179 -111 -210 -150 -210 c 0
 -189 -210 -220 -179 -220 -140 c 0
 -220 -101 -189 -70 -150 -70 c 0
 -111 -70 -80 -101 -80 -140 c 0
EndSplineSet
Validated: 1
Substitution2: "TH Vow Lower" uni0E3A.low
Colour: ff00ff
EndChar

StartChar: uni0E39
Encoding: 3641 3641 56
Width: 0
VWidth: 0
Flags: W
HStem: -340 55<-287.479 -192.521> -240 50<-416 -369.612> -110 50<-416 -344>
VStem: -470 50<-186 -114> -370 80<-280.094 -239> -340 50<-186.844 -114.844> -190 80<-280.094 -70>
LayerCount: 2
Fore
SplineSet
-240 -340 m 0xfa
 -354 -340 -370 -275 -370 -250 c 2
 -370 -239 l 1xfa
 -373 -240 -377 -240 -380 -240 c 0
 -430 -240 -470 -200 -470 -150 c 0
 -470 -100 -430 -60 -380 -60 c 0
 -330 -60 -290 -100 -290 -150 c 2xf6
 -290 -250 l 2
 -290 -266 -275 -285 -240 -285 c 0
 -205 -285 -190 -266 -190 -250 c 2
 -190 -70 l 1
 -110 -70 l 1
 -110 -250 l 2
 -110 -275 -126 -340 -240 -340 c 0xfa
-380 -110 m 0
 -402 -110 -420 -128 -420 -150 c 0
 -420 -172 -402 -190 -380 -190 c 0
 -358 -190 -340 -172 -340 -150 c 0xf6
 -340 -128 -358 -110 -380 -110 c 0
EndSplineSet
Validated: 1
Substitution2: "TH Vow Lower" uni0E39.low
Colour: ff00ff
EndChar

StartChar: uni0E49
Encoding: 3657 3657 57
Width: 0
VWidth: 0
Flags: W
HStem: 1000 55<-332.614 -270.705 -230 -143.473> 1180 40<-281.088 -218.912>
VStem: -325 40<1113.96 1176.09> -215 40<1114.41 1176.09> -85 85<1112.85 1210>
LayerCount: 2
Fore
SplineSet
-250 1220 m 0
 -209 1220 -175 1186 -175 1145 c 0
 -175 1081 -230 1055 -230 1055 c 1
 -147 1055 -85 1106 -85 1210 c 1
 0 1210 l 1
 0 1080 -70 1000 -230 1000 c 2
 -310 1000 l 2
 -348 1000 -360 1055 -360 1055 c 1
 -315 1055 l 2
 -302 1055 -285 1061 -270 1073 c 1
 -301 1081 -325 1110 -325 1145 c 0
 -325 1186 -291 1220 -250 1220 c 0
-250 1180 m 0
 -269 1180 -285 1164 -285 1145 c 0
 -285 1126 -269 1110 -250 1110 c 0
 -231 1110 -215 1126 -215 1145 c 0
 -215 1164 -231 1180 -250 1180 c 0
EndSplineSet
Validated: 1
Substitution2: "TH Tone High to Low" uni0E49.low
Substitution2: "TH Tone High to Low-Left" uni0E49.low.left
Substitution2: "TH Tone High to High-Left" uni0E49.high.left
Colour: ff00ff
EndChar

StartChar: uni0E48
Encoding: 3656 3656 58
Width: 0
VWidth: 0
Flags: W
HStem: 980 250<-128.162 -110>
VStem: -190 80<1017 1230>
LayerCount: 2
Fore
SplineSet
-190 1230 m 1
 -110 1230 l 1
 -110 980 l 1
 -190 1017 l 1
 -190 1230 l 1
EndSplineSet
Validated: 1
Substitution2: "TH Tone High to Low" uni0E48.low
Substitution2: "TH Tone High to Low-Left" uni0E48.low.left
Substitution2: "TH Tone High to High-Left" uni0E48.high.left
Colour: ff00ff
EndChar

StartChar: uni0E4B
Encoding: 3659 3659 59
Width: 0
VWidth: 0
Flags: W
HStem: 1085 60<-300 -200 -120 -20>
VStem: -200 80<1012 1085 1145 1240>
LayerCount: 2
Fore
SplineSet
-200 1240 m 1
 -120 1240 l 1
 -120 1145 l 1
 -20 1145 l 1
 -20 1085 l 1
 -120 1085 l 1
 -120 970 l 1
 -200 1012 l 1
 -200 1085 l 1
 -300 1085 l 1
 -300 1145 l 1
 -200 1145 l 1
 -200 1240 l 1
EndSplineSet
Validated: 1
Substitution2: "TH Tone High to Low" uni0E4B.low
Substitution2: "TH Tone High to Low-Left" uni0E4B.low.left
Substitution2: "TH Tone High to High-Left" uni0E4B.high.left
Colour: ff00ff
EndChar

StartChar: uni0E40
Encoding: 3648 3648 60
Width: 360
VWidth: 0
Flags: W
HStem: -10 60<176.518 263.482> 150 60<211.049 262.922> 580 20G<110 210>
VStem: 110 100<210 600> 110 60<57.0781 144.043> 270 60<56.5176 143.482>
LayerCount: 2
Fore
SplineSet
220 150 m 0xec
 192 150 170 128 170 100 c 0
 170 72 192 50 220 50 c 0
 248 50 270 72 270 100 c 0
 270 128 248 150 220 150 c 0xec
110 600 m 1xf4
 210 600 l 1
 210 210 l 1xf4
 220 210 l 2
 281 210 330 161 330 100 c 0
 330 39 281 -10 220 -10 c 0
 159 -10 110 39 110 100 c 2xec
 110 600 l 1xf4
EndSplineSet
Validated: 1
Colour: ff00ff
EndChar

StartChar: uni0E2F
Encoding: 3631 3631 62
Width: 560
VWidth: 0
Flags: W
HStem: -20 90<240 332.568> 360 65<171.079 331.811> 555 45<99.6942 170.306>
VStem: 50 45<480.823 550.306> 175 45<479.576 550.306> 370 100<104.392 400> 390 80<485.749 580>
LayerCount: 2
Fore
SplineSet
135 600 m 0xfc
 182 600 220 562 220 515 c 0
 220 480 199 450 169 437 c 1
 186 428 211 425 245 425 c 0
 332 425 390 484 390 580 c 1
 450 580 l 1
 470 580 l 1xfa
 470 170 l 2
 470 53 387 -20 240 -20 c 1
 240 70 l 1
 301 70 370 92 370 170 c 2
 370 400 l 1
 338 375 296 360 245 360 c 0
 155 360 50 409 50 515 c 0
 50 562 88 600 135 600 c 0xfc
135 555 m 0
 113 555 95 537 95 515 c 0
 95 493 113 475 135 475 c 0
 157 475 175 493 175 515 c 0
 175 537 157 555 135 555 c 0
EndSplineSet
Validated: 1
Colour: ff00ff
EndChar

StartChar: uni0E30
Encoding: 3632 3632 63
Width: 540
VWidth: 0
Flags: W
HStem: 30 65<180.653 324.403> 225 45<109.694 180.306> 340 65<180.653 324.403> 535 45<109.694 180.306>
VStem: 60 45<149.367 220.306 459.367 530.306> 185 45<149.576 220.306 459.576 530.306> 385 85<159.239 250 469.239 560>
LayerCount: 2
Fore
SplineSet
145 580 m 0
 192 580 230 542 230 495 c 0
 230 460 209 430 179 417 c 1
 197 409 219 405 245 405 c 0
 332 405 385 479 385 560 c 1
 470 560 l 1
 470 444 402 340 245 340 c 0
 143 340 60 394 60 495 c 0
 60 542 98 580 145 580 c 0
145 535 m 0
 123 535 105 517 105 495 c 0
 105 473 123 455 145 455 c 0
 167 455 185 473 185 495 c 0
 185 517 167 535 145 535 c 0
145 270 m 0
 192 270 230 232 230 185 c 0
 230 150 209 120 179 107 c 1
 197 99 219 95 245 95 c 0
 332 95 385 169 385 250 c 1
 470 250 l 1
 470 134 402 30 245 30 c 0
 143 30 60 84 60 185 c 0
 60 232 98 270 145 270 c 0
145 225 m 0
 123 225 105 207 105 185 c 0
 105 163 123 145 145 145 c 0
 167 145 185 163 185 185 c 0
 185 207 167 225 145 225 c 0
EndSplineSet
Validated: 1
Colour: ff00ff
EndChar

StartChar: uni0E4A
Encoding: 3658 3658 64
Width: 0
VWidth: 0
Flags: W
HStem: 1000 35<-326.728 -272.959> 1005 45<-190 -166.814> 1095 35<-327.216 -272.808> 1180 50<-325.917 -264.46>
VStem: -390 60<1036.13 1178.04> -270 36<1038.19 1092.11> -154 54<1076.65 1173.46> -70 70<1087.29 1220>
LayerCount: 2
Fore
SplineSet
-190 1180 m 1x7f
 -214 1140 l 1
 -260 1140 l 1
 -263 1158 -272 1180 -294 1180 c 0
 -317 1180 -333 1152 -334 1120 c 1
 -324 1127 -312 1130 -300 1130 c 0
 -264 1130 -234 1101 -234 1065 c 0
 -234 1030 -264 1000 -300 1000 c 0xbf
 -355 1000 -390 1055 -390 1115 c 0
 -390 1176 -350 1230 -294 1230 c 0
 -261 1230 -242 1206 -234 1187 c 1
 -210 1230 l 1
 -190 1230 l 2
 -134 1230 -100 1181 -100 1120 c 0
 -100 1105 -102 1090 -106 1076 c 1
 -86 1087 -70 1122 -70 1220 c 1
 0 1220 l 1
 0 1111 -18 1005 -190 1005 c 1
 -190 1050 l 1
 -168 1050 -154 1081 -154 1120 c 0
 -154 1146 -169 1172 -190 1180 c 1x7f
-300 1095 m 0
 -316 1095 -330 1082 -330 1065 c 0
 -330 1049 -316 1035 -300 1035 c 0
 -283 1035 -270 1049 -270 1065 c 0
 -270 1082 -283 1095 -300 1095 c 0
EndSplineSet
Validated: 1
Substitution2: "TH Tone High to Low" uni0E4A.low
Substitution2: "TH Tone High to Low-Left" uni0E4A.low.left
Substitution2: "TH Tone High to High-Left" uni0E4A.high.left
Colour: ff00ff
EndChar

StartChar: uni0E47
Encoding: 3655 3655 65
Width: 0
VWidth: 0
Flags: W
HStem: 690 45<-287.483 -217.485> 780 20G<-363.061 -300> 830 35<-221.192 -167.274> 910 55<-423.263 -201.267>
VStem: -510 66<768.831 890.835> -260 36<772.786 827.105> -180 70<985.625 1050> -164 34<774.141 826.796>
LayerCount: 2
Fore
SplineSet
-180 1050 m 1xfe
 -110 1050 l 1xfe
 -110 978 -168 910 -240 910 c 2
 -370 910 l 2
 -418 910 -444 869 -444 830 c 0
 -444 794 -422 757 -382 751 c 1
 -350 800 l 1
 -300 800 l 1
 -300 772 -287 735 -240 735 c 0
 -230 735 -223 736 -216 739 c 1
 -241 748 -260 772 -260 800 c 0
 -260 836 -230 865 -194 865 c 0
 -159 865 -130 836 -130 800 c 0xfd
 -130 739 -172 690 -240 690 c 0
 -285 690 -319 712 -336 745 c 1
 -370 695 l 1
 -452 695 -510 758 -510 830 c 0
 -510 902 -452 965 -370 965 c 2
 -250 965 l 2
 -206 965 -180 1011 -180 1050 c 1xfe
-194 830 m 0
 -211 830 -224 817 -224 800 c 0
 -224 783 -211 770 -194 770 c 0
 -178 770 -164 783 -164 800 c 0xfd
 -164 817 -178 830 -194 830 c 0
EndSplineSet
Validated: 1
Substitution2: "TH Vowel to Left" uni0E47.left
Colour: ff00ff
EndChar

StartChar: uni0E4C
Encoding: 3660 3660 66
Width: 0
VWidth: 0
Flags: W
HStem: 970 40<-235.879 -173.402>
VStem: -280 40<1014.1 1075.18> -170 40<1013.73 1076.43> -144 84<1181.67 1230>
LayerCount: 2
Fore
SplineSet
-204 1080 m 0xe0
 -224 1080 -240 1064 -240 1045 c 0
 -240 1026 -224 1010 -204 1010 c 0
 -185 1010 -170 1026 -170 1045 c 0
 -170 1064 -185 1080 -204 1080 c 0xe0
-144 1230 m 1xd0
 -60 1230 l 1xd0
 -60 1166 -120 1139 -161 1106 c 1
 -142 1093 -130 1070 -130 1045 c 0xe0
 -130 1004 -163 970 -204 970 c 0
 -246 970 -280 1004 -280 1045 c 0
 -280 1142 -144 1163 -144 1230 c 1xd0
EndSplineSet
Validated: 1
Substitution2: "TH Tone High to Low" uni0E4C.low
Substitution2: "TH Tone High to Low-Left" uni0E4C.low.left
Substitution2: "TH Tone High to High-Left" uni0E4C.high.left
Colour: ff00ff
EndChar

StartChar: uni0E43
Encoding: 3651 3651 67
Width: 400
VWidth: 0
Flags: W
HStem: -10 60<216.518 303.482> 150 60<251.049 302.922> 670 45<72.1579 147.842> 860 60<134.014 266.424>
VStem: 20 45<722.158 798.691> 150 100<210 594.126> 150 60<57.0781 144.043> 155 45<722.158 798.592> 290 70<715.148 835.761> 310 60<56.5176 143.482>
LayerCount: 2
Fore
SplineSet
150 500 m 2xfc
 150 637 290 693 290 780 c 0
 290 826 252 860 190 860 c 0
 167 860 147 855 132 847 c 1
 171 838 200 802 200 760 c 0xf980
 200 710 160 670 110 670 c 0
 60 670 20 710 20 760 c 0
 20 845 85 920 190 920 c 0
 299 920 360 860 360 780 c 0
 360 668 250 628 250 500 c 2
 250 210 l 1xfc80
 260 210 l 2
 321 210 370 161 370 100 c 0
 370 39 321 -10 260 -10 c 0
 199 -10 150 39 150 100 c 2xfa40
 150 500 l 2xfc
110 805 m 0
 85 805 65 785 65 760 c 0
 65 735 85 715 110 715 c 0
 135 715 155 735 155 760 c 0
 155 785 135 805 110 805 c 0
260 150 m 0
 232 150 210 128 210 100 c 0
 210 72 232 50 260 50 c 0
 288 50 310 72 310 100 c 0xfa40
 310 128 288 150 260 150 c 0
EndSplineSet
Validated: 1
Colour: ff00ff
EndChar

StartChar: uni0E44
Encoding: 3652 3652 68
Width: 400
VWidth: 0
Flags: W
HStem: -10 60<216.518 303.482> 150 60<251.049 302.922> 850 70<30 117.241>
VStem: 150 100<210 608.531> 150 60<57.0781 144.043> 310 60<56.5176 143.482>
LayerCount: 2
Fore
SplineSet
190 845 m 1xf4
 340 920 l 1
 356 920 390 888 390 840 c 0
 390 730 250 668 250 500 c 2
 250 210 l 1xf4
 260 210 l 2
 321 210 370 161 370 100 c 0
 370 39 321 -10 260 -10 c 0
 199 -10 150 39 150 100 c 2xec
 150 500 l 2
 150 672 324 772 339 849 c 1
 190 775 l 1
 190 775 106 850 30 850 c 1
 30 920 l 1
 129 920 190 845 190 845 c 1xf4
260 150 m 0
 232 150 210 128 210 100 c 0xec
 210 72 232 50 260 50 c 0
 288 50 310 72 310 100 c 0
 310 128 288 150 260 150 c 0
EndSplineSet
Validated: 1
Colour: ff00ff
EndChar

StartChar: uni0E42
Encoding: 3650 3650 69
Width: 400
VWidth: 0
Flags: W
HStem: -10 60<216.518 303.482> 150 60<251.049 302.922> 860 60<104.502 252.297>
VStem: 150 100<210 689.176> 150 60<57.0781 144.043> 310 60<56.5176 143.482>
LayerCount: 2
Fore
SplineSet
0 760 m 1xf4
 0 842 66 920 175 920 c 0
 233 920 271 891 290 870 c 1
 307 889 341 910 370 920 c 1
 370 840 l 1
 334 830 306 810 290 790 c 1
 267 823 242 860 175 860 c 0
 116 860 88 824 82 799 c 1
 191 791 250 720 250 500 c 2
 250 210 l 1xf4
 260 210 l 2
 321 210 370 161 370 100 c 0
 370 39 321 -10 260 -10 c 0
 199 -10 150 39 150 100 c 2xec
 150 500 l 2
 150 713 136 760 0 760 c 1xf4
260 150 m 0
 232 150 210 128 210 100 c 0xec
 210 72 232 50 260 50 c 0
 288 50 310 72 310 100 c 0
 310 128 288 150 260 150 c 0
EndSplineSet
Validated: 1
Colour: ff00ff
EndChar

StartChar: uni0E45
Encoding: 3653 3653 70
Width: 560
VWidth: 0
Flags: W
HStem: 535 85<171.374 318.626>
VStem: 30 100<400 492.172> 360 100<-240 492.172>
LayerCount: 2
Fore
SplineSet
360 400 m 2
 360 472 329 535 245 535 c 0
 161 535 130 472 130 400 c 1
 30 400 l 1
 30 537 119 620 245 620 c 0
 371 620 460 537 460 400 c 2
 460 -240 l 1
 360 -240 l 1
 360 400 l 2
EndSplineSet
Validated: 1
Colour: ff00ff
EndChar

StartChar: uni0E46
Encoding: 3654 3654 71
Width: 600
VWidth: 0
Flags: W
HStem: -240 90<270 362.568> 290 50<134.717 206> 420 50<133.314 206> 555 65<127.871 228.124>
VStem: 40 65<445.731 532.145> 210 50<344 416> 400 100<-115.608 543.753>
LayerCount: 2
Fore
SplineSet
170 470 m 0
 220 470 260 430 260 380 c 0
 260 330 220 290 170 290 c 0
 72 290 40 385 40 460 c 0
 40 524 79 620 180 620 c 0
 240 620 276 580 294 538 c 1
 353 620 l 1
 379 620 l 1
 454 600 500 532 500 450 c 2
 500 -50 l 2
 500 -167 417 -240 270 -240 c 1
 270 -150 l 1
 331 -150 400 -128 400 -50 c 2
 400 450 l 2
 400 488 396 527 370 550 c 1
 310 470 l 1
 245 470 l 1
 245 514 224 555 180 555 c 0
 130 555 105 508 105 460 c 2
 105 443 l 1
 122 460 145 470 170 470 c 0
170 420 m 0
 148 420 130 402 130 380 c 0
 130 358 148 340 170 340 c 0
 192 340 210 358 210 380 c 0
 210 402 192 420 170 420 c 0
EndSplineSet
Validated: 1
Colour: ff00ff
EndChar

StartChar: uni0E0D.descless
Encoding: 60941 60941 72
Width: 930
VWidth: -360
Flags: W
HStem: -20 85<595.595 724.405> -10 60<196.518 283.482> 150 60<231.049 282.922> 400 20<279.299 310> 535 85<244.059 426.7> 580 20G<740 840>
VStem: 130 100<210 371.387> 130 60<57.0781 144.043> 290 60<56.5176 143.482> 480 100<81.457 481.05> 740 100<81.457 600>
LayerCount: 2
Fore
SplineSet
240 150 m 0x71e0
 212 150 190 128 190 100 c 0
 190 72 212 50 240 50 c 0
 268 50 290 72 290 100 c 0
 290 128 268 150 240 150 c 0x71e0
240 210 m 2
 301 210 350 161 350 100 c 0
 350 39 301 -10 240 -10 c 0
 179 -10 130 39 130 100 c 2x79e0
 130 290 l 2
 130 350 155 380 179 395 c 1
 80 420 l 1
 88 474 164 620 340 620 c 0x7ae0
 481 620 580 535 580 400 c 2
 580 130 l 2
 580 97 605 65 660 65 c 0
 715 65 740 97 740 130 c 2
 740 600 l 1
 840 600 l 1xb6e0
 840 130 l 2
 840 92 812 -20 660 -20 c 0
 508 -20 480 92 480 130 c 2
 480 400 l 2
 480 482 426 535 340 535 c 0
 270 535 210 501 186 447 c 1
 310 420 l 1
 310 400 l 1
 310 400 230 396 230 290 c 2
 230 210 l 1xbae0
 240 210 l 2
EndSplineSet
Validated: 1
Colour: ff00ff
EndChar

StartChar: uni0E10.descless
Encoding: 60944 60944 73
Width: 610
VWidth: 0
Flags: W
HStem: 130 55<160.292 240.072> 275 55<160.292 239.455> 400 45<180 323.043> 540 70<492.371 540> 550 70<227.131 418.692>
VStem: 100 55<190.292 269.708> 380 100<109 373.959>
LayerCount: 2
Fore
SplineSet
80 400 m 1xee
 80 535 190 620 310 620 c 0xee
 394 620 435 590 470 560 c 1
 478 574 509 610 540 610 c 1
 540 540 l 1xf6
 509 540 482 505 470 485 c 1
 432 523 384 550 310 550 c 0
 232 550 183 497 180 445 c 1
 370 445 480 436 480 320 c 2
 480 60 l 2
 480 15 404 -10 360 -10 c 1
 350 84 326 154 295 200 c 1
 283 159 245 130 200 130 c 0
 145 130 100 175 100 230 c 0
 100 285 145 330 200 330 c 0
 285 330 350 231 380 109 c 1
 380 320 l 2
 380 396 317 400 80 400 c 1xee
200 275 m 0
 175 275 155 255 155 230 c 0
 155 205 175 185 200 185 c 0
 225 185 245 205 245 230 c 0
 245 255 225 275 200 275 c 0
EndSplineSet
Validated: 1
Colour: ff00ff
EndChar

StartChar: uni0E3F
Encoding: 3647 3647 74
Width: 660
VWidth: 0
Flags: W
HStem: 0 90<190 290 360 450.712> 370 90<190 290> 715 85<190 290 360 412.521>
VStem: 90 100<90 370 460 715> 290 70<-120 0 90 369 462 710 800 920> 460 100<501.25 669.676> 500 100<140.917 316.042>
LayerCount: 2
Fore
SplineSet
290 920 m 1xfa
 360 920 l 1
 360 796 l 1
 513 776 560 676 560 580 c 0xfc
 560 516 532 458 479 421 c 1
 553 387 600 323 600 230 c 0
 600 83 513 0 360 0 c 1
 360 -120 l 1
 290 -120 l 1
 290 0 l 1
 90 0 l 1
 90 800 l 1
 290 800 l 1
 290 920 l 1xfa
290 90 m 1
 290 370 l 1
 190 370 l 1
 190 90 l 1
 290 90 l 1
360 369 m 1
 360 90 l 1
 462 90 500 154 500 230 c 0xfa
 500 320 444 361 360 369 c 1
360 710 m 1
 360 462 l 1
 430 473 460 523 460 580 c 0xfc
 460 652 435 696 360 710 c 1
290 460 m 1
 290 715 l 1
 190 715 l 1
 190 460 l 1
 290 460 l 1
EndSplineSet
Validated: 1
Colour: ff0000
EndChar

StartChar: uni0E4E
Encoding: 3662 3662 75
Width: 0
VWidth: 0
Flags: W
HStem: 700 60<-423.48 -306.279> 1085 60<-343.48 -236.144>
VStem: -500 60<776.144 883.341> -420 60<958.663 1068.86> -220 60<1015 1068.59>
LayerCount: 2
Fore
SplineSet
-290 1145 m 0
 -218 1145 -160 1087 -160 1015 c 1
 -220 1015 l 1
 -220 1054 -251 1085 -290 1085 c 0
 -328 1085 -360 1054 -360 1015 c 0
 -360 987 -346 965 -325 952 c 1
 -307 946 -291 935 -278 922 c 1
 -320 879 l 1
 -333 892 -350 900 -370 900 c 0
 -408 900 -440 869 -440 830 c 0
 -440 791 -408 760 -370 760 c 0
 -350 760 -333 768 -320 781 c 1
 -278 738 l 1
 -301 715 -334 700 -370 700 c 0
 -441 700 -500 758 -500 830 c 0
 -500 890 -459 940 -404 955 c 1
 -414 974 -420 995 -420 1015 c 0
 -420 1087 -361 1145 -290 1145 c 0
EndSplineSet
Validated: 1
Colour: ff00ff
EndChar

StartChar: uni0E4F
Encoding: 3663 3663 76
Width: 800
VWidth: 0
Flags: W
HStem: -20 70<290.756 509.244> 140 65<337.092 462.908> 395 65<337.092 462.908> 550 70<290.756 509.244>
VStem: 80 70<190.756 409.244> 240 65<237.092 362.908> 495 65<237.092 362.908> 650 70<190.756 409.244>
LayerCount: 2
Fore
SplineSet
400 395 m 0
 348 395 305 352 305 300 c 0
 305 248 348 205 400 205 c 0
 452 205 495 248 495 300 c 0
 495 352 452 395 400 395 c 0
400 460 m 0
 488 460 560 388 560 300 c 0
 560 212 488 140 400 140 c 0
 312 140 240 212 240 300 c 0
 240 388 312 460 400 460 c 0
400 550 m 0
 262 550 150 438 150 300 c 0
 150 162 262 50 400 50 c 0
 538 50 650 162 650 300 c 0
 650 438 538 550 400 550 c 0
400 620 m 0
 577 620 720 477 720 300 c 0
 720 123 577 -20 400 -20 c 0
 223 -20 80 123 80 300 c 0
 80 477 223 620 400 620 c 0
EndSplineSet
Validated: 1
Colour: ff00ff
EndChar

StartChar: uni0E50
Encoding: 3664 3664 77
Width: 800
VWidth: 0
Flags: W
HStem: -20 90<296.022 503.978> 530 90<296.022 503.978>
VStem: 80 100<190.123 409.877> 620 100<190.123 409.877>
LayerCount: 2
Fore
SplineSet
400 530 m 0
 267 530 180 427 180 300 c 0
 180 173 267 70 400 70 c 0
 533 70 620 173 620 300 c 0
 620 427 533 530 400 530 c 0
400 620 m 0
 577 620 720 477 720 300 c 0
 720 123 577 -20 400 -20 c 0
 223 -20 80 123 80 300 c 0
 80 477 223 620 400 620 c 0
EndSplineSet
Validated: 1
Colour: ff00ff
EndChar

StartChar: uni0E51
Encoding: 3665 3665 78
Width: 800
VWidth: 0
Flags: W
HStem: -60 80<400 487.699> 90 80<224.051 358.204> 355 65<343.582 436.418> 530 90<295.529 504.471>
VStem: 80 100<213.058 414.306> 270 65<254.6 346.418> 445 65<255.715 346.418> 620 100<171.097 414.306>
LayerCount: 2
Fore
SplineSet
390 420 m 0
 456 420 510 366 510 300 c 0
 510 184 430 90 300 90 c 0
 170 90 80 184 80 300 c 0
 80 487 225 620 400 620 c 0
 575 620 720 487 720 300 c 0
 720 94 577 -60 400 -60 c 1
 400 20 l 1
 510 20 620 137 620 300 c 0
 620 427 537 530 400 530 c 0
 263 530 180 427 180 300 c 0
 180 234 214 170 300 170 c 0
 324 170 344 175 360 184 c 1
 308 197 270 244 270 300 c 0
 270 366 324 420 390 420 c 0
390 355 m 0
 360 355 335 330 335 300 c 0
 335 270 360 245 390 245 c 0
 420 245 445 270 445 300 c 0
 445 330 420 355 390 355 c 0
EndSplineSet
Validated: 1
Colour: ff00ff
EndChar

StartChar: uni0E52
Encoding: 3666 3666 79
Width: 930
VWidth: 0
Flags: W
HStem: 0 90<210 750> 180 60<397.674 483.482> 340 60<396.248 483.482> 540 80<382.871 496.985> 790 20G<70 173.81>
VStem: 110 100<90 765.347> 270 80<360.289 503.721> 490 60<246.518 333.482> 750 100<90 515.219>
LayerCount: 2
Fore
SplineSet
440 340 m 0
 412 340 390 318 390 290 c 0
 390 262 412 240 440 240 c 0
 468 240 490 262 490 290 c 0
 490 318 468 340 440 340 c 0
70 810 m 1
 170 810 l 1
 170 810 210 713 210 600 c 2
 210 90 l 1
 750 90 l 1
 750 390 l 2
 750 489 742 518 690 540 c 1
 610 400 l 1
 530 400 l 1
 530 485 497 540 440 540 c 0
 383 540 350 485 350 400 c 0
 350 385 351 371 353 358 c 1
 373 383 405 400 440 400 c 0
 501 400 550 351 550 290 c 0
 550 229 501 180 440 180 c 0
 339 180 270 282 270 400 c 0
 270 518 339 620 440 620 c 0
 509 620 562 573 590 506 c 1
 655 620 l 1
 690 620 l 1
 802 593 850 535 850 390 c 2
 850 90 l 2
 850 40 805 0 750 0 c 2
 210 0 l 2
 155 0 110 40 110 90 c 2
 110 600 l 2
 110 706 70 810 70 810 c 1
EndSplineSet
Validated: 1
Colour: ff00ff
EndChar

StartChar: uni0E53
Encoding: 3667 3667 80
Width: 850
VWidth: 0
Flags: W
HStem: -20 70<265.961 374.242> 0 21G<660 760> 190 70<266.51 374.242> 530 90<245.772 356.768>
VStem: 80 100<178.951 443.622> 390 70<65.7577 174.242> 660 100<0 503.591>
LayerCount: 2
Fore
SplineSet
300 530 m 0x7e
 241 530 180 444 180 300 c 0
 180 253 184 212 192 177 c 1
 214 226 263 260 320 260 c 0
 397 260 460 197 460 120 c 0
 460 43 397 -20 320 -20 c 0xbe
 168 -20 80 115 80 300 c 0
 80 485 180 620 300 620 c 0
 386 620 445 567 473 470 c 1
 560 620 l 1
 600 620 l 1
 712 593 760 505 760 360 c 2
 760 0 l 1
 660 0 l 1
 660 360 l 2
 660 459 652 508 600 530 c 1
 490 330 l 1
 400 330 l 1
 400 474 359 530 300 530 c 0x7e
320 190 m 0
 281 190 250 159 250 120 c 0
 250 81 281 50 320 50 c 0
 359 50 390 81 390 120 c 0
 390 159 359 190 320 190 c 0
EndSplineSet
Validated: 1
Colour: ff00ff
EndChar

StartChar: uni0E54
Encoding: 3668 3668 81
Width: 890
VWidth: 0
Flags: W
HStem: 0 90<289.904 510 586.798 770> 160 65<531.711 586.242> 335 65<494.289 586.418> 510 90<289.904 664.526> 790 20G<769.5 870>
VStem: 90 100<194.508 405.492> 410 75<234.83 325.344> 595 65<233.582 326.418> 770 100<709.093 810>
LayerCount: 2
Fore
SplineSet
540 400 m 0
 606 400 660 346 660 280 c 0
 660 214 606 160 540 160 c 2
 531 160 l 1
 573 115 630 90 660 90 c 2
 770 90 l 1
 770 0 l 1
 390 0 l 2
 210 0 90 127 90 300 c 0
 90 473 210 600 390 600 c 2
 570 600 l 2
 701 600 769 712 770 810 c 1
 870 810 l 1
 870 630 750 510 570 510 c 2
 390 510 l 2
 259 510 190 407 190 300 c 0
 190 193 259 90 390 90 c 2
 510 90 l 1
 510 90 410 162 410 270 c 0
 410 344 467 400 540 400 c 0
540 335 m 0
 510 335 485 310 485 280 c 0
 485 250 510 225 540 225 c 0
 570 225 595 250 595 280 c 0
 595 310 570 335 540 335 c 0
EndSplineSet
Validated: 1
Colour: ff00ff
EndChar

StartChar: uni0E55
Encoding: 3669 3669 82
Width: 890
VWidth: 0
Flags: W
HStem: 0 90<289.904 510 586.798 770> 160 65<531.711 586.242> 335 65<494.289 586.418> 510 115<443.758 536.242> 510 90<289.904 401 580 664.526> 735 65<443.582 536.418> 790 20G<769.5 870>
VStem: 90 100<194.508 405.492> 370 65<633.746 726.418> 410 75<234.83 325.344> 545 65<633.746 726.418> 595 65<233.582 326.418> 770 100<708.242 810>
LayerCount: 2
Fore
SplineSet
490 735 m 0xf5a8
 460 735 435 710 435 680 c 0
 435 650 460 625 490 625 c 0
 520 625 545 650 545 680 c 0
 545 710 520 735 490 735 c 0xf5a8
540 335 m 0
 510 335 485 310 485 280 c 0
 485 250 510 225 540 225 c 0
 570 225 595 250 595 280 c 0xe158
 595 310 570 335 540 335 c 0
540 400 m 0
 606 400 660 346 660 280 c 0
 660 214 606 160 540 160 c 2
 531 160 l 1
 573 115 630 90 660 90 c 2
 770 90 l 1
 770 0 l 1
 390 0 l 2
 210 0 90 127 90 300 c 0
 90 473 210 600 390 600 c 2
 401 600 l 1
 382 621 370 649 370 680 c 0
 370 746 424 800 490 800 c 0xed98
 556 800 610 746 610 680 c 0
 610 649 599 621 580 600 c 1
 704 606 769 714 770 810 c 1
 870 810 l 1
 870 630 750 510 570 510 c 2
 390 510 l 2xeba8
 259 510 190 407 190 300 c 0
 190 193 259 90 390 90 c 2
 510 90 l 1
 510 90 410 162 410 270 c 0
 410 344 467 400 540 400 c 0
EndSplineSet
Validated: 1
Colour: ff00ff
EndChar

StartChar: uni0E56
Encoding: 3670 3670 83
Width: 800
VWidth: 0
Flags: W
HStem: -20 90<292.812 513.462> 160 65<226.307 286.418> 335 65<194.289 286.418> 510 90<216.733 512.216> 790 20G<50 150.5>
VStem: 50 100<673.698 810> 110 75<234.101 325.752> 295 65<233.582 326.418> 620 100<181.892 399.794>
LayerCount: 2
Fore
SplineSet
240 400 m 0xfb80
 306 400 360 346 360 280 c 0
 360 214 306 160 240 160 c 0
 235 160 231 160 226 161 c 1
 259 101 321 70 410 70 c 0
 535 70 620 164 620 300 c 0
 620 407 541 510 410 510 c 2
 300 510 l 2
 120 510 50 630 50 810 c 1
 150 810 l 1xfd80
 151 712 169 600 300 600 c 2
 410 600 l 2
 590 600 720 473 720 300 c 0
 720 104 590 -20 410 -20 c 0
 213 -20 110 124 110 260 c 0
 110 334 167 400 240 400 c 0xfb80
240 335 m 0
 210 335 185 310 185 280 c 0xfb80
 185 250 210 225 240 225 c 0
 270 225 295 250 295 280 c 0
 295 310 270 335 240 335 c 0
EndSplineSet
Validated: 1
Colour: ff00ff
EndChar

StartChar: uni0E57
Encoding: 3671 3671 84
Width: 1050
VWidth: 0
Flags: W
HStem: -20 70<265.961 374.242> 190 70<266.51 374.242> 530 90<245.772 356.768> 580 20G<870 960>
VStem: 80 100<178.951 443.622> 390 70<65.7577 174.242> 660 90<74 503.591> 870 90<121.264 600>
LayerCount: 2
Fore
SplineSet
320 190 m 0xcf
 281 190 250 159 250 120 c 0
 250 81 281 50 320 50 c 0
 359 50 390 81 390 120 c 0
 390 159 359 190 320 190 c 0xcf
300 530 m 0xef
 241 530 180 444 180 300 c 0
 180 253 184 212 192 177 c 1
 214 226 263 260 320 260 c 0
 397 260 460 197 460 120 c 0
 460 43 397 -20 320 -20 c 0
 168 -20 80 115 80 300 c 0
 80 485 180 620 300 620 c 0
 386 620 445 567 473 470 c 1
 560 620 l 1
 600 620 l 1xef
 712 593 750 505 750 360 c 2
 750 74 l 1
 831 85 870 121 870 230 c 2
 870 600 l 1
 960 600 l 1xdf
 960 230 l 2
 960 32 842 -10 660 -10 c 1
 660 70 l 1
 660 360 l 2
 660 459 652 508 600 530 c 1
 490 330 l 1
 400 330 l 1
 400 474 359 530 300 530 c 0xef
EndSplineSet
Validated: 1
Colour: ff00ff
EndChar

StartChar: uni0E58
Encoding: 3672 3672 85
Width: 910
VWidth: 0
Flags: W
HStem: -20 80<553.198 693.708> 160 65<643.582 729.534> 335 65<643.582 735.556> 510 90<279.904 654.526> 790 20G<759.5 860>
VStem: 80 100<176.963 405.492> 570 65<233.582 326.418> 730 90<98.745 167> 745 75<233.758 324.472> 760 100<709.093 810>
LayerCount: 2
Fore
SplineSet
690 400 m 0xff
 770 400 820 329 820 255 c 2
 820 200 l 2xfe80
 820 76 751 -20 625 -20 c 0
 529 -20 455 36 418 127 c 1
 360 -10 l 1
 180 -10 80 127 80 300 c 0
 80 473 200 600 380 600 c 2
 560 600 l 2
 691 600 759 712 760 810 c 1
 860 810 l 1xfe40
 860 630 740 510 560 510 c 2
 380 510 l 2
 249 510 180 407 180 300 c 0
 180 209 215 111 305 83 c 1
 390 280 l 1
 440 280 l 1
 480 280 l 1
 480 131 552 60 625 60 c 0
 690 60 730 116 730 160 c 2
 730 167 l 1
 717 162 704 160 690 160 c 0
 624 160 570 214 570 280 c 0
 570 346 624 400 690 400 c 0xff
690 335 m 0
 660 335 635 310 635 280 c 0
 635 250 660 225 690 225 c 0
 720 225 745 250 745 280 c 0
 745 310 720 335 690 335 c 0
EndSplineSet
Validated: 1
Colour: ff00ff
EndChar

StartChar: uni0E59
Encoding: 3673 3673 86
Width: 960
VWidth: 0
Flags: W
HStem: -20 70<265.961 374.242> 0 21G<571.429 680> 190 70<266.51 374.242> 530 90<245.772 355.275> 790 20G<820 910>
VStem: 80 100<178.951 443.622> 390 70<65.7577 174.242> 820 90<420.287 810>
LayerCount: 2
Fore
SplineSet
820 550 m 2xbf
 820 810 l 1
 910 810 l 1
 910 550 l 2
 910 363 842 300 660 300 c 1
 660 360 l 2
 660 459 642 508 590 530 c 1
 513 390 l 1
 680 0 l 1
 580 0 l 1x7f
 400 420 l 2
 371 488 352 530 300 530 c 0
 241 530 180 444 180 300 c 0
 180 253 184 212 192 177 c 1
 214 226 263 260 320 260 c 0
 397 260 460 197 460 120 c 0
 460 43 397 -20 320 -20 c 0
 168 -20 80 115 80 300 c 0
 80 485 180 620 300 620 c 0
 378 620 436 571 474 489 c 1
 550 620 l 1
 590 620 l 1
 697 595 737 514 744 382 c 1
 811 405 820 464 820 550 c 2xbf
320 190 m 0
 281 190 250 159 250 120 c 0
 250 81 281 50 320 50 c 0xbf
 359 50 390 81 390 120 c 0
 390 159 359 190 320 190 c 0
EndSplineSet
Validated: 1
Colour: ff00ff
EndChar

StartChar: uni0E5A
Encoding: 3674 3674 87
Width: 730
VWidth: 0
Flags: W
HStem: -20 70<250 330.686 480 529.3> 360 65<181.079 341.811> 555 45<109.694 180.306>
VStem: 60 45<480.823 550.306> 185 45<479.576 550.306> 380 80<99.8387 400> 400 60<485.749 580> 560 80<82.3678 580>
LayerCount: 2
Fore
SplineSet
145 600 m 0xfd
 192 600 230 562 230 515 c 0
 230 480 209 450 179 437 c 1
 196 428 221 425 255 425 c 0
 342 425 400 484 400 580 c 1
 460 580 l 1xfb
 460 170 l 2
 460 53 364 -20 250 -20 c 1
 250 50 l 1
 311 50 380 92 380 170 c 2
 380 400 l 1
 348 375 306 360 255 360 c 0
 165 360 60 409 60 515 c 0
 60 562 98 600 145 600 c 0xfd
145 555 m 0
 123 555 105 537 105 515 c 0
 105 493 123 475 145 475 c 0
 167 475 185 493 185 515 c 0
 185 537 167 555 145 555 c 0
640 170 m 2
 640 53 573 -20 480 -20 c 1
 480 50 l 1
 517 50 560 92 560 170 c 2
 560 580 l 1
 640 580 l 1
 640 170 l 2
EndSplineSet
Validated: 1
Colour: ff00ff
EndChar

StartChar: uni0E5B
Encoding: 3675 3675 88
Width: 1300
VWidth: 0
Flags: W
HStem: -20 65<277.452 487.689> 150 60<314.791 448.918> 250 50<303.406 356> 270 60<1018.2 1240> 380 50<283.609 356> 555 65<238.321 414.721>
VStem: 80 70<181.13 446.541> 225 55<302.601 377.102> 360 50<304 376> 490 70<251.685 468.628>
LayerCount: 2
Fore
SplineSet
320 430 m 0xefc0
 370 430 410 390 410 340 c 0
 410 290 370 250 320 250 c 0
 314 250 308 251 303 252 c 1
 318 224 343 210 380 210 c 0
 443 210 490 258 490 340 c 0
 490 441 453 555 330 555 c 0
 217 555 150 464 150 300 c 0xefc0
 150 162 242 45 380 45 c 0
 606 45 665 307 665 580 c 1
 725 580 l 1
 837 178 l 1
 915 520 l 1
 925 520 l 1
 975 520 l 1
 975 419 996 330 1080 330 c 2
 1240 330 l 1
 1240 270 l 1
 1080 270 l 2xdfc0
 999 270 959 309 941 370 c 1
 870 60 l 1
 810 60 l 1
 716 398 l 1
 691 179 608 -20 380 -20 c 0
 203 -20 80 123 80 300 c 0
 80 492 178 620 330 620 c 0
 486 620 560 482 560 340 c 0
 560 233 492 150 380 150 c 0
 284 150 225 227 225 320 c 0
 225 385 270 430 320 430 c 0xefc0
320 380 m 0
 298 380 280 362 280 340 c 0
 280 318 298 300 320 300 c 0
 342 300 360 318 360 340 c 0
 360 362 342 380 320 380 c 0
EndSplineSet
Validated: 1
Colour: ff00ff
EndChar

StartChar: o
Encoding: 111 111 91
Width: 680
VWidth: 0
Flags: W
HStem: -20 90<242.06 437.94> 535 85<245.106 434.894>
VStem: 80 100<131.241 465.395> 500 100<131.241 465.395>
LayerCount: 2
Fore
SplineSet
340 535 m 0
 255 535 180 489 180 360 c 2
 180 220 l 2
 180 111 255 70 340 70 c 0
 425 70 500 111 500 220 c 2
 500 360 l 2
 500 489 425 535 340 535 c 0
340 620 m 0
 484 620 600 528 600 360 c 2
 600 220 l 2
 600 57 484 -20 340 -20 c 0
 196 -20 80 57 80 220 c 2
 80 360 l 2
 80 528 196 620 340 620 c 0
EndSplineSet
Validated: 1
Colour: ff00ff
EndChar

StartChar: c
Encoding: 99 99 92
Width: 660
VWidth: 0
Flags: W
HStem: -20 90<238.867 450.406> 535 85<244.493 443.978>
VStem: 90 100<115.662 481.582> 490 100<108.975 190 410 487.02>
LayerCount: 2
Fore
SplineSet
190 390 m 2
 190 190 l 2
 190 106 255 70 345 70 c 0
 435 70 490 96 490 190 c 1
 590 190 l 1
 590 52 489 -20 345 -20 c 0
 201 -20 90 42 90 190 c 2
 90 390 l 2
 90 538 201 620 345 620 c 0
 489 620 590 538 590 410 c 1
 490 410 l 1
 490 494 435 535 345 535 c 0
 255 535 190 494 190 390 c 2
EndSplineSet
Validated: 1
Colour: ff00ff
EndChar

StartChar: l
Encoding: 108 108 93
Width: 360
VWidth: 0
Flags: W
HStem: -10 80<232.13 325.509> 820 20G<130 230>
VStem: 130 100<72.7449 840>
LayerCount: 2
Fore
SplineSet
340 15 m 1
 327 8 293 -10 240 -10 c 0
 170 -10 130 26 130 90 c 2
 130 840 l 1
 230 840 l 1
 230 105 l 2
 230 79 246 70 270 70 c 0
 293 70 311 80 320 85 c 1
 340 15 l 1
EndSplineSet
Validated: 1
Colour: ff00ff
EndChar

StartChar: a
Encoding: 97 97 95
Width: 660
VWidth: 0
Flags: W
HStem: -20 80<216.44 389.941> 0 21G<470 570> 270 80<206.498 398.82> 535 85<239.605 420.395>
VStem: 80 100<93.8279 243.97> 90 100<410 485.759> 470 100<0 63 116.103 223.952 278 486.598>
LayerCount: 2
Fore
SplineSet
330 620 m 0xb6
 482 620 570 525 570 410 c 2
 570 0 l 1
 470 0 l 1x76
 470 63 l 1
 429 19 363 -20 270 -20 c 0
 151 -20 80 64 80 140 c 2
 80 210 l 2xba
 80 275 151 350 270 350 c 0
 367 350 432 312 470 278 c 1
 470 410 l 2
 470 473 429 535 330 535 c 0
 231 535 190 470 190 410 c 1
 90 410 l 1
 90 524 178 620 330 620 c 0xb6
180 190 m 2xba
 180 150 l 2
 180 107 223 60 300 60 c 0
 395 60 463 118 470 160 c 1
 470 205 l 1
 436 236 368 270 290 270 c 0
 223 270 180 239 180 190 c 2xba
EndSplineSet
Validated: 1
Colour: ff00ff
EndChar

StartChar: d
Encoding: 100 100 96
Width: 730
VWidth: 0
Flags: W
HStem: -20 90<257.422 444.852> 0 21G<520 620> 535 85<264.457 450.462> 820 20G<520 620>
VStem: 90 100<138.315 455.417> 520 100<0 74 125.81 474.083 542 840>
LayerCount: 2
Fore
SplineSet
360 535 m 0xbc
 275 535 190 489 190 340 c 2
 190 240 l 2
 190 111 268 70 360 70 c 0
 440 70 498 116 520 161 c 1
 520 436 l 1
 491 495 432 535 360 535 c 0xbc
620 840 m 1
 620 0 l 1
 520 0 l 1x7c
 520 74 l 1
 483 20 422 -20 340 -20 c 0
 184 -20 90 81 90 240 c 2
 90 340 l 2
 90 528 196 620 340 620 c 0
 415 620 476 588 520 542 c 1
 520 840 l 1
 620 840 l 1
EndSplineSet
Validated: 1
Colour: ff00ff
EndChar

StartChar: b
Encoding: 98 98 97
Width: 730
VWidth: 0
Flags: W
HStem: -20 90<285.148 472.578> 0 21G<110 210> 535 85<279.538 465.543> 820 20G<110 210>
VStem: 110 100<0 74 125.81 474.083 542 840> 540 100<138.315 455.417>
LayerCount: 2
Fore
SplineSet
370 535 m 0xbc
 298 535 239 495 210 436 c 1
 210 161 l 1
 232 116 290 70 370 70 c 0
 462 70 540 111 540 240 c 2
 540 340 l 2
 540 489 455 535 370 535 c 0xbc
110 840 m 1
 210 840 l 1
 210 542 l 1
 254 588 315 620 390 620 c 0
 534 620 640 528 640 340 c 2
 640 240 l 2
 640 81 546 -20 390 -20 c 0xbc
 308 -20 247 20 210 74 c 1
 210 0 l 1
 110 0 l 1x7c
 110 840 l 1
EndSplineSet
Validated: 1
Colour: ff00ff
EndChar

StartChar: e
Encoding: 101 101 98
Width: 690
VWidth: 0
Flags: W
HStem: -20 90<247.817 452.183> 290 70<190 510> 535 85<255.106 444.894>
VStem: 90 100<123.204 290 360 465.395> 510 100<123.204 200 360 465.395>
LayerCount: 2
Fore
SplineSet
610 360 m 2
 610 290 l 1
 190 290 l 1
 190 200 l 2
 190 101 278 70 350 70 c 0
 422 70 510 101 510 200 c 1
 610 200 l 1
 610 47 478 -20 350 -20 c 0
 222 -20 90 47 90 200 c 2
 90 360 l 2
 90 528 206 620 350 620 c 0
 494 620 610 528 610 360 c 2
510 360 m 1
 510 489 435 535 350 535 c 0
 265 535 190 489 190 360 c 1
 510 360 l 1
EndSplineSet
Validated: 1
Colour: ff00ff
EndChar

StartChar: n
Encoding: 110 110 101
Width: 690
VWidth: 0
Flags: W
HStem: 0 21G<100 200 500 600> 530 90<297.482 463.61> 580 20G<100 200>
VStem: 100 100<0 445.194 498 600> 500 100<0 493.39>
LayerCount: 2
Fore
SplineSet
100 600 m 1xb8
 200 600 l 1xb8
 200 498 l 1
 224 538 286 620 400 620 c 0
 522 620 600 542 600 420 c 2
 600 0 l 1
 500 0 l 1
 500 420 l 2
 500 495 448 530 380 530 c 0xd8
 280 530 222 458 200 394 c 1
 200 0 l 1
 100 0 l 1
 100 600 l 1xb8
EndSplineSet
Validated: 1
Colour: ff00ff
EndChar

StartChar: h
Encoding: 104 104 102
Width: 700
VWidth: 0
Flags: W
HStem: 0 21G<110 210 510 610> 530 90<307.482 473.61> 820 20G<110 210>
VStem: 110 100<0 445.194 498 840> 510 100<0 493.39>
LayerCount: 2
Fore
SplineSet
110 840 m 1
 210 840 l 1
 210 498 l 1
 234 538 296 620 410 620 c 0
 532 620 610 542 610 420 c 2
 610 0 l 1
 510 0 l 1
 510 420 l 2
 510 495 458 530 390 530 c 0
 290 530 232 458 210 394 c 1
 210 0 l 1
 110 0 l 1
 110 840 l 1
EndSplineSet
Validated: 1
Colour: ff0000
EndChar

StartChar: s
Encoding: 115 115 103
Width: 660
VWidth: 0
Flags: W
HStem: -20 85<227.866 432.279> 535 85<238.283 421.693>
VStem: 80 100<106.648 170> 100 105<391.859 503.044> 460 100<440 494.916> 475 105<103.811 214.951>
LayerCount: 2
Fore
SplineSet
80 170 m 1xe4
 180 170 l 1
 180 110 233 65 330 65 c 0
 427 65 475 110 475 165 c 0xe4
 475 222 408 241 330 260 c 0
 224 286 100 322 100 445 c 0
 100 527 171 620 330 620 c 0
 489 620 560 522 560 440 c 1
 460 440 l 1
 460 479 423 535 330 535 c 0
 237 535 205 484 205 445 c 0xd8
 205 388 256 369 330 350 c 0
 450 319 580 298 580 165 c 0
 580 70 504 -20 330 -20 c 0
 156 -20 80 70 80 170 c 1xe4
EndSplineSet
Validated: 1
Colour: ff00ff
EndChar

StartChar: i
Encoding: 105 105 104
Width: 360
VWidth: 0
Flags: W
HStem: 0 21G<130 230> 580 20G<130 230> 710 140<125.875 234.125>
VStem: 110 140<725.875 834.125> 130 100<0 600>
LayerCount: 2
Fore
SplineSet
250 780 m 0xf0
 250 741 219 710 180 710 c 0
 141 710 110 741 110 780 c 0
 110 819 141 850 180 850 c 0
 219 850 250 819 250 780 c 0xf0
130 600 m 1xe8
 230 600 l 1
 230 0 l 1
 130 0 l 1
 130 600 l 1xe8
EndSplineSet
Validated: 1
Colour: ff00ff
EndChar

StartChar: z
Encoding: 122 122 105
Width: 620
VWidth: 0
Flags: W
HStem: 0 100<190 560> 510 90<80 430>
LayerCount: 2
Fore
SplineSet
80 600 m 1
 550 600 l 1
 550 510 l 1
 190 100 l 1
 560 100 l 1
 560 0 l 1
 60 0 l 1
 60 100 l 1
 430 510 l 1
 80 510 l 1
 80 600 l 1
EndSplineSet
Validated: 1
Colour: ff00ff
EndChar

StartChar: g
Encoding: 103 103 106
Width: 720
VWidth: 0
Flags: W
HStem: -260 85<262.225 477.775> -20 85<264.457 450.462> 530 90<257.422 444.852> 580 20G<520 620>
VStem: 90 100<144.583 461.685> 120 100<-136.798 -80> 520 100<-136.798 58 125.917 474.19 526 600>
LayerCount: 2
Fore
SplineSet
520 439 m 1xea
 498 484 440 530 360 530 c 0
 268 530 190 489 190 360 c 2
 190 260 l 2
 190 111 275 65 360 65 c 0
 432 65 491 105 520 164 c 1
 520 439 l 1xea
620 -80 m 2
 620 -177 530 -260 370 -260 c 0
 210 -260 120 -177 120 -80 c 1
 220 -80 l 1xd6
 220 -148 293 -175 370 -175 c 0
 447 -175 520 -147 520 -80 c 2
 520 58 l 1
 476 12 415 -20 340 -20 c 0
 196 -20 90 72 90 260 c 2
 90 360 l 2
 90 519 184 620 340 620 c 0xea
 422 620 483 580 520 526 c 1
 520 600 l 1
 620 600 l 1xda
 620 -80 l 2
EndSplineSet
Validated: 1
Colour: ff00ff
EndChar

StartChar: f
Encoding: 102 102 107
Width: 470
VWidth: 0
Flags: W
HStem: 0 21G<150 250> 515 85<70 150 250 410> 780 80<268.036 405.321>
VStem: 150 100<0 515 600 763.123>
LayerCount: 2
Fore
SplineSet
150 0 m 1
 150 515 l 1
 70 515 l 1
 70 600 l 1
 150 600 l 1
 150 690 l 2
 150 802 227 860 320 860 c 0
 409 860 464 810 480 785 c 1
 430 730 l 1
 414 751 377 780 330 780 c 0
 273 780 250 746 250 695 c 2
 250 600 l 1
 410 600 l 1
 410 515 l 1
 250 515 l 1
 250 0 l 1
 150 0 l 1
EndSplineSet
Validated: 1
Colour: ff00ff
EndChar

StartChar: t
Encoding: 116 116 108
Width: 510
VWidth: 0
Flags: W
HStem: -10 80<257.297 389.236> 515 85<70 150 250 410>
VStem: 150 100<78.4609 515 600 760>
LayerCount: 2
Fore
SplineSet
150 600 m 1
 150 760 l 1
 250 760 l 1
 250 600 l 1
 410 600 l 1
 410 515 l 1
 250 515 l 1
 250 135 l 2
 250 93 261 70 305 70 c 0
 352 70 381 90 410 110 c 1
 440 45 l 1
 413 22 356 -10 290 -10 c 0
 214 -10 150 26 150 130 c 2
 150 515 l 1
 70 515 l 1
 70 600 l 1
 150 600 l 1
EndSplineSet
Validated: 1
EndChar

StartChar: r
Encoding: 114 114 109
Width: 450
VWidth: 0
Flags: W
HStem: 0 21G<120 220> 510 100<310.99 410> 580 20G<120 220>
VStem: 120 100<0 432.981 496 600>
LayerCount: 2
Fore
SplineSet
120 600 m 1xb0
 220 600 l 1xb0
 220 496 l 1
 249 541 309 610 410 610 c 1
 410 510 l 1xd0
 318 510 251 457 220 393 c 1
 220 0 l 1
 120 0 l 1
 120 600 l 1xb0
EndSplineSet
Validated: 1
Colour: ff00ff
EndChar

StartChar: m
Encoding: 109 109 110
Width: 990
VWidth: 0
Flags: W
HStem: 0 21G<100 200 450 550 800 900> 530 90<270.212 423.555 610.216 773.383> 580 20G<100 200>
VStem: 100 100<0 469.229 528 600> 450 100<0 444.625> 800 100<0 502.719>
CounterMasks: 1 1c
LayerCount: 2
Fore
SplineSet
100 600 m 1xbc
 200 600 l 1xbc
 200 528 l 1
 232 574 286 620 365 620 c 0
 439 620 496 585 526 526 c 1
 554 562 614 620 710 620 c 0
 832 620 900 542 900 420 c 2
 900 0 l 1
 800 0 l 1
 800 420 l 2
 800 495 768 530 700 530 c 0
 630 530 580 491 549 445 c 1
 550 437 550 429 550 420 c 2
 550 0 l 1
 450 0 l 1
 450 420 l 2
 450 495 418 530 350 530 c 0xdc
 281 530 231 486 200 435 c 1
 200 0 l 1
 100 0 l 1
 100 600 l 1xbc
EndSplineSet
Validated: 1
Colour: ff00ff
EndChar

StartChar: j
Encoding: 106 106 111
Width: 360
VWidth: 0
Flags: W
HStem: -250 75<29.0263 128.411> 580 20G<130 225> 710 140<125.875 234.125>
VStem: 110 140<725.875 834.125> 130 95<-172.672 600>
LayerCount: 2
Fore
SplineSet
15 -225 m 1xe8
 35 -160 l 1
 44 -165 62 -175 85 -175 c 0
 109 -175 130 -166 130 -140 c 2
 130 600 l 1
 225 600 l 1
 225 -150 l 2
 225 -214 185 -250 115 -250 c 0
 62 -250 28 -232 15 -225 c 1xe8
250 780 m 0xf0
 250 741 219 710 180 710 c 0
 141 710 110 741 110 780 c 0
 110 819 141 850 180 850 c 0
 219 850 250 819 250 780 c 0xf0
EndSplineSet
Validated: 1
Colour: ff00ff
EndChar

StartChar: k
Encoding: 107 107 112
Width: 630
VWidth: 0
Flags: W
HStem: 0 21G<110 210 466.286 600> 280 90<210 285> 580 20G<435.652 560> 820 20G<110 210>
VStem: 110 100<0 280 370 840>
LayerCount: 2
Fore
SplineSet
450 600 m 1
 560 600 l 1
 365 335 l 1
 600 0 l 1
 480 0 l 1
 288 280 l 1
 210 280 l 1
 210 0 l 1
 110 0 l 1
 110 840 l 1
 210 840 l 1
 210 370 l 1
 285 370 l 1
 450 600 l 1
EndSplineSet
Validated: 1
Colour: ff00ff
EndChar

StartChar: exclam
Encoding: 33 33 113
Width: 320
VWidth: 0
Flags: W
HStem: 0 140<105.875 214.125> 820 20G<110 210>
VStem: 90 140<15.8748 124.125> 110 100<309.6 840> 130 60<240 290.4>
LayerCount: 2
Fore
SplineSet
110 840 m 1xd0
 210 840 l 1
 210 360 l 1xd0
 190 240 l 1
 130 240 l 1xc8
 110 360 l 1
 110 840 l 1xd0
EndSplineSet
Refer: 126 46 N 1 0 0 1 0 0 2
Validated: 1
Colour: ff00ff
EndChar

StartChar: quotedbl
Encoding: 34 34 114
Width: 420
VWidth: 0
Flags: W
HStem: 560 240<90 150 270 330>
VStem: 90 60<560 660.8> 270 60<560 660.8>
LayerCount: 2
Fore
SplineSet
250 800 m 1
 350 800 l 1
 330 560 l 1
 270 560 l 1
 250 800 l 1
70 800 m 1
 170 800 l 1
 150 560 l 1
 90 560 l 1
 70 800 l 1
EndSplineSet
Validated: 1
Colour: ff00ff
EndChar

StartChar: numbersign
Encoding: 35 35 115
Width: 900
VWidth: 0
Flags: W
HStem: 0 21G<195 278.909 475 558.909> 220 70<80 238 331 518 611 800> 500 70<100 289 382 569 662 820> 780 20G<341.261 425 621.261 705>
LayerCount: 2
Fore
SplineSet
531 290 m 1
 569 500 l 1
 369 500 l 1
 331 290 l 1
 531 290 l 1
611 290 m 1
 800 290 l 1
 800 220 l 1
 598 220 l 1
 555 0 l 1
 475 0 l 1
 518 220 l 1
 318 220 l 1
 275 0 l 1
 195 0 l 1
 238 220 l 1
 80 220 l 1
 80 290 l 1
 251 290 l 1
 289 500 l 1
 100 500 l 1
 100 570 l 1
 302 570 l 1
 345 800 l 1
 425 800 l 1
 382 570 l 1
 582 570 l 1
 625 800 l 1
 705 800 l 1
 662 570 l 1
 820 570 l 1
 820 500 l 1
 649 500 l 1
 611 290 l 1
EndSplineSet
Validated: 1
Colour: ff00ff
EndChar

StartChar: dollar
Encoding: 36 36 116
Width: 660
VWidth: 0
Flags: W
HStem: -17 91<231.849 290 360 431.728> 360 101<360 418.139> 727 91<234.779 290 360 415.201>
VStem: 70 100<142.96 250> 80 105<530.676 678.715> 290 70<-120 -16.1403 74 360 480 726 814.975 920> 470 100<590 668.329> 485 105<127.835 300.635>
LayerCount: 2
Fore
SplineSet
290 920 m 1xec
 360 920 l 1
 360 818 l 1
 501 801 570 686 570 590 c 1
 470 590 l 1xee
 470 654 427 711 360 726 c 1
 360 461 l 1
 489 427 590 369 590 220 c 0
 590 88 496 -7 360 -19 c 1
 360 -120 l 1
 290 -120 l 1
 290 -17 l 1
 159 -0 70 103 70 250 c 1
 170 250 l 1xf5
 170 161 208 91 290 74 c 1
 290 380 l 1
 181 414 80 477 80 600 c 0
 80 696 149 803 290 818 c 1
 290 920 l 1xec
290 480 m 1
 290 727 l 1
 224 714 185 664 185 600 c 0
 185 543 223 503 290 480 c 1
360 360 m 1
 360 72 l 1
 448 83 485 145 485 220 c 0xe5
 485 294 445 333 360 360 c 1
EndSplineSet
Validated: 1
Colour: ff0000
EndChar

StartChar: percent
Encoding: 37 37 117
Width: 840
VWidth: 0
Flags: W
HStem: -10 65<556.565 663.435> 0 21G<90 204> 285 65<556.565 663.435> 450 65<176.565 283.435> 745 65<176.565 283.435> 780 20G<636 750>
VStem: 70 80<543.733 716.267> 310 80<543.733 716.267> 450 80<83.7326 256.267> 690 80<83.7326 256.267>
LayerCount: 2
Fore
SplineSet
650 800 m 1x77c0
 750 800 l 1
 190 0 l 1
 90 0 l 1
 650 800 l 1x77c0
230 810 m 0x3bc0
 324 810 390 729 390 630 c 0
 390 531 324 450 230 450 c 0
 136 450 70 531 70 630 c 0
 70 729 136 810 230 810 c 0x3bc0
230 745 m 0
 173 745 150 682 150 630 c 0
 150 578 173 515 230 515 c 0
 287 515 310 578 310 630 c 0
 310 682 287 745 230 745 c 0
610 350 m 0
 704 350 770 269 770 170 c 0
 770 71 704 -10 610 -10 c 0xb3c0
 516 -10 450 71 450 170 c 0
 450 269 516 350 610 350 c 0
610 285 m 0
 553 285 530 222 530 170 c 0
 530 118 553 55 610 55 c 0
 667 55 690 118 690 170 c 0
 690 222 667 285 610 285 c 0
EndSplineSet
Validated: 1
Colour: ff00ff
EndChar

StartChar: ampersand
Encoding: 38 38 118
Width: 800
VWidth: 0
Flags: W
HStem: -20 90<251.476 458.344> 0 21G<624.304 760> 730 90<309.948 443.144>
VStem: 80 100<134.938 286.335> 180 100<552.048 700.723> 470 100<554.338 701.544> 590 100<242.926 380>
LayerCount: 2
Fore
SplineSet
339 380 m 1xb6
 241 332 180 289 180 210 c 0
 180 135 247 70 350 70 c 0
 424 70 482 99 522 149 c 1
 339 380 l 1xb6
380 730 m 0
 316 730 280 688 280 630 c 0x2e
 280 563 331 518 365 492 c 1
 427 524 470 566 470 630 c 0
 470 688 435 730 380 730 c 0
380 820 m 0
 492 820 570 735 570 630 c 0
 570 532 505 470 426 424 c 1
 570 241 l 1
 583 282 590 329 590 380 c 1
 690 380 l 1
 690 298 670 222 636 158 c 1
 760 0 l 1
 640 0 l 1x6e
 578 79 l 1
 519 17 440 -20 350 -20 c 0
 188 -20 80 78 80 210 c 0xb6
 80 331 174 399 278 451 c 1
 243 484 180 547 180 630 c 0
 180 735 268 820 380 820 c 0
EndSplineSet
Validated: 1
Colour: ff00ff
EndChar

StartChar: quotesingle
Encoding: 39 39 119
Width: 240
VWidth: 0
Flags: W
HStem: 560 240<90 150>
VStem: 90 60<560 660.8>
LayerCount: 2
Fore
SplineSet
70 800 m 1
 170 800 l 1
 150 560 l 1
 90 560 l 1
 70 800 l 1
EndSplineSet
Validated: 1
Colour: ff00ff
EndChar

StartChar: parenleft
Encoding: 40 40 120
Width: 390
VWidth: 0
Flags: W
HStem: 820 20G<260 360>
VStem: 90 90<140.899 579.101>
LayerCount: 2
Fore
SplineSet
90 360 m 1
 90 380 l 2
 90 602 160 768 360 840 c 1
 360 790 l 1
 208 714 180 556 180 380 c 2
 180 360 l 1
 180 340 l 2
 180 164 208 6 360 -70 c 1
 360 -120 l 1
 160 -48 90 118 90 340 c 2
 90 360 l 1
EndSplineSet
Validated: 1
Colour: ff00ff
EndChar

StartChar: asterisk
Encoding: 42 42 122
Width: 510
VWidth: 0
Flags: W
HStem: 420 380
VStem: 220 70<650 800>
LayerCount: 2
Fore
SplineSet
433 696 m 1
 454 630 l 1
 312 583 l 1
 400 462 l 1
 344 420 l 1
 255 542 l 1
 166 420 l 1
 110 462 l 1
 198 583 l 1
 56 630 l 1
 77 696 l 1
 220 650 l 1
 220 800 l 1
 290 800 l 1
 290 650 l 1
 433 696 l 1
EndSplineSet
Validated: 1
Colour: ff00ff
EndChar

StartChar: plus
Encoding: 43 43 123
Width: 560
VWidth: 0
Flags: W
HStem: 285 70<80 240 320 480>
VStem: 240 80<130 285 355 510>
LayerCount: 2
Fore
SplineSet
320 130 m 1
 240 130 l 1
 240 285 l 1
 80 285 l 1
 80 355 l 1
 240 355 l 1
 240 510 l 1
 320 510 l 1
 320 355 l 1
 480 355 l 1
 480 285 l 1
 320 285 l 1
 320 130 l 1
EndSplineSet
Validated: 1
Colour: ff00ff
EndChar

StartChar: comma
Encoding: 44 44 124
Width: 320
VWidth: 0
Flags: W
HStem: -150 290
VStem: 160 80<-53.2049 0>
LayerCount: 2
Fore
SplineSet
160 140 m 0
 211 140 240 101 240 50 c 0
 240 -28 194 -107 135 -150 c 1
 80 -150 l 1
 130 -107 160 -55 160 0 c 1
 121 0 90 31 90 70 c 0
 90 109 121 140 160 140 c 0
EndSplineSet
Validated: 1
Colour: ff00ff
EndChar

StartChar: hyphen
Encoding: 45 45 125
Width: 560
VWidth: 0
Flags: W
HStem: 285 70<80 480>
LayerCount: 2
Fore
SplineSet
80 355 m 1
 480 355 l 1
 480 285 l 1
 80 285 l 1
 80 355 l 1
EndSplineSet
Validated: 1
Colour: ff00ff
EndChar

StartChar: period
Encoding: 46 46 126
Width: 320
VWidth: 0
Flags: W
HStem: 0 140<105.875 214.125>
VStem: 90 140<15.8748 124.125>
LayerCount: 2
Fore
SplineSet
230 70 m 0
 230 31 199 0 160 0 c 0
 121 0 90 31 90 70 c 0
 90 109 121 140 160 140 c 0
 199 140 230 109 230 70 c 0
EndSplineSet
Validated: 1
Colour: ff00ff
EndChar

StartChar: slash
Encoding: 47 47 127
Width: 450
VWidth: 0
Flags: W
HStem: 820 20G<323.958 410>
VStem: 40 370
LayerCount: 2
Fore
SplineSet
330 840 m 1
 410 840 l 1
 120 -120 l 1
 40 -120 l 1
 330 840 l 1
EndSplineSet
Validated: 1
Colour: ff00ff
EndChar

StartChar: zero
Encoding: 48 48 128
Width: 660
VWidth: 0
Flags: W
HStem: -20 90<242.856 417.144> 730 90<242.856 417.144>
VStem: 80 100<139.963 660.036> 480 100<139.963 660.036>
LayerCount: 2
Fore
SplineSet
80 240 m 2
 80 560 l 2
 80 715 175 820 330 820 c 0
 485 820 580 715 580 560 c 2
 580 240 l 2
 580 85 485 -20 330 -20 c 0
 175 -20 80 85 80 240 c 2
180 240 m 2
 180 141 232 70 330 70 c 0
 428 70 480 141 480 240 c 2
 480 560 l 2
 480 659 428 730 330 730 c 0
 232 730 180 659 180 560 c 2
 180 240 l 2
EndSplineSet
Validated: 1
Colour: ff00ff
EndChar

StartChar: one
Encoding: 49 49 129
Width: 660
VWidth: 0
Flags: W
HStem: 0 21G<370 470> 525 95<110 227.155> 780 20G<370 470>
VStem: 370 100<0 630 732.219 800>
LayerCount: 2
Fore
SplineSet
370 630 m 1
 329 567 209 525 110 525 c 1
 110 620 l 1
 226 620 370 706 370 800 c 1
 470 800 l 1
 470 0 l 1
 370 0 l 1
 370 630 l 1
EndSplineSet
Validated: 1
Colour: ff00ff
EndChar

StartChar: two
Encoding: 50 50 130
Width: 660
VWidth: 0
Flags: W
HStem: 0 90<190 580> 730 90<243.566 416.434>
VStem: 80 110<90 176.795> 90 100<595 677.393> 470 100<517.911 677.964>
LayerCount: 2
Fore
SplineSet
470 595 m 0xe8
 470 670 420 730 330 730 c 0
 240 730 190 670 190 595 c 1
 90 595 l 1xd8
 90 719 188 820 330 820 c 0
 472 820 570 719 570 595 c 0
 570 483 483 405 390 340 c 0
 294 273 190 195 190 90 c 1
 580 90 l 1
 580 0 l 1
 80 0 l 1
 80 90 l 2
 80 207 176 297 270 370 c 0
 351 433 470 495 470 595 c 0xe8
EndSplineSet
Validated: 1
Colour: ff00ff
EndChar

StartChar: three
Encoding: 51 51 131
Width: 660
VWidth: 0
Flags: W
HStem: -20 90<224.873 415.127> 375 80<240 403.848> 730 90<233.566 406.434>
VStem: 60 100<135.296 220> 80 100<595 677.393> 460 100<510.52 677.964> 480 100<134.197 307.748>
LayerCount: 2
Fore
SplineSet
60 220 m 1xf2
 160 220 l 1
 160 137 217 70 320 70 c 0
 423 70 480 137 480 220 c 0xf2
 480 303 423 375 320 375 c 2
 240 375 l 1
 240 455 l 1
 320 455 l 2
 410 455 460 520 460 595 c 0
 460 670 410 730 320 730 c 0
 230 730 180 670 180 595 c 1
 80 595 l 1
 80 719 178 820 320 820 c 0
 462 820 560 719 560 595 c 0xec
 560 522 526 458 468 418 c 1
 538 378 580 307 580 220 c 0
 580 82 476 -20 320 -20 c 0
 164 -20 60 82 60 220 c 1xf2
EndSplineSet
Validated: 1
Colour: ff00ff
EndChar

StartChar: four
Encoding: 52 52 132
Width: 660
VWidth: 0
Flags: W
HStem: 0 21G<410 510> 150 90<170 410 510 590> 780 20G<397.857 510>
VStem: 410 100<0 150 240 630>
LayerCount: 2
Fore
SplineSet
70 240 m 1
 410 800 l 1
 510 800 l 1
 510 240 l 1
 590 240 l 1
 590 150 l 1
 510 150 l 1
 510 0 l 1
 410 0 l 1
 410 150 l 1
 70 150 l 1
 70 240 l 1
170 240 m 1
 410 240 l 1
 410 630 l 1
 170 240 l 1
EndSplineSet
Validated: 1
Colour: ff00ff
EndChar

StartChar: five
Encoding: 53 53 133
Width: 660
VWidth: 0
Flags: W
HStem: -20 90<242.856 417.144> 410 90<236.494 417.144> 710 90<240 540>
VStem: 80 100<139.963 240> 480 100<138.027 341.973>
LayerCount: 2
Fore
SplineSet
330 -20 m 0
 175 -20 80 85 80 240 c 1
 180 240 l 1
 180 141 232 70 330 70 c 0
 428 70 480 141 480 240 c 0
 480 339 428 410 330 410 c 0
 265 410 226 383 200 350 c 1
 100 360 l 1
 150 800 l 1
 250 800 l 1
 540 800 l 1
 540 710 l 1
 240 710 l 1
 212 460 l 1
 244 482 284 500 330 500 c 0
 485 500 580 395 580 240 c 0
 580 85 485 -20 330 -20 c 0
EndSplineSet
Validated: 1
Colour: ff00ff
EndChar

StartChar: six
Encoding: 54 54 134
Width: 660
VWidth: 0
Flags: W
HStem: -20 90<242.856 417.144> 410 90<241.995 417.144> 730 90<237.413 412.587>
VStem: 80 100<139.963 343.91 433 672.257> 470 100<595 672.257> 480 100<138.027 341.973>
LayerCount: 2
Fore
SplineSet
480 240 m 0xf4
 480 339 428 410 330 410 c 0
 232 410 180 339 180 240 c 0
 180 141 232 70 330 70 c 0
 428 70 480 141 480 240 c 0xf4
325 820 m 0
 467 820 570 719 570 595 c 1
 470 595 l 1xf8
 470 670 415 730 325 730 c 0
 235 730 180 670 180 595 c 2
 180 433 l 1
 220 475 273 500 330 500 c 0
 485 500 580 395 580 240 c 0
 580 85 485 -20 330 -20 c 0
 175 -20 80 85 80 240 c 2
 80 595 l 2
 80 719 183 820 325 820 c 0
EndSplineSet
Validated: 1
Colour: ff00ff
EndChar

StartChar: seven
Encoding: 55 55 135
Width: 660
VWidth: 0
Flags: W
HStem: 0 21G<240 340> 710 90<90 460>
VStem: 240 100<0 379.596>
LayerCount: 2
Fore
SplineSet
240 0 m 1
 240 210 l 2
 240 510 460 710 460 710 c 1
 90 710 l 1
 90 800 l 1
 570 800 l 1
 570 710 l 1
 570 710 340 516 340 210 c 2
 340 0 l 1
 240 0 l 1
EndSplineSet
Validated: 1
Colour: ff00ff
EndChar

StartChar: eight
Encoding: 56 56 136
Width: 660
VWidth: 0
Flags: W
HStem: -20 90<234.873 425.127> 375 80<246.152 413.848> 730 90<243.566 416.434>
VStem: 70 100<134.197 307.748> 90 100<510.52 677.964> 470 100<510.52 677.964> 490 100<134.197 307.748>
LayerCount: 2
Fore
SplineSet
330 375 m 0xf2
 227 375 170 303 170 220 c 0
 170 137 227 70 330 70 c 0
 433 70 490 137 490 220 c 0
 490 303 433 375 330 375 c 0xf2
330 455 m 0
 420 455 470 520 470 595 c 0
 470 670 420 730 330 730 c 0
 240 730 190 670 190 595 c 0xec
 190 520 240 455 330 455 c 0
478 418 m 1
 548 378 590 307 590 220 c 0
 590 82 486 -20 330 -20 c 0
 174 -20 70 82 70 220 c 0xf2
 70 307 112 378 182 418 c 1
 124 458 90 522 90 595 c 0
 90 719 188 820 330 820 c 0
 472 820 570 719 570 595 c 0
 570 522 536 458 478 418 c 1
EndSplineSet
Validated: 1
Colour: ff00ff
EndChar

StartChar: less
Encoding: 60 60 140
Width: 560
VWidth: 0
Flags: W
LayerCount: 2
Fore
SplineSet
80 295 m 1
 80 345 l 1
 480 550 l 1
 480 465 l 1
 190 320 l 1
 480 175 l 1
 480 90 l 1
 80 295 l 1
EndSplineSet
Validated: 1
Colour: ff00ff
EndChar

StartChar: question
Encoding: 63 63 143
Width: 600
VWidth: 0
Flags: W
HStem: 0 140<235.875 344.125> 770 90<215.077 384.923>
VStem: 60 100<574.911 716.482> 220 140<15.8748 124.125> 235 100<240 394.872> 440 100<560.499 716.482>
LayerCount: 2
Fore
SplineSet
360 70 m 0xf4
 360 31 329 0 290 0 c 0
 251 0 220 31 220 70 c 0
 220 109 251 140 290 140 c 0
 329 140 360 109 360 70 c 0xf4
170 580 m 1
 80 550 l 1
 68 576 60 607 60 640 c 0
 60 773 167 860 300 860 c 0
 433 860 540 773 540 640 c 0
 540 529 470 486 390 430 c 0
 341 396 335 313 335 240 c 1
 235 240 l 1xec
 235 343 237 431 340 500 c 0
 402 542 440 567 440 640 c 0
 440 718 379 770 300 770 c 0
 221 770 160 718 160 640 c 0
 160 619 163 596 170 580 c 1
EndSplineSet
Validated: 1
Colour: ff00ff
EndChar

StartChar: at
Encoding: 64 64 144
Width: 1140
VWidth: 0
Flags: W
HStem: -180 65<429.382 721.252> 70 85<478.905 642.198 801.203 940.031> 505 85<477.367 644.536> 775 65<429.382 710.618>
VStem: 80 70<176.03 483.97> 330 100<203.39 454.254> 685 100<195.329 474.219 533 570> 990 70<212.536 483.97>
LayerCount: 2
Fore
SplineSet
685 236 m 1
 685 446 l 1
 665 476 625 505 560 505 c 0
 492 505 430 464 430 370 c 2
 430 290 l 2
 430 196 492 155 560 155 c 0
 631 155 669 198 685 236 c 1
685 570 m 1
 785 570 l 1
 785 250 l 2
 785 174 823 150 860 150 c 0
 905 150 990 176 990 330 c 0
 990 579 819 775 570 775 c 0
 321 775 150 579 150 330 c 0
 150 81 321 -115 570 -115 c 1
 681 -110 749 -87 822 -38 c 1
 861 -96 l 1
 775 -154 671 -179 570 -180 c 1
 283 -180 80 43 80 330 c 0
 80 617 283 840 570 840 c 0
 857 840 1060 617 1060 330 c 0
 1060 133 947 70 860 70 c 0
 784 70 730 94 703 139 c 1
 667 100 614 70 545 70 c 0
 427 70 330 141 330 290 c 2
 330 370 l 2
 330 513 432 590 545 590 c 0
 605 590 652 566 685 533 c 1
 685 570 l 1
EndSplineSet
Validated: 1
Colour: ff00ff
EndChar

StartChar: A
Encoding: 65 65 145
Width: 800
VWidth: 0
Flags: W
HStem: 0 21G<30 147.758 652.242 770> 165 90<239 561> 780 20G<342 458>
LayerCount: 2
Fore
SplineSet
561 255 m 1
 400 671 l 1
 239 255 l 1
 561 255 l 1
770 0 m 1
 660 0 l 1
 596 165 l 1
 204 165 l 1
 140 0 l 1
 30 0 l 1
 350 800 l 1
 450 800 l 1
 770 0 l 1
EndSplineSet
Validated: 1
Colour: ff00ff
EndChar

StartChar: B
Encoding: 66 66 146
Width: 780
VWidth: 0
Flags: W
HStem: 0 90<200 550.712> 370 90<200 517.334> 715 85<200 512.39>
VStem: 100 100<90 370 460 715> 560 100<501.547 670.682> 600 100<140.917 315.54>
LayerCount: 2
Fore
SplineSet
400 715 m 2xf8
 200 715 l 1
 200 460 l 1
 430 460 l 2
 522 460 560 516 560 580 c 0
 560 669 523 715 400 715 c 2xf8
460 0 m 2
 100 0 l 1
 100 800 l 1
 400 800 l 2
 601 800 660 688 660 580 c 0xf8
 660 516 632 458 579 421 c 1
 653 387 700 323 700 230 c 0xf4
 700 83 613 0 460 0 c 2
460 90 m 2
 562 90 600 154 600 230 c 0xf4
 600 330 530 370 430 370 c 2
 200 370 l 1
 200 90 l 1
 460 90 l 2
EndSplineSet
Validated: 1
Colour: ff00ff
EndChar

StartChar: C
Encoding: 67 67 147
Width: 810
VWidth: 0
Flags: W
HStem: -20 90<287.159 532.841> 735 85<289.846 530.154>
VStem: 90 100<161.213 640.616> 630 100<161.213 250 540 640.616>
LayerCount: 2
Fore
SplineSet
410 820 m 0
 597 820 730 712 730 540 c 1
 630 540 l 1
 630 665 542 735 410 735 c 0
 278 735 190 665 190 540 c 2
 190 250 l 2
 190 135 283 70 410 70 c 0
 537 70 630 135 630 250 c 1
 730 250 l 1
 730 78 587 -20 410 -20 c 0
 233 -20 90 78 90 250 c 2
 90 540 l 2
 90 712 223 820 410 820 c 0
EndSplineSet
Validated: 1
Colour: ff00ff
EndChar

StartChar: D
Encoding: 68 68 148
Width: 780
VWidth: 0
Flags: W
HStem: 0 90<200 488.105> 715 85<200 477.313>
VStem: 100 100<90 715> 610 100<207.83 586.644>
LayerCount: 2
Fore
SplineSet
310 715 m 2
 200 715 l 1
 200 90 l 1
 350 90 l 2
 489 90 610 143 610 330 c 2
 610 450 l 2
 610 639 521 715 310 715 c 2
310 800 m 2
 581 800 710 684 710 450 c 2
 710 330 l 2
 710 101 591 0 350 0 c 2
 100 0 l 1
 100 800 l 1
 310 800 l 2
EndSplineSet
Validated: 1
Colour: ff00ff
EndChar

StartChar: E
Encoding: 69 69 149
Width: 700
VWidth: 0
Flags: W
HStem: 0 90<200 630> 355 90<200 590> 710 90<200 620>
VStem: 100 100<90 355 445 710>
CounterMasks: 1 e0
LayerCount: 2
Fore
SplineSet
100 800 m 1
 620 800 l 1
 620 710 l 1
 200 710 l 1
 200 445 l 1
 590 445 l 1
 590 355 l 1
 200 355 l 1
 200 90 l 1
 630 90 l 1
 630 0 l 1
 100 0 l 1
 100 800 l 1
EndSplineSet
Validated: 1
Colour: ff00ff
EndChar

StartChar: F
Encoding: 70 70 150
Width: 660
VWidth: 0
Flags: W
HStem: 0 21G<100 200> 355 90<200 590> 710 90<200 620>
VStem: 100 100<0 355 445 710>
LayerCount: 2
Fore
SplineSet
100 800 m 1
 620 800 l 1
 620 710 l 1
 200 710 l 1
 200 445 l 1
 590 445 l 1
 590 355 l 1
 200 355 l 1
 200 0 l 1
 100 0 l 1
 100 800 l 1
EndSplineSet
Validated: 1
Colour: ff00ff
EndChar

StartChar: G
Encoding: 71 71 151
Width: 820
VWidth: 0
Flags: W
HStem: -20 90<287.159 559.376> 325 85<430 640> 735 85<289.846 530.154>
VStem: 90 100<161.213 640.616> 630 100<540 640.616> 640 90<134.979 325>
LayerCount: 2
Fore
SplineSet
410 70 m 0xf8
 522 70 592 98 640 160 c 1
 640 325 l 1
 430 325 l 1
 430 410 l 1
 730 410 l 1
 730 140 l 1xf4
 676 32 552 -20 410 -20 c 0
 233 -20 90 78 90 250 c 2
 90 540 l 2
 90 712 223 820 410 820 c 0
 597 820 730 712 730 540 c 1
 630 540 l 1
 630 665 542 735 410 735 c 0
 278 735 190 665 190 540 c 2
 190 250 l 2
 190 135 283 70 410 70 c 0xf8
EndSplineSet
Validated: 1
Colour: ff00ff
EndChar

StartChar: H
Encoding: 72 72 152
Width: 820
VWidth: 0
Flags: W
HStem: 0 21G<100 200 620 720> 355 90<200 620> 780 20G<100 200 620 720>
VStem: 100 100<0 355 445 800> 620 100<0 355 445 800>
LayerCount: 2
Fore
SplineSet
100 800 m 1
 200 800 l 1
 200 445 l 1
 620 445 l 1
 620 800 l 1
 720 800 l 1
 720 0 l 1
 620 0 l 1
 620 355 l 1
 200 355 l 1
 200 0 l 1
 100 0 l 1
 100 800 l 1
EndSplineSet
Validated: 1
Colour: ff00ff
EndChar

StartChar: I
Encoding: 73 73 153
Width: 340
VWidth: 0
Flags: W
HStem: 0 21G<120 220> 780 20G<120 220>
VStem: 120 100<0 800>
LayerCount: 2
Fore
SplineSet
120 800 m 1
 220 800 l 1
 220 0 l 1
 120 0 l 1
 120 800 l 1
EndSplineSet
Validated: 1
Colour: ff00ff
EndChar

StartChar: J
Encoding: 74 74 154
Width: 550
VWidth: 0
Flags: W
HStem: -20 85<154.007 306.018> 780 20G<330 430>
VStem: 30 100<90.302 150> 330 100<90.302 800>
LayerCount: 2
Fore
SplineSet
230 -20 m 0
 106 -20 30 53 30 150 c 1
 130 150 l 1
 130 99 164 65 230 65 c 0
 295 65 330 99 330 150 c 2
 330 800 l 1
 430 800 l 1
 430 150 l 2
 430 53 355 -20 230 -20 c 0
EndSplineSet
Validated: 1
Colour: ff00ff
EndChar

StartChar: K
Encoding: 75 75 155
Width: 750
VWidth: 0
Flags: W
HStem: 0 21G<100 200 585.067 720> 375 90<200 303> 780 20G<100 200 544.657 670>
VStem: 100 100<0 375 465 800>
LayerCount: 2
Fore
SplineSet
560 800 m 1
 670 800 l 1
 390 440 l 1
 720 0 l 1
 600 0 l 1
 320 375 l 1
 200 375 l 1
 200 0 l 1
 100 0 l 1
 100 800 l 1
 200 800 l 1
 200 465 l 1
 303 465 l 1
 560 800 l 1
EndSplineSet
Validated: 1
Colour: ff00ff
EndChar

StartChar: L
Encoding: 76 76 156
Width: 600
VWidth: 0
Flags: W
HStem: 0 90<200 580> 780 20G<100 200>
VStem: 100 100<90 800>
LayerCount: 2
Fore
SplineSet
100 800 m 1
 200 800 l 1
 200 90 l 1
 580 90 l 1
 580 0 l 1
 100 0 l 1
 100 800 l 1
EndSplineSet
Validated: 1
Colour: ff00ff
EndChar

StartChar: M
Encoding: 77 77 157
Width: 980
VWidth: 0
Flags: W
HStem: 0 21G<100 200 451.746 528.254 780 880> 780 20G<100 238.254 741.746 880>
VStem: 100 100<0 630> 780 100<0 630>
LayerCount: 2
Fore
SplineSet
230 800 m 1
 490 170 l 1
 750 800 l 1
 880 800 l 1
 880 0 l 1
 780 0 l 1
 780 630 l 1
 520 0 l 1
 490 0 l 1
 460 0 l 1
 200 630 l 1
 200 0 l 1
 100 0 l 1
 100 800 l 1
 230 800 l 1
EndSplineSet
Validated: 1
Colour: ff00ff
EndChar

StartChar: N
Encoding: 78 78 158
Width: 820
VWidth: 0
Flags: W
HStem: 0 21G<100 200 606.667 720> 780 20G<100 213.333 620 720>
VStem: 100 100<0 630> 620 100<170 800>
LayerCount: 2
Fore
SplineSet
200 0 m 1
 100 0 l 1
 100 800 l 1
 200 800 l 1
 620 170 l 1
 620 800 l 1
 720 800 l 1
 720 0 l 1
 620 0 l 1
 200 630 l 1
 200 0 l 1
EndSplineSet
Validated: 1
Colour: ff00ff
EndChar

StartChar: O
Encoding: 79 79 159
Width: 800
VWidth: 0
Flags: W
HStem: -20 90<284.413 515.587> 735 85<288.958 511.042>
VStem: 80 100<170.439 624.08> 620 100<170.439 624.467>
LayerCount: 2
Fore
SplineSet
620 520 m 2
 620 649 527 735 400 735 c 0
 273 735 180 649 180 520 c 2
 180 270 l 2
 180 150 269 70 400 70 c 0
 531 70 620 150 620 270 c 2
 620 520 l 2
720 520 m 2
 720 270 l 2
 720 88 577 -20 400 -20 c 0
 223 -20 80 88 80 270 c 2
 80 520 l 2
 80 706 223 820 400 820 c 0
 577 820 720 707 720 520 c 2
EndSplineSet
Validated: 1
Colour: ff00ff
EndChar

StartChar: P
Encoding: 80 80 160
Width: 740
VWidth: 0
Flags: W
HStem: 0 21G<100 200> 320 85<200 518.348> 715 85<200 518.348>
VStem: 100 100<0 320 405 715> 580 100<467.06 652.94>
LayerCount: 2
Fore
SplineSet
420 800 m 2
 621 800 680 668 680 560 c 0
 680 452 621 320 420 320 c 2
 200 320 l 1
 200 0 l 1
 100 0 l 1
 100 800 l 1
 420 800 l 2
420 715 m 2
 200 715 l 1
 200 405 l 1
 420 405 l 2
 543 405 580 489 580 560 c 0
 580 631 543 715 420 715 c 2
EndSplineSet
Validated: 1
Colour: ff00ff
EndChar

StartChar: Q
Encoding: 81 81 161
Width: 800
VWidth: 0
Flags: W
HStem: -20 90<284.413 517.183> 735 85<288.958 511.042>
VStem: 80 100<170.439 624.08> 620 100<169.294 624.467>
LayerCount: 2
Fore
SplineSet
720 520 m 2
 720 270 l 2
 720 192 694 127 649 79 c 1
 755 -25 l 1
 700 -80 l 1
 589 29 l 1
 536 -3 471 -20 400 -20 c 0
 223 -20 80 88 80 270 c 2
 80 520 l 2
 80 706 223 820 400 820 c 0
 577 820 720 707 720 520 c 2
620 520 m 2
 620 649 527 735 400 735 c 0
 273 735 180 649 180 520 c 2
 180 270 l 2
 180 150 269 70 400 70 c 0
 446 70 486 80 520 97 c 1
 410 205 l 1
 465 260 l 1
 580 147 l 1
 606 180 620 222 620 270 c 2
 620 520 l 2
EndSplineSet
Validated: 1
Colour: ff00ff
EndChar

StartChar: R
Encoding: 82 82 162
Width: 780
VWidth: 0
Flags: W
HStem: 0 21G<100 200 608.125 740> 320 85<200 430> 715 85<200 518.348>
VStem: 100 100<0 320 405 715> 580 100<466.92 652.94>
LayerCount: 2
Fore
SplineSet
531 337 m 1
 740 0 l 1
 620 0 l 1
 430 320 l 1
 420 320 l 1
 200 320 l 1
 200 0 l 1
 100 0 l 1
 100 800 l 1
 420 800 l 2
 621 800 680 668 680 560 c 0
 680 475 643 376 531 337 c 1
420 715 m 2
 200 715 l 1
 200 405 l 1
 420 405 l 2
 543 405 580 489 580 560 c 0
 580 631 543 715 420 715 c 2
EndSplineSet
Validated: 1
Colour: ff00ff
EndChar

StartChar: S
Encoding: 83 83 163
Width: 790
VWidth: 0
Flags: W
HStem: -20 90<276.215 522.389> 730 90<279.374 501.417>
VStem: 80 100<158.809 250> 100 105<530.648 664.639> 580 100<590 659.859> 605 105<143.636 289.042>
LayerCount: 2
Fore
SplineSet
710 220 m 0xd4
 710 78 581 -20 395 -20 c 0
 198 -20 80 88 80 250 c 1
 180 250 l 1
 180 147 257 70 395 70 c 0
 533 70 605 137 605 220 c 0xe4
 605 315 509 344 390 370 c 0
 257 399 100 436 100 590 c 0
 100 694 202 820 390 820 c 0
 578 820 680 694 680 590 c 1
 580 590 l 1xd8
 580 665 508 730 390 730 c 0
 272 730 205 665 205 590 c 0
 205 513 291 489 390 470 c 0
 546 440 710 395 710 220 c 0xd4
EndSplineSet
Validated: 1
Colour: ff00ff
EndChar

StartChar: T
Encoding: 84 84 164
Width: 620
VWidth: 0
Flags: W
HStem: 0 21G<260 360> 710 90<30 260 360 590>
VStem: 260 100<0 710>
LayerCount: 2
Fore
SplineSet
590 800 m 1
 590 710 l 1
 360 710 l 1
 360 0 l 1
 260 0 l 1
 260 710 l 1
 30 710 l 1
 30 800 l 1
 590 800 l 1
EndSplineSet
Validated: 1
Colour: ff00ff
EndChar

StartChar: U
Encoding: 85 85 165
Width: 800
VWidth: 0
Flags: W
HStem: -20 90<292.625 507.375> 780 20G<90 190 610 710>
VStem: 90 100<172.438 800> 610 100<172.438 800>
LayerCount: 2
Fore
SplineSet
90 800 m 1
 190 800 l 1
 190 280 l 2
 190 131 297 70 400 70 c 0
 503 70 610 131 610 280 c 2
 610 800 l 1
 710 800 l 1
 710 280 l 2
 710 85 573 -20 400 -20 c 0
 227 -20 90 85 90 280 c 2
 90 800 l 1
EndSplineSet
Validated: 1
Colour: ff00ff
EndChar

StartChar: V
Encoding: 86 86 166
Width: 800
VWidth: 0
Flags: W
HStem: 0 21G<342 458> 780 20G<30 147.75 652.25 770>
LayerCount: 2
Fore
SplineSet
350 0 m 1
 30 800 l 1
 140 800 l 1
 400 129 l 1
 660 800 l 1
 770 800 l 1
 450 0 l 1
 350 0 l 1
EndSplineSet
Validated: 1
Colour: ff00ff
EndChar

StartChar: W
Encoding: 87 87 167
Width: 1160
VWidth: 0
Flags: W
HStem: 0 21G<283.5 395.938 764.062 876.5> 780 20G<30 146.225 529.052 630.948 1013.78 1130>
LayerCount: 2
Fore
SplineSet
290 0 m 1
 30 800 l 1
 140 800 l 1
 342 151 l 1
 535 800 l 1
 625 800 l 1
 818 151 l 1
 1020 800 l 1
 1130 800 l 1
 870 0 l 1
 770 0 l 1
 580 640 l 1
 390 0 l 1
 290 0 l 1
EndSplineSet
Validated: 1
Colour: ff00ff
EndChar

StartChar: X
Encoding: 88 88 168
Width: 800
VWidth: 0
Flags: W
HStem: 0 21G<30 169.627 630.373 770> 780 20G<60 199.626 600.374 740>
LayerCount: 2
Fore
SplineSet
60 800 m 1
 185 800 l 1
 400 506 l 1
 615 800 l 1
 740 800 l 1
 463 421 l 1
 770 0 l 1
 645 0 l 1
 400 335 l 1
 155 0 l 1
 30 0 l 1
 337 421 l 1
 60 800 l 1
EndSplineSet
Validated: 1
Colour: ff00ff
EndChar

StartChar: Y
Encoding: 89 89 169
Width: 700
VWidth: 0
Flags: W
HStem: 0 21G<300 400> 780 20G<30 160.526 539.474 670>
VStem: 300 100<0 320>
LayerCount: 2
Fore
SplineSet
30 800 m 1
 150 800 l 1
 350 420 l 1
 550 800 l 1
 670 800 l 1
 400 320 l 1
 400 0 l 1
 300 0 l 1
 300 320 l 1
 30 800 l 1
EndSplineSet
Validated: 1
Colour: ff00ff
EndChar

StartChar: Z
Encoding: 90 90 170
Width: 740
VWidth: 0
Flags: W
HStem: 0 100<200 680> 710 90<90 530>
LayerCount: 2
Fore
SplineSet
90 800 m 1
 660 800 l 1
 660 710 l 1
 200 100 l 1
 680 100 l 1
 680 0 l 1
 60 0 l 1
 60 100 l 1
 530 710 l 1
 90 710 l 1
 90 800 l 1
EndSplineSet
Validated: 1
Colour: ff00ff
EndChar

StartChar: bracketleft
Encoding: 91 91 171
Width: 330
VWidth: 0
Flags: W
HStem: -120 70<170 290> 770 70<170 290>
VStem: 90 200<-120 -50 770 840> 90 80<-50 770>
LayerCount: 2
Fore
SplineSet
90 840 m 1xe0
 290 840 l 1
 290 770 l 1xe0
 170 770 l 1
 170 -50 l 1xd0
 290 -50 l 1
 290 -120 l 1
 90 -120 l 1
 90 840 l 1xe0
EndSplineSet
Validated: 1
Colour: ff00ff
EndChar

StartChar: backslash
Encoding: 92 92 172
Width: 450
VWidth: 0
Flags: W
HStem: 820 20G<40 126.042>
VStem: 40 370
LayerCount: 2
Fore
SplineSet
330 -120 m 1
 40 840 l 1
 120 840 l 1
 410 -120 l 1
 330 -120 l 1
EndSplineSet
Validated: 1
Colour: ff00ff
EndChar

StartChar: asciicircum
Encoding: 94 94 174
Width: 540
VWidth: 0
Flags: W
HStem: 560 240
LayerCount: 2
Fore
SplineSet
270 736 m 1
 160 560 l 1
 70 560 l 1
 230 800 l 1
 310 800 l 1
 470 560 l 1
 380 560 l 1
 270 736 l 1
EndSplineSet
Validated: 1
Colour: ff00ff
EndChar

StartChar: underscore
Encoding: 95 95 175
Width: 640
VWidth: 0
Flags: W
HStem: -70 70<80 560>
LayerCount: 2
Fore
SplineSet
80 0 m 1
 560 0 l 1
 560 -70 l 1
 80 -70 l 1
 80 0 l 1
EndSplineSet
Validated: 1
Colour: ff00ff
EndChar

StartChar: grave
Encoding: 96 96 176
Width: 420
VWidth: 0
Flags: W
HStem: 660 140
VStem: 60 300
LayerCount: 2
Fore
SplineSet
60 800 m 1
 190 800 l 1
 360 660 l 1
 260 660 l 1
 60 800 l 1
EndSplineSet
Validated: 1
Colour: ff00ff
EndChar

StartChar: v
Encoding: 118 118 177
Width: 640
VWidth: 0
Flags: W
HStem: 0 21G<262 378> 580 20G<30 147.5 492.5 610>
LayerCount: 2
Fore
SplineSet
270 0 m 1
 30 600 l 1
 140 600 l 1
 320 120 l 1
 500 600 l 1
 610 600 l 1
 370 0 l 1
 270 0 l 1
EndSplineSet
Validated: 1
Colour: ff00ff
EndChar

StartChar: w
Encoding: 119 119 178
Width: 950
VWidth: 0
Flags: W
HStem: 0 21G<233.333 346.067 603.933 716.667> 580 20G<40 151.271 428.983 521.017 798.729 910>
LayerCount: 2
Fore
SplineSet
240 0 m 1
 40 600 l 1
 145 600 l 1
 293 128 l 1
 435 600 l 1
 515 600 l 1
 657 128 l 1
 805 600 l 1
 910 600 l 1
 710 0 l 1
 610 0 l 1
 475 445 l 1
 340 0 l 1
 240 0 l 1
EndSplineSet
Validated: 1
Colour: ff00ff
EndChar

StartChar: x
Encoding: 120 120 179
Width: 650
VWidth: 0
Flags: W
HStem: 0 21G<30 164.523 485.477 620> 580 20G<60 194.356 455.644 590>
LayerCount: 2
Fore
SplineSet
60 600 m 1
 180 600 l 1
 325 398 l 1
 470 600 l 1
 590 600 l 1
 385 320 l 1
 620 0 l 1
 500 0 l 1
 325 241 l 1
 150 0 l 1
 30 0 l 1
 265 320 l 1
 60 600 l 1
EndSplineSet
Validated: 1
Colour: ff00ff
EndChar

StartChar: y
Encoding: 121 121 180
Width: 660
VWidth: 0
Flags: W
HStem: -240 80<120 221.983> 580 20G<40 157.5 502.5 620>
LayerCount: 2
Fore
SplineSet
510 600 m 1
 620 600 l 1
 380 0 l 1
 340 -120 l 1
 311 -194 268 -240 120 -240 c 1
 120 -160 l 1
 208 -160 237 -136 255 -80 c 1
 280 0 l 1
 40 600 l 1
 150 600 l 1
 330 120 l 1
 510 600 l 1
EndSplineSet
Validated: 1
Colour: ff00ff
EndChar

StartChar: braceleft
Encoding: 123 123 181
Width: 390
VWidth: 0
Flags: W
HStem: -120 70<231.837 350> 770 70<231.837 350>
VStem: 150 80<-47.5697 282.449 437.551 767.57>
LayerCount: 2
Fore
SplineSet
40 360 m 1
 40 365 l 1
 79 385 150 432 150 520 c 2
 150 750 l 2
 150 806 193 840 250 840 c 2
 350 840 l 1
 350 770 l 1
 270 770 l 2
 242 770 230 759 230 730 c 2
 230 520 l 2
 230 393 150 360 150 360 c 1
 150 360 230 327 230 200 c 2
 230 -10 l 2
 230 -39 242 -50 270 -50 c 2
 350 -50 l 1
 350 -120 l 1
 250 -120 l 2
 193 -120 150 -86 150 -30 c 2
 150 200 l 2
 150 288 79 335 40 355 c 1
 40 360 l 1
EndSplineSet
Validated: 1
Colour: ff00ff
EndChar

StartChar: bar
Encoding: 124 124 182
Width: 330
VWidth: 0
Flags: W
HStem: 780 20G<125 205>
VStem: 125 80<-120 800>
LayerCount: 2
Fore
SplineSet
125 800 m 1
 205 800 l 1
 205 -120 l 1
 125 -120 l 1
 125 800 l 1
EndSplineSet
Validated: 1
Colour: ff00ff
EndChar

StartChar: asciitilde
Encoding: 126 126 184
Width: 640
VWidth: 0
Flags: W
HStem: 240 70<354.38 477.541> 330 70<162.459 285.421>
VStem: 80 50<266.64 293.387> 510 50<346.613 373.36>
LayerCount: 2
Fore
SplineSet
215 400 m 0
 261 400 291 384 330 355 c 0
 366 328 379 310 425 310 c 0
 469 310 496 354 510 390 c 1
 560 370 l 1
 550 308 490 240 425 240 c 0
 379 240 347 257 310 285 c 0
 272 313 261 330 215 330 c 0
 171 330 144 286 130 250 c 1
 80 270 l 1
 90 332 150 400 215 400 c 0
EndSplineSet
Validated: 1
Colour: ff00ff
EndChar

StartChar: Euro
Encoding: 8364 8364 185
Width: 660
VWidth: 0
Flags: W
HStem: -20 90<322.845 530.102> 290 60<40 140 240 510> 450 60<40 140 240 510> 735 85<328.974 523.417>
VStem: 140 100<164.781 290 350 450 510 634.375>
LayerCount: 2
Fore
SplineSet
610 740 m 1
 560 680 l 1
 521 718 484 735 420 735 c 0
 296 735 244 633 240 510 c 1
 510 510 l 1
 510 450 l 1
 240 450 l 1
 240 350 l 1
 510 350 l 1
 510 290 l 1
 240 290 l 1
 240 170 289 70 420 70 c 0
 484 70 521 82 560 120 c 1
 610 55 l 1
 560 7 501 -20 420 -20 c 0
 243 -20 140 108 140 290 c 1
 40 290 l 1
 40 350 l 1
 140 350 l 1
 140 450 l 1
 40 450 l 1
 40 510 l 1
 140 510 l 1
 145 690 246 820 420 820 c 0
 501 820 560 788 610 740 c 1
EndSplineSet
Validated: 1
Colour: ff00ff
EndChar

StartChar: quoteleft
Encoding: 8216 8216 186
Width: 300
VWidth: 0
Flags: W
HStem: 520 290
VStem: 80 80<660 713.205>
LayerCount: 2
Fore
SplineSet
160 520 m 0
 109 520 80 559 80 610 c 0
 80 688 126 767 185 810 c 1
 240 810 l 1
 190 767 160 715 160 660 c 1
 199 660 230 629 230 590 c 0
 230 551 199 520 160 520 c 0
EndSplineSet
Validated: 1
Colour: ff00ff
EndChar

StartChar: quoteright
Encoding: 8217 8217 187
Width: 300
VWidth: 0
Flags: W
HStem: 520 290
VStem: 140 80<616.795 670>
LayerCount: 2
Fore
SplineSet
140 810 m 0
 191 810 220 771 220 720 c 0
 220 642 174 563 115 520 c 1
 60 520 l 1
 110 563 140 615 140 670 c 1
 101 670 70 701 70 740 c 0
 70 779 101 810 140 810 c 0
EndSplineSet
Validated: 1
Colour: ff00ff
EndChar

StartChar: quotedblleft
Encoding: 8220 8220 188
Width: 480
VWidth: 0
Flags: W
HStem: 520 140<135 186.159 345 396.159> 790 20G<135.5 220 345.5 430>
VStem: 60 75<660 713.205> 270 75<660 713.205>
LayerCount: 2
Fore
SplineSet
135 520 m 0
 84 520 60 559 60 610 c 0
 60 688 106 767 165 810 c 1
 220 810 l 1
 170 767 135 715 135 660 c 1
 174 660 200 629 200 590 c 0
 200 551 174 520 135 520 c 0
345 520 m 0
 294 520 270 559 270 610 c 0
 270 688 316 767 375 810 c 1
 430 810 l 1
 380 767 345 715 345 660 c 1
 384 660 410 629 410 590 c 0
 410 551 384 520 345 520 c 0
EndSplineSet
Validated: 1
Colour: ff00ff
EndChar

StartChar: bullet
Encoding: 8226 8226 190
Width: 360
VWidth: 0
Flags: W
HStem: 230 180<116.25 243.75>
VStem: 90 180<256.25 383.75>
LayerCount: 2
Fore
SplineSet
270 320 m 0
 270 270 230 230 180 230 c 0
 130 230 90 270 90 320 c 0
 90 370 130 410 180 410 c 0
 230 410 270 370 270 320 c 0
EndSplineSet
Validated: 1
Colour: ff00ff
EndChar

StartChar: endash
Encoding: 8211 8211 191
Width: 690
VWidth: 0
Flags: W
HStem: 285 70<100 600>
LayerCount: 2
Fore
SplineSet
100 355 m 1
 600 355 l 1
 600 285 l 1
 100 285 l 1
 100 355 l 1
EndSplineSet
Validated: 1
Colour: ff00ff
EndChar

StartChar: emdash
Encoding: 8212 8212 192
Width: 990
VWidth: 0
Flags: W
HStem: 285 70<100 900>
LayerCount: 2
Fore
SplineSet
100 355 m 1
 900 355 l 1
 900 285 l 1
 100 285 l 1
 100 355 l 1
EndSplineSet
Validated: 1
Colour: ff00ff
EndChar

StartChar: uni0E48.low
Encoding: 61000 61000 206
Width: 0
VWidth: 0
Flags: W
HStem: 680 250<-128.162 -110>
VStem: -190 80<717 930>
LayerCount: 2
Fore
SplineSet
-190 930 m 1
 -110 930 l 1
 -110 680 l 1
 -190 717 l 1
 -190 930 l 1
EndSplineSet
Validated: 1
Substitution2: "TH Tone Low to High" uni0E48
Colour: ff00
EndChar

StartChar: uni0E49.low
Encoding: 61001 61001 207
Width: 0
VWidth: -300
Flags: W
HStem: 700 55<-332.614 -270.705 -230 -143.473> 880 40<-281.088 -218.912>
VStem: -325 40<813.955 876.088> -215 40<814.407 876.088> -85 85<812.845 910>
LayerCount: 2
Fore
SplineSet
-250 920 m 0
 -209 920 -175 886 -175 845 c 0
 -175 781 -230 755 -230 755 c 1
 -147 755 -85 806 -85 910 c 1
 0 910 l 1
 0 780 -70 700 -230 700 c 2
 -310 700 l 2
 -348 700 -360 755 -360 755 c 1
 -315 755 l 2
 -302 755 -285 761 -270 773 c 1
 -301 781 -325 810 -325 845 c 0
 -325 886 -291 920 -250 920 c 0
-250 880 m 0
 -269 880 -285 864 -285 845 c 0
 -285 826 -269 810 -250 810 c 0
 -231 810 -215 826 -215 845 c 0
 -215 864 -231 880 -250 880 c 0
EndSplineSet
Validated: 1
Substitution2: "TH Tone Low to High" uni0E49
Colour: ff00
EndChar

StartChar: uni0E4A.low
Encoding: 61002 61002 208
Width: 0
VWidth: -300
Flags: W
HStem: 700 35<-326.728 -272.959> 705 45<-190 -166.814> 795 35<-327.216 -272.808> 840 21G<-261.5 -202> 880 50<-325.917 -264.46>
VStem: -390 60<736.132 878.041> -270 36<738.187 792.105> -154 54<776.648 873.457> -70 70<787.285 920>
LayerCount: 2
Fore
SplineSet
-190 880 m 1x7f80
 -214 840 l 1
 -260 840 l 1
 -263 858 -272 880 -294 880 c 0
 -317 880 -333 852 -334 820 c 1
 -324 827 -312 830 -300 830 c 0
 -264 830 -234 801 -234 765 c 0
 -234 730 -264 700 -300 700 c 0xbf80
 -355 700 -390 755 -390 815 c 0
 -390 876 -350 930 -294 930 c 0
 -261 930 -242 906 -234 887 c 1
 -210 930 l 1
 -190 930 l 2
 -134 930 -100 881 -100 820 c 0
 -100 805 -102 790 -106 776 c 1
 -86 787 -70 822 -70 920 c 1
 0 920 l 1
 0 811 -18 705 -190 705 c 1
 -190 750 l 1
 -168 750 -154 781 -154 820 c 0
 -154 846 -169 872 -190 880 c 1x7f80
-300 795 m 0
 -316 795 -330 782 -330 765 c 0
 -330 749 -316 735 -300 735 c 0
 -283 735 -270 749 -270 765 c 0
 -270 782 -283 795 -300 795 c 0
EndSplineSet
Validated: 1
Substitution2: "TH Tone Low to High" uni0E4A
Colour: ff00
EndChar

StartChar: uni0E4B.low
Encoding: 61003 61003 209
Width: 0
VWidth: -300
Flags: W
HStem: 785 60<-300 -200 -120 -20>
VStem: -200 80<712 785 845 940>
LayerCount: 2
Fore
SplineSet
-200 940 m 1
 -120 940 l 1
 -120 845 l 1
 -20 845 l 1
 -20 785 l 1
 -120 785 l 1
 -120 670 l 1
 -200 712 l 1
 -200 785 l 1
 -300 785 l 1
 -300 845 l 1
 -200 845 l 1
 -200 940 l 1
EndSplineSet
Validated: 1
Substitution2: "TH Tone Low to High" uni0E4B
Colour: ff00
EndChar

StartChar: uni0E4C.low
Encoding: 61004 61004 210
Width: 0
VWidth: -300
Flags: W
HStem: 670 40<-235.879 -173.402>
VStem: -280 40<714.103 775.185> -170 40<713.729 776.426> -144 84<881.671 930>
LayerCount: 2
Fore
SplineSet
-204 780 m 0xe0
 -224 780 -240 764 -240 745 c 0
 -240 726 -224 710 -204 710 c 0
 -185 710 -170 726 -170 745 c 0
 -170 764 -185 780 -204 780 c 0xe0
-144 930 m 1xd0
 -60 930 l 1xd0
 -60 866 -120 839 -161 806 c 1
 -142 793 -130 770 -130 745 c 0xe0
 -130 704 -163 670 -204 670 c 0
 -246 670 -280 704 -280 745 c 0
 -280 842 -144 863 -144 930 c 1xd0
EndSplineSet
Validated: 1
Substitution2: "TH Tone Low to High" uni0E4C
Colour: ff00
EndChar

StartChar: uni0E48.low.left
Encoding: 986696 986696 211
Width: 0
VWidth: 0
Flags: W
HStem: 680 250<-328.162 -310>
VStem: -390 80<717 930>
LayerCount: 2
Fore
SplineSet
-390 930 m 1
 -310 930 l 1
 -310 680 l 1
 -390 717 l 1
 -390 930 l 1
EndSplineSet
Validated: 1
Colour: ffff00
EndChar

StartChar: uni0E49.low.left
Encoding: 986697 986697 212
Width: 0
VWidth: -300
Flags: W
HStem: 700 55<-552.614 -490.705 -450 -363.473> 880 40<-501.088 -438.912>
VStem: -545 40<813.955 876.088> -435 40<814.407 876.088> -305 85<812.845 910>
LayerCount: 2
Fore
SplineSet
-470 920 m 0
 -429 920 -395 886 -395 845 c 0
 -395 781 -450 755 -450 755 c 1
 -367 755 -305 806 -305 910 c 1
 -220 910 l 1
 -220 780 -290 700 -450 700 c 2
 -530 700 l 2
 -568 700 -580 755 -580 755 c 1
 -535 755 l 2
 -522 755 -505 761 -490 773 c 1
 -521 781 -545 810 -545 845 c 0
 -545 886 -511 920 -470 920 c 0
-470 880 m 0
 -489 880 -505 864 -505 845 c 0
 -505 826 -489 810 -470 810 c 0
 -451 810 -435 826 -435 845 c 0
 -435 864 -451 880 -470 880 c 0
EndSplineSet
Validated: 1
Colour: ffff00
EndChar

StartChar: uni0E4A.low.left
Encoding: 986698 986698 213
Width: 0
VWidth: -300
Flags: W
HStem: 700 35<-546.728 -492.959> 705 45<-410 -386.814> 795 35<-547.216 -492.808> 840 21G<-481.5 -422> 880 50<-545.917 -484.46>
VStem: -610 60<736.132 878.041> -490 36<738.187 792.105> -374 54<776.648 873.457> -290 70<787.285 920>
LayerCount: 2
Fore
SplineSet
-410 880 m 1x7f80
 -434 840 l 1
 -480 840 l 1
 -483 858 -492 880 -514 880 c 0
 -537 880 -553 852 -554 820 c 1
 -544 827 -532 830 -520 830 c 0
 -484 830 -454 801 -454 765 c 0
 -454 730 -484 700 -520 700 c 0xbf80
 -575 700 -610 755 -610 815 c 0
 -610 876 -570 930 -514 930 c 0
 -481 930 -462 906 -454 887 c 1
 -430 930 l 1
 -410 930 l 2
 -354 930 -320 881 -320 820 c 0
 -320 805 -322 790 -326 776 c 1
 -306 787 -290 822 -290 920 c 1
 -220 920 l 1
 -220 811 -238 705 -410 705 c 1
 -410 750 l 1
 -388 750 -374 781 -374 820 c 0
 -374 846 -389 872 -410 880 c 1x7f80
-520 795 m 0
 -536 795 -550 782 -550 765 c 0
 -550 749 -536 735 -520 735 c 0
 -503 735 -490 749 -490 765 c 0
 -490 782 -503 795 -520 795 c 0
EndSplineSet
Validated: 1
Colour: ffff00
EndChar

StartChar: uni0E4B.low.left
Encoding: 986699 986699 214
Width: 0
VWidth: -300
Flags: W
HStem: 785 60<-510 -410 -330 -230>
VStem: -410 80<712 785 845 940>
LayerCount: 2
Fore
SplineSet
-410 940 m 1
 -330 940 l 1
 -330 845 l 1
 -230 845 l 1
 -230 785 l 1
 -330 785 l 1
 -330 670 l 1
 -410 712 l 1
 -410 785 l 1
 -510 785 l 1
 -510 845 l 1
 -410 845 l 1
 -410 940 l 1
EndSplineSet
Validated: 1
Colour: ffff00
EndChar

StartChar: uni0E4C.low.left
Encoding: 986700 986700 215
Width: 0
VWidth: -300
Flags: W
HStem: 670 40<-415.879 -353.402>
VStem: -460 40<714.103 775.185> -350 40<713.729 776.426> -324 84<881.671 930>
LayerCount: 2
Fore
SplineSet
-384 780 m 0xe0
 -404 780 -420 764 -420 745 c 0
 -420 726 -404 710 -384 710 c 0
 -365 710 -350 726 -350 745 c 0
 -350 764 -365 780 -384 780 c 0xe0
-324 930 m 1xd0
 -240 930 l 1xd0
 -240 866 -300 839 -341 806 c 1
 -322 793 -310 770 -310 745 c 0xe0
 -310 704 -343 670 -384 670 c 0
 -426 670 -460 704 -460 745 c 0
 -460 842 -324 863 -324 930 c 1xd0
EndSplineSet
Validated: 1
Colour: ffff00
EndChar

StartChar: uni0E4D.low.left
Encoding: 986701 986701 216
Width: 0
VWidth: 0
Flags: W
HStem: 690 55<-400.913 -299.087> 865 55<-400.913 -299.087>
VStem: -475 65<754.958 855.042> -290 65<754.958 855.042>
LayerCount: 2
Fore
SplineSet
-350 865 m 0
 -386 865 -410 841 -410 805 c 0
 -410 769 -386 745 -350 745 c 0
 -314 745 -290 769 -290 805 c 0
 -290 841 -314 865 -350 865 c 0
-350 920 m 0
 -283 920 -225 872 -225 805 c 0
 -225 738 -283 690 -350 690 c 0
 -417 690 -475 738 -475 805 c 0
 -475 872 -417 920 -350 920 c 0
EndSplineSet
Validated: 1
Colour: ffff00
EndChar

StartChar: uni0E48.high.left
Encoding: 1044040 1044040 217
Width: 0
VWidth: 0
Flags: W
HStem: 980 250<-268.162 -250>
VStem: -330 80<1017 1230>
LayerCount: 2
Fore
SplineSet
-330 1230 m 1
 -250 1230 l 1
 -250 980 l 1
 -330 1017 l 1
 -330 1230 l 1
EndSplineSet
Validated: 1
Colour: ffff
EndChar

StartChar: uni0E49.high.left
Encoding: 1044041 1044041 218
Width: 0
VWidth: -300
Flags: W
HStem: 1000 55<-452.614 -390.705 -350 -263.473> 1180 40<-401.088 -338.912>
VStem: -445 40<1113.96 1176.09> -335 40<1114.41 1176.09> -205 85<1112.85 1210>
LayerCount: 2
Fore
SplineSet
-370 1220 m 0
 -329 1220 -295 1186 -295 1145 c 0
 -295 1081 -350 1055 -350 1055 c 1
 -267 1055 -205 1106 -205 1210 c 1
 -120 1210 l 1
 -120 1080 -190 1000 -350 1000 c 2
 -430 1000 l 2
 -468 1000 -480 1055 -480 1055 c 1
 -435 1055 l 2
 -422 1055 -405 1061 -390 1073 c 1
 -421 1081 -445 1110 -445 1145 c 0
 -445 1186 -411 1220 -370 1220 c 0
-370 1180 m 0
 -389 1180 -405 1164 -405 1145 c 0
 -405 1126 -389 1110 -370 1110 c 0
 -351 1110 -335 1126 -335 1145 c 0
 -335 1164 -351 1180 -370 1180 c 0
EndSplineSet
Validated: 1
Colour: ffff
EndChar

StartChar: uni0E4A.high.left
Encoding: 1044042 1044042 219
Width: 0
VWidth: 0
Flags: W
HStem: 1000 35<-466.728 -412.959> 1005 45<-330 -306.814> 1095 35<-467.216 -412.808> 1180 50<-465.917 -404.46>
VStem: -530 60<1036.13 1178.04> -410 36<1038.19 1092.11> -294 54<1076.65 1173.46> -210 70<1087.29 1220>
LayerCount: 2
Fore
SplineSet
-330 1180 m 1x7f
 -354 1140 l 1
 -400 1140 l 1
 -403 1158 -412 1180 -434 1180 c 0
 -457 1180 -473 1152 -474 1120 c 1
 -464 1127 -452 1130 -440 1130 c 0
 -404 1130 -374 1101 -374 1065 c 0
 -374 1030 -404 1000 -440 1000 c 0xbf
 -495 1000 -530 1055 -530 1115 c 0
 -530 1176 -490 1230 -434 1230 c 0
 -401 1230 -382 1206 -374 1187 c 1
 -350 1230 l 1
 -330 1230 l 2
 -274 1230 -240 1181 -240 1120 c 0
 -240 1105 -242 1090 -246 1076 c 1
 -226 1087 -210 1122 -210 1220 c 1
 -140 1220 l 1
 -140 1111 -158 1005 -330 1005 c 1
 -330 1050 l 1
 -308 1050 -294 1081 -294 1120 c 0
 -294 1146 -309 1172 -330 1180 c 1x7f
-440 1095 m 0
 -456 1095 -470 1082 -470 1065 c 0
 -470 1049 -456 1035 -440 1035 c 0
 -423 1035 -410 1049 -410 1065 c 0
 -410 1082 -423 1095 -440 1095 c 0
EndSplineSet
Validated: 1
Colour: ffff
EndChar

StartChar: uni0E4B.high.left
Encoding: 1044043 1044043 220
Width: 0
VWidth: -300
Flags: W
HStem: 1085 60<-430 -330 -250 -150>
VStem: -330 80<1012 1085 1145 1240>
LayerCount: 2
Fore
SplineSet
-330 1240 m 1
 -250 1240 l 1
 -250 1145 l 1
 -150 1145 l 1
 -150 1085 l 1
 -250 1085 l 1
 -250 970 l 1
 -330 1012 l 1
 -330 1085 l 1
 -430 1085 l 1
 -430 1145 l 1
 -330 1145 l 1
 -330 1240 l 1
EndSplineSet
Validated: 1
Colour: ffff
EndChar

StartChar: uni0E4C.high.left
Encoding: 1044044 1044044 221
Width: 0
VWidth: -300
Flags: W
HStem: 970 40<-395.879 -333.402>
VStem: -440 40<1014.1 1075.18> -330 40<1013.73 1076.43> -304 84<1181.67 1230>
LayerCount: 2
Fore
SplineSet
-364 1080 m 0xe0
 -384 1080 -400 1064 -400 1045 c 0
 -400 1026 -384 1010 -364 1010 c 0
 -345 1010 -330 1026 -330 1045 c 0
 -330 1064 -345 1080 -364 1080 c 0xe0
-304 1230 m 1xd0
 -220 1230 l 1xd0
 -220 1166 -280 1139 -321 1106 c 1
 -302 1093 -290 1070 -290 1045 c 0xe0
 -290 1004 -323 970 -364 970 c 0
 -406 970 -440 1004 -440 1045 c 0
 -440 1142 -304 1163 -304 1230 c 1xd0
EndSplineSet
Validated: 1
Colour: ffff
EndChar

StartChar: uni0E4D.high.left
Encoding: 1044045 1044045 222
Width: 0
VWidth: 300
Flags: W
HStem: 990 55<-360.913 -259.087> 1165 55<-360.913 -259.087>
VStem: -435 65<1054.96 1155.04> -250 65<1054.96 1155.04>
LayerCount: 2
Fore
SplineSet
-310 1165 m 0
 -346 1165 -370 1141 -370 1105 c 0
 -370 1069 -346 1045 -310 1045 c 0
 -274 1045 -250 1069 -250 1105 c 0
 -250 1141 -274 1165 -310 1165 c 0
-310 1220 m 0
 -243 1220 -185 1172 -185 1105 c 0
 -185 1038 -243 990 -310 990 c 0
 -377 990 -435 1038 -435 1105 c 0
 -435 1172 -377 1220 -310 1220 c 0
EndSplineSet
Validated: 1
Colour: ffff
EndChar
